<?xml version="1.0" encoding="UTF-8" standalone="no"?>
<!DOCTYPE svg PUBLIC "-//W3C//DTD SVG 1.1//EN"
 "http://www.w3.org/Graphics/SVG/1.1/DTD/svg11.dtd">
<!-- Generated by graphviz version 2.40.1 (20161225.0304)
 -->
<!-- Title: ChunkBwdDvLocalNormalVsDeadlock Pages: 1 -->
<svg width="1215pt" height="806pt"
 viewBox="0.00 0.00 1214.70 806.20" xmlns="http://www.w3.org/2000/svg" xmlns:xlink="http://www.w3.org/1999/xlink">
<g id="graph0" class="graph" transform="scale(1 1) rotate(0) translate(21.6 784.6)">
<title>ChunkBwdDvLocalNormalVsDeadlock</title>
<polygon fill="#ffffff" stroke="transparent" points="-21.6,21.6 -21.6,-784.6 1193.1,-784.6 1193.1,21.6 -21.6,21.6"/>
<text text-anchor="middle" x="585.75" y="-741.4" font-family="Microsoft YaHei" font-size="22.00" fill="#000000">ChunkBwdDvLocal：预期正常流水与旧协议卡死流水</text>
<!-- actual_layout -->
<g id="node1" class="node">
<title>actual_layout</title>
<path fill="#f8fafc" stroke="transparent" d="M847.5,-731C847.5,-731 375.5,-731 375.5,-731 369.5,-731 363.5,-725 363.5,-719 363.5,-719 363.5,-594 363.5,-594 363.5,-588 369.5,-582 375.5,-582 375.5,-582 847.5,-582 847.5,-582 853.5,-582 859.5,-588 859.5,-594 859.5,-594 859.5,-719 859.5,-719 859.5,-725 853.5,-731 847.5,-731"/>
<polygon fill="#f1f5f9" stroke="transparent" points="364.5,-698.5 364.5,-729.5 858.5,-729.5 858.5,-698.5 364.5,-698.5"/>
<polygon fill="none" stroke="#64748b" points="364.5,-698.5 364.5,-729.5 858.5,-729.5 858.5,-698.5 364.5,-698.5"/>
<text text-anchor="start" x="390.5" y="-711.9" font-family="Microsoft YaHei" font-weight="bold" font-size="12.00" fill="#000000">真实计算与 workspace 布局（当前 shape：H_qk = H_do = 32，hRatio = 1）</text>
<polygon fill="#dbeafe" stroke="transparent" points="364.5,-644.5 364.5,-698.5 448.5,-698.5 448.5,-644.5 364.5,-644.5"/>
<polygon fill="none" stroke="#64748b" points="364.5,-644.5 364.5,-698.5 448.5,-698.5 448.5,-644.5 364.5,-644.5"/>
<text text-anchor="start" x="373.5" y="-674.9" font-family="Microsoft YaHei" font-weight="bold" font-size="12.00" fill="#000000">Cube / AIC</text>
<text text-anchor="start" x="379.5" y="-662.9" font-family="Microsoft YaHei" font-size="12.00" fill="#000000">K @ Q^T</text>
<polygon fill="none" stroke="#64748b" points="448.5,-644.5 448.5,-698.5 479.5,-698.5 479.5,-644.5 448.5,-644.5"/>
<text text-anchor="start" x="457.5" y="-668.4" font-family="Microsoft YaHei" font-size="12.00" fill="#000000">→</text>
<polygon fill="#fef3c7" stroke="transparent" points="479.5,-644.5 479.5,-698.5 602.5,-698.5 602.5,-644.5 479.5,-644.5"/>
<polygon fill="none" stroke="#64748b" points="479.5,-644.5 479.5,-698.5 602.5,-698.5 602.5,-644.5 479.5,-644.5"/>
<text text-anchor="start" x="503.5" y="-680.9" font-family="Microsoft YaHei" font-weight="bold" font-size="12.00" fill="#000000">Vector / AIV</text>
<text text-anchor="start" x="488.5" y="-668.9" font-family="Microsoft YaHei" font-size="12.00" fill="#000000">gate · mask · scale</text>
<text text-anchor="start" x="498.5" y="-656.9" font-family="Microsoft YaHei" font-size="12.00" fill="#000000">逐元素乘 KQ^T</text>
<polygon fill="none" stroke="#64748b" points="602.5,-644.5 602.5,-698.5 646.5,-698.5 646.5,-644.5 602.5,-644.5"/>
<text text-anchor="start" x="618" y="-668.4" font-family="Microsoft YaHei" font-size="12.00" fill="#000000">→</text>
<polygon fill="#dcfce7" stroke="transparent" points="646.5,-644.5 646.5,-698.5 782.5,-698.5 782.5,-644.5 646.5,-644.5"/>
<polygon fill="none" stroke="#64748b" points="646.5,-644.5 646.5,-698.5 782.5,-698.5 782.5,-644.5 646.5,-644.5"/>
<text text-anchor="start" x="681.5" y="-674.9" font-family="Microsoft YaHei" font-weight="bold" font-size="12.00" fill="#000000">Cube / AIC</text>
<text text-anchor="start" x="658.5" y="-662.9" font-family="Microsoft YaHei" font-size="12.00" fill="#000000">gated(KQ^T) @ dO</text>
<polygon fill="#ecfdf5" stroke="transparent" points="782.5,-644.5 782.5,-698.5 858.5,-698.5 858.5,-644.5 782.5,-644.5"/>
<polygon fill="none" stroke="#64748b" points="782.5,-644.5 782.5,-698.5 858.5,-698.5 858.5,-644.5 782.5,-644.5"/>
<text text-anchor="start" x="795" y="-669.4" font-family="Microsoft YaHei" font-weight="bold" font-size="12.00" fill="#000000">dV_local</text>
<polygon fill="none" stroke="#64748b" points="364.5,-613.5 364.5,-644.5 602.5,-644.5 602.5,-613.5 364.5,-613.5"/>
<text text-anchor="start" x="400" y="-625.9" font-family="Microsoft YaHei" font-size="12.00" fill="#000000">逻辑 slot 组：s = qkHead % 3</text>
<polygon fill="none" stroke="#64748b" points="602.5,-613.5 602.5,-644.5 858.5,-644.5 858.5,-613.5 602.5,-613.5"/>
<text text-anchor="start" x="611.5" y="-625.9" font-family="Microsoft YaHei" font-size="12.00" fill="#000000">物理 block：QK[s] = 0..2；GATED[s] = 3..5</text>
<polygon fill="#fff7ed" stroke="transparent" points="364.5,-582.5 364.5,-613.5 858.5,-613.5 858.5,-582.5 364.5,-582.5"/>
<polygon fill="none" stroke="#64748b" points="364.5,-582.5 364.5,-613.5 858.5,-613.5 858.5,-582.5 364.5,-582.5"/>
<text text-anchor="start" x="383.5" y="-595.9" font-family="Microsoft YaHei" font-weight="bold" font-size="12.00" fill="#000000">3 组 slot 约束地址复用；CrossCore reverse 窗口约束同步状态。二者是两套容量。</text>
<polygon fill="none" stroke="#64748b" points="363.5,-582 363.5,-731 859.5,-731 859.5,-582 363.5,-582"/>
</g>
<!-- normal_title -->
<g id="node2" class="node">
<title>normal_title</title>
<path fill="#ecfdf5" stroke="#059669" stroke-width="2" d="M563.5,-547C563.5,-547 263.5,-547 263.5,-547 257.5,-547 251.5,-541 251.5,-535 251.5,-535 251.5,-523 251.5,-523 251.5,-517 257.5,-511 263.5,-511 263.5,-511 563.5,-511 563.5,-511 569.5,-511 575.5,-517 575.5,-523 575.5,-523 575.5,-535 575.5,-535 575.5,-541 569.5,-547 563.5,-547"/>
<text text-anchor="middle" x="413.5" y="-525.9" font-family="Microsoft YaHei" font-size="12.00" fill="#000000">A. 预期正确：payload 所有权闭环 + flag 反向窗口闭环</text>
</g>
<!-- actual_layout&#45;&gt;normal_title -->
<g id="edge1" class="edge">
<title>actual_layout&#45;&gt;normal_title</title>
<path fill="none" stroke="#64748b" stroke-width="1.4" d="M469.5,-581.9638C469.5,-581.9638 469.5,-554.8673 469.5,-554.8673"/>
<polygon fill="#64748b" stroke="#64748b" stroke-width="1.4" points="472.1251,-554.8673 469.5,-547.3673 466.8751,-554.8674 472.1251,-554.8673"/>
</g>
<!-- deadlock_title -->
<g id="node3" class="node">
<title>deadlock_title</title>
<path fill="#fef2f2" stroke="#dc2626" stroke-width="2" d="M1045.5,-547C1045.5,-547 679.5,-547 679.5,-547 673.5,-547 667.5,-541 667.5,-535 667.5,-535 667.5,-523 667.5,-523 667.5,-517 673.5,-511 679.5,-511 679.5,-511 1045.5,-511 1045.5,-511 1051.5,-511 1057.5,-517 1057.5,-523 1057.5,-523 1057.5,-535 1057.5,-535 1057.5,-541 1051.5,-547 1045.5,-547"/>
<text text-anchor="middle" x="862.5" y="-525.9" font-family="Microsoft YaHei" font-size="12.00" fill="#000000">B. 旧 QK 协议：3&#45;slot 已约束 outstanding；精确设备卡点仍需定位</text>
</g>
<!-- actual_layout&#45;&gt;deadlock_title -->
<g id="edge2" class="edge">
<title>actual_layout&#45;&gt;deadlock_title</title>
<path fill="none" stroke="#64748b" stroke-width="1.4" d="M763.5,-581.9638C763.5,-581.9638 763.5,-554.8673 763.5,-554.8673"/>
<polygon fill="#64748b" stroke="#64748b" stroke-width="1.4" points="766.1251,-554.8673 763.5,-547.3673 760.8751,-554.8674 766.1251,-554.8673"/>
</g>
<!-- normal_flow -->
<g id="node4" class="node">
<title>normal_flow</title>
<path fill="#f8fafc" stroke="transparent" d="M607,-476C607,-476 12,-476 12,-476 6,-476 0,-470 0,-464 0,-464 0,-254 0,-254 0,-248 6,-242 12,-242 12,-242 607,-242 607,-242 613,-242 619,-248 619,-254 619,-254 619,-464 619,-464 619,-470 613,-476 607,-476"/>
<polygon fill="#dbeafe" stroke="transparent" points="1.5,-446 1.5,-475 91.5,-475 91.5,-446 1.5,-446"/>
<polygon fill="none" stroke="#059669" points="1.5,-446 1.5,-475 91.5,-475 91.5,-446 1.5,-446"/>
<text text-anchor="start" x="35.5" y="-458.4" font-family="Microsoft YaHei" font-weight="bold" font-size="12.00" fill="#000000">AIC</text>
<polygon fill="none" stroke="#059669" points="91.5,-446 91.5,-475 618.5,-475 618.5,-446 91.5,-446"/>
<text text-anchor="start" x="99.5" y="-457.4" font-family="Microsoft YaHei" font-size="12.00" fill="#000000">① Wait QK_FREE[s] → Cube: K @ Q^T → 写 QK[s] → WriteDone</text>
<polygon fill="#e0f2fe" stroke="transparent" points="1.5,-417 1.5,-446 91.5,-446 91.5,-417 1.5,-417"/>
<polygon fill="none" stroke="#059669" points="1.5,-417 1.5,-446 91.5,-446 91.5,-417 1.5,-417"/>
<text text-anchor="start" x="34" y="-429.4" font-family="Microsoft YaHei" font-weight="bold" font-size="12.00" fill="#000000">通知</text>
<polygon fill="none" stroke="#059669" points="91.5,-417 91.5,-446 618.5,-446 618.5,-417 91.5,-417"/>
<text text-anchor="start" x="99.5" y="-429.4" font-family="Microsoft YaHei" font-weight="bold" font-size="12.00" fill="#000000">SET QK_READY</text>
<text text-anchor="start" x="190.5" y="-429.4" font-family="Microsoft YaHei" font-size="12.00" fill="#000000">；第 Depth 次后等待 QK_REVERSE_ACK</text>
<polygon fill="#fef3c7" stroke="transparent" points="1.5,-388 1.5,-417 91.5,-417 91.5,-388 1.5,-388"/>
<polygon fill="none" stroke="#059669" points="1.5,-388 1.5,-417 91.5,-417 91.5,-388 1.5,-388"/>
<text text-anchor="start" x="35.5" y="-400.4" font-family="Microsoft YaHei" font-weight="bold" font-size="12.00" fill="#000000">AIV</text>
<polygon fill="none" stroke="#059669" points="91.5,-388 91.5,-417 618.5,-417 618.5,-388 91.5,-388"/>
<text text-anchor="start" x="99.5" y="-399.4" font-family="Microsoft YaHei" font-size="12.00" fill="#000000">② WAIT QK_READY + Wait GATED_FREE[s] → 读 QK[s] → gate/mask/scale → 写 GATED[s]</text>
<polygon fill="#ecfdf5" stroke="transparent" points="1.5,-359 1.5,-388 91.5,-388 91.5,-359 1.5,-359"/>
<polygon fill="none" stroke="#059669" points="1.5,-359 1.5,-388 91.5,-388 91.5,-359 1.5,-359"/>
<text text-anchor="start" x="23.5" y="-371.4" font-family="Microsoft YaHei" font-weight="bold" font-size="12.00" fill="#000000">释放 QK</text>
<polygon fill="none" stroke="#059669" points="91.5,-359 91.5,-388 618.5,-388 618.5,-359 91.5,-359"/>
<text text-anchor="start" x="99.5" y="-370.4" font-family="Microsoft YaHei" font-size="12.00" fill="#000000">LastAsyncReadDone(QK[s]) → SET QK_FREE[s]</text>
<polygon fill="#fff7ed" stroke="transparent" points="1.5,-330 1.5,-359 91.5,-359 91.5,-330 1.5,-330"/>
<polygon fill="none" stroke="#059669" points="1.5,-330 1.5,-359 91.5,-359 91.5,-330 1.5,-330"/>
<text text-anchor="start" x="34" y="-342.4" font-family="Microsoft YaHei" font-weight="bold" font-size="12.00" fill="#000000">通知</text>
<polygon fill="none" stroke="#059669" points="91.5,-330 91.5,-359 618.5,-359 618.5,-330 91.5,-330"/>
<text text-anchor="start" x="99.5" y="-342.4" font-family="Microsoft YaHei" font-weight="bold" font-size="12.00" fill="#000000">SET GATED_READY</text>
<text text-anchor="start" x="214.5" y="-342.4" font-family="Microsoft YaHei" font-size="12.00" fill="#000000">；写 GATED[s] 的 pipe 已完成</text>
<polygon fill="#dcfce7" stroke="transparent" points="1.5,-301 1.5,-330 91.5,-330 91.5,-301 1.5,-301"/>
<polygon fill="none" stroke="#059669" points="1.5,-301 1.5,-330 91.5,-330 91.5,-301 1.5,-301"/>
<text text-anchor="start" x="35.5" y="-313.4" font-family="Microsoft YaHei" font-weight="bold" font-size="12.00" fill="#000000">AIC</text>
<polygon fill="none" stroke="#059669" points="91.5,-301 91.5,-330 618.5,-330 618.5,-301 91.5,-301"/>
<text text-anchor="start" x="99.5" y="-312.4" font-family="Microsoft YaHei" font-size="12.00" fill="#000000">③ WAIT GATED_READY → 读 GATED[s] → Cube: gated(KQ^T) @ dO → dV</text>
<polygon fill="#ecfdf5" stroke="transparent" points="1.5,-272 1.5,-301 91.5,-301 91.5,-272 1.5,-272"/>
<polygon fill="none" stroke="#059669" points="1.5,-272 1.5,-301 91.5,-301 91.5,-272 1.5,-272"/>
<text text-anchor="start" x="11.5" y="-284.4" font-family="Microsoft YaHei" font-weight="bold" font-size="12.00" fill="#000000">释放 GATED</text>
<polygon fill="none" stroke="#059669" points="91.5,-272 91.5,-301 618.5,-301 618.5,-272 91.5,-272"/>
<text text-anchor="start" x="99.5" y="-283.4" font-family="Microsoft YaHei" font-size="12.00" fill="#000000">LastAsyncReadDone(GATED[s]) → SET GATED_FREE[s]</text>
<polygon fill="#f0fdf4" stroke="transparent" points="1.5,-243 1.5,-272 91.5,-272 91.5,-243 1.5,-243"/>
<polygon fill="none" stroke="#059669" points="1.5,-243 1.5,-272 91.5,-272 91.5,-243 1.5,-243"/>
<text text-anchor="start" x="34" y="-255.4" font-family="Microsoft YaHei" font-weight="bold" font-size="12.00" fill="#000000">轮转</text>
<polygon fill="none" stroke="#059669" points="91.5,-243 91.5,-272 618.5,-272 618.5,-243 91.5,-243"/>
<text text-anchor="start" x="99.5" y="-254.4" font-family="Microsoft YaHei" font-size="12.00" fill="#000000">下一个 head 使用 (s + 1) % 3；回到 s 前必须拿到对应 FREE</text>
<polygon fill="none" stroke="#059669" points="0,-242 0,-476 619,-476 619,-242 0,-242"/>
</g>
<!-- normal_title&#45;&gt;normal_flow -->
<g id="edge3" class="edge">
<title>normal_title&#45;&gt;normal_flow</title>
<path fill="none" stroke="#64748b" stroke-width="1.4" d="M413.5,-510.807C413.5,-510.807 413.5,-483.6137 413.5,-483.6137"/>
<polygon fill="#64748b" stroke="#64748b" stroke-width="1.4" points="416.1251,-483.6137 413.5,-476.1137 410.8751,-483.6138 416.1251,-483.6137"/>
</g>
<!-- deadlock_flow -->
<g id="node6" class="node">
<title>deadlock_flow</title>
<path fill="#f8fafc" stroke="transparent" d="M1159.5,-476C1159.5,-476 671.5,-476 671.5,-476 665.5,-476 659.5,-470 659.5,-464 659.5,-464 659.5,-254 659.5,-254 659.5,-248 665.5,-242 671.5,-242 671.5,-242 1159.5,-242 1159.5,-242 1165.5,-242 1171.5,-248 1171.5,-254 1171.5,-254 1171.5,-464 1171.5,-464 1171.5,-470 1165.5,-476 1159.5,-476"/>
<polygon fill="#fef2f2" stroke="transparent" points="660.5,-446 660.5,-475 1170.5,-475 1170.5,-446 660.5,-446"/>
<polygon fill="none" stroke="#dc2626" points="660.5,-446 660.5,-475 1170.5,-475 1170.5,-446 660.5,-446"/>
<text text-anchor="start" x="756.5" y="-458.4" font-family="Microsoft YaHei" font-weight="bold" font-size="12.00" fill="#000000">代码级上界推导：第 16 次总 SET 不等于积压 16 个 token</text>
<polygon fill="#dbeafe" stroke="transparent" points="660.5,-417 660.5,-446 758.5,-446 758.5,-417 660.5,-417"/>
<polygon fill="none" stroke="#dc2626" points="660.5,-417 660.5,-446 758.5,-446 758.5,-417 660.5,-417"/>
<text text-anchor="start" x="698.5" y="-429.4" font-family="Microsoft YaHei" font-weight="bold" font-size="12.00" fill="#000000">AIC</text>
<polygon fill="none" stroke="#dc2626" points="758.5,-417 758.5,-446 1170.5,-446 1170.5,-417 758.5,-417"/>
<text text-anchor="start" x="766.5" y="-428.4" font-family="Microsoft YaHei" font-size="12.00" fill="#000000">slot 按 0 → 1 → 2 → 0 轮转，持续计算各 head 的 K @ Q^T</text>
<polygon fill="#fee2e2" stroke="transparent" points="660.5,-388 660.5,-417 758.5,-417 758.5,-388 660.5,-388"/>
<polygon fill="none" stroke="#dc2626" points="660.5,-388 660.5,-417 758.5,-417 758.5,-388 660.5,-388"/>
<text text-anchor="start" x="675" y="-400.4" font-family="Microsoft YaHei" font-weight="bold" font-size="12.00" fill="#000000">QK counter</text>
<polygon fill="none" stroke="#dc2626" points="758.5,-388 758.5,-417 1170.5,-417 1170.5,-388 758.5,-388"/>
<text text-anchor="start" x="766.5" y="-399.4" font-family="Microsoft YaHei" font-size="12.00" fill="#000000">AIC SET: counter + 1；AIV WAIT: counter &#45; 1；最大值为 15</text>
<polygon fill="#fff7ed" stroke="transparent" points="660.5,-359 660.5,-388 758.5,-388 758.5,-359 660.5,-359"/>
<polygon fill="none" stroke="#dc2626" points="660.5,-359 660.5,-388 758.5,-388 758.5,-359 660.5,-359"/>
<text text-anchor="start" x="683.5" y="-371.4" font-family="Microsoft YaHei" font-weight="bold" font-size="12.00" fill="#000000">slot 证明</text>
<polygon fill="none" stroke="#dc2626" points="758.5,-359 758.5,-388 1170.5,-388 1170.5,-359 758.5,-359"/>
<text text-anchor="start" x="766.5" y="-370.4" font-family="Microsoft YaHei" font-size="12.00" fill="#000000">SET QK[h] 前先 WAIT GATED[h&#45;3]；这蕴含 AIV 已 WAIT QK[h&#45;3]</text>
<polygon fill="#fef3c7" stroke="transparent" points="660.5,-330 660.5,-359 758.5,-359 758.5,-330 660.5,-330"/>
<polygon fill="none" stroke="#dc2626" points="660.5,-330 660.5,-359 758.5,-359 758.5,-330 660.5,-330"/>
<text text-anchor="start" x="673" y="-342.4" font-family="Microsoft YaHei" font-weight="bold" font-size="12.00" fill="#000000">第 16 次 SET</text>
<polygon fill="none" stroke="#dc2626" points="758.5,-330 758.5,-359 1170.5,-359 1170.5,-330 758.5,-330"/>
<text text-anchor="start" x="766.5" y="-341.4" font-family="Microsoft YaHei" font-size="12.00" fill="#000000">h=15 时累计 SET=16、累计 WAIT 至少=13，所以 outstanding ≤ 3</text>
<polygon fill="#fecaca" stroke="transparent" points="660.5,-301 660.5,-330 758.5,-330 758.5,-301 660.5,-301"/>
<polygon fill="none" stroke="#dc2626" points="660.5,-301 660.5,-330 758.5,-330 758.5,-301 660.5,-301"/>
<text text-anchor="start" x="673" y="-313.4" font-family="Microsoft YaHei" font-weight="bold" font-size="12.00" fill="#000000">排除简化解释</text>
<polygon fill="none" stroke="#dc2626" points="758.5,-301 758.5,-330 1170.5,-330 1170.5,-301 758.5,-301"/>
<text text-anchor="start" x="766.5" y="-313.4" font-family="Microsoft YaHei" font-weight="bold" font-size="12.00" fill="#000000">按顺序语义，不能解释成 hardware counter 单纯累到 15 后永久卡死</text>
<polygon fill="#dbeafe" stroke="transparent" points="660.5,-272 660.5,-301 758.5,-301 758.5,-272 660.5,-272"/>
<polygon fill="none" stroke="#dc2626" points="660.5,-272 660.5,-301 758.5,-301 758.5,-272 660.5,-272"/>
<text text-anchor="start" x="668.5" y="-284.4" font-family="Microsoft YaHei" font-weight="bold" font-size="12.00" fill="#000000">1978b63 效果</text>
<polygon fill="none" stroke="#dc2626" points="758.5,-272 758.5,-301 1170.5,-301 1170.5,-272 758.5,-272"/>
<text text-anchor="start" x="766.5" y="-283.4" font-family="Microsoft YaHei" font-size="12.00" fill="#000000">每 15 次总调用增加反向握手/顺序收敛点；它不证明旧 counter 峰值为 15</text>
<polygon fill="#7f1d1d" stroke="transparent" points="660.5,-243 660.5,-272 758.5,-272 758.5,-243 660.5,-243"/>
<polygon fill="none" stroke="#dc2626" points="660.5,-243 660.5,-272 758.5,-272 758.5,-243 660.5,-243"/>
<text text-anchor="start" x="685" y="-255.4" font-family="Microsoft YaHei" font-weight="bold" font-size="12.00" fill="#ffffff">证据边界</text>
<polygon fill="#fee2e2" stroke="transparent" points="758.5,-243 758.5,-272 1170.5,-272 1170.5,-243 758.5,-243"/>
<polygon fill="none" stroke="#dc2626" points="758.5,-243 758.5,-272 1170.5,-272 1170.5,-243 758.5,-243"/>
<text text-anchor="start" x="766.5" y="-255.4" font-family="Microsoft YaHei" font-weight="bold" font-size="12.00" fill="#000000">仍缺设备 PC、pipe 在途状态和 flag 快照；精确卡点尚未确认</text>
<polygon fill="none" stroke="#dc2626" points="659.5,-242 659.5,-476 1171.5,-476 1171.5,-242 659.5,-242"/>
</g>
<!-- deadlock_title&#45;&gt;deadlock_flow -->
<g id="edge5" class="edge">
<title>deadlock_title&#45;&gt;deadlock_flow</title>
<path fill="none" stroke="#64748b" stroke-width="1.4" d="M862.5,-510.807C862.5,-510.807 862.5,-483.6137 862.5,-483.6137"/>
<polygon fill="#64748b" stroke="#64748b" stroke-width="1.4" points="865.1251,-483.6137 862.5,-476.1137 859.8751,-483.6138 865.1251,-483.6137"/>
</g>
<!-- normal_window -->
<g id="node5" class="node">
<title>normal_window</title>
<path fill="#f8fafc" stroke="transparent" d="M662.5,-188.5C662.5,-188.5 68.5,-188.5 68.5,-188.5 62.5,-188.5 56.5,-182.5 56.5,-176.5 56.5,-176.5 56.5,-140.5 56.5,-140.5 56.5,-134.5 62.5,-128.5 68.5,-128.5 68.5,-128.5 662.5,-128.5 662.5,-128.5 668.5,-128.5 674.5,-134.5 674.5,-140.5 674.5,-140.5 674.5,-176.5 674.5,-176.5 674.5,-182.5 668.5,-188.5 662.5,-188.5"/>
<polygon fill="#eff6ff" stroke="transparent" points="57.5,-158.5 57.5,-187.5 673.5,-187.5 673.5,-158.5 57.5,-158.5"/>
<polygon fill="none" stroke="#2563eb" points="57.5,-158.5 57.5,-187.5 673.5,-187.5 673.5,-158.5 57.5,-158.5"/>
<text text-anchor="start" x="227.5" y="-170.9" font-family="Microsoft YaHei" font-weight="bold" font-size="12.00" fill="#000000">QK flag 的有界 reverse 窗口（与 3&#45;slot 环独立）</text>
<polygon fill="none" stroke="#2563eb" points="57.5,-129.5 57.5,-158.5 173.5,-158.5 173.5,-129.5 57.5,-129.5"/>
<text text-anchor="start" x="65.5" y="-140.9" font-family="Microsoft YaHei" font-size="12.00" fill="#000000">SET #1 ... SET #15</text>
<polygon fill="#dbeafe" stroke="transparent" points="173.5,-129.5 173.5,-158.5 307.5,-158.5 307.5,-129.5 173.5,-129.5"/>
<polygon fill="none" stroke="#2563eb" points="173.5,-129.5 173.5,-158.5 307.5,-158.5 307.5,-129.5 173.5,-129.5"/>
<text text-anchor="start" x="181.5" y="-141.9" font-family="Microsoft YaHei" font-weight="bold" font-size="12.00" fill="#000000">AIC WAIT reverseId</text>
<polygon fill="#fef3c7" stroke="transparent" points="307.5,-129.5 307.5,-158.5 532.5,-158.5 532.5,-129.5 307.5,-129.5"/>
<polygon fill="none" stroke="#2563eb" points="307.5,-129.5 307.5,-158.5 532.5,-158.5 532.5,-129.5 307.5,-129.5"/>
<text text-anchor="start" x="315.5" y="-141.9" font-family="Microsoft YaHei" font-weight="bold" font-size="12.00" fill="#000000">AIV 第 15 次 WAIT 后 SET reverseId</text>
<polygon fill="#dcfce7" stroke="transparent" points="532.5,-129.5 532.5,-158.5 673.5,-158.5 673.5,-129.5 532.5,-129.5"/>
<polygon fill="none" stroke="#2563eb" points="532.5,-129.5 532.5,-158.5 673.5,-158.5 673.5,-129.5 532.5,-129.5"/>
<text text-anchor="start" x="540.5" y="-141.9" font-family="Microsoft YaHei" font-weight="bold" font-size="12.00" fill="#000000">count 清零，继续 #16</text>
<polygon fill="none" stroke="#2563eb" points="56.5,-128.5 56.5,-188.5 674.5,-188.5 674.5,-128.5 56.5,-128.5"/>
</g>
<!-- normal_flow&#45;&gt;normal_window -->
<g id="edge4" class="edge">
<title>normal_flow&#45;&gt;normal_window</title>
<path fill="none" stroke="#64748b" stroke-width="1.4" d="M337.75,-241.7882C337.75,-241.7882 337.75,-196.0287 337.75,-196.0287"/>
<polygon fill="#64748b" stroke="#64748b" stroke-width="1.4" points="340.3751,-196.0287 337.75,-188.5287 335.1251,-196.0288 340.3751,-196.0287"/>
</g>
<!-- distinction -->
<g id="node8" class="node">
<title>distinction</title>
<path fill="#f8fafc" stroke="transparent" d="M879,-75C879,-75 344,-75 344,-75 338,-75 332,-69 332,-63 332,-63 332,-12 332,-12 332,-6 338,0 344,0 344,0 879,0 879,0 885,0 891,-6 891,-12 891,-12 891,-63 891,-63 891,-69 885,-75 879,-75"/>
<polygon fill="#f3e8ff" stroke="transparent" points="333.5,-31.5 333.5,-73.5 476.5,-73.5 476.5,-31.5 333.5,-31.5"/>
<polygon fill="none" stroke="#475569" points="333.5,-31.5 333.5,-73.5 476.5,-73.5 476.5,-31.5 333.5,-31.5"/>
<text text-anchor="start" x="361" y="-55.9" font-family="Microsoft YaHei" font-weight="bold" font-size="12.00" fill="#000000">slot 环深度 = 3</text>
<text text-anchor="start" x="344.5" y="-43.9" font-family="Microsoft YaHei" font-size="12.00" fill="#000000">payload 最大在途距离</text>
<polygon fill="#eff6ff" stroke="transparent" points="476.5,-31.5 476.5,-73.5 677.5,-73.5 677.5,-31.5 476.5,-31.5"/>
<polygon fill="none" stroke="#475569" points="476.5,-31.5 476.5,-73.5 677.5,-73.5 677.5,-31.5 476.5,-31.5"/>
<text text-anchor="start" x="486.5" y="-55.9" font-family="Microsoft YaHei" font-weight="bold" font-size="12.00" fill="#000000">wrapper flag.count = 总调用数</text>
<text text-anchor="start" x="512" y="-43.9" font-family="Microsoft YaHei" font-size="12.00" fill="#000000">到 15 就做 reverse 握手</text>
<polygon fill="#ecfdf5" stroke="transparent" points="677.5,-31.5 677.5,-73.5 890.5,-73.5 890.5,-31.5 677.5,-31.5"/>
<polygon fill="none" stroke="#475569" points="677.5,-31.5 677.5,-73.5 890.5,-73.5 890.5,-31.5 677.5,-31.5"/>
<text text-anchor="start" x="688" y="-55.9" font-family="Microsoft YaHei" font-weight="bold" font-size="12.00" fill="#000000">hardware counter = SET &#45; WAIT</text>
<text text-anchor="start" x="724.5" y="-43.9" font-family="Microsoft YaHei" font-size="12.00" fill="#000000">顺序模型下应不超过 3</text>
<polygon fill="none" stroke="#475569" points="333.5,-.5 333.5,-31.5 890.5,-31.5 890.5,-.5 333.5,-.5"/>
<text text-anchor="start" x="342.5" y="-13.9" font-family="Microsoft YaHei" font-weight="bold" font-size="12.00" fill="#000000">第 16 次总 SET 可以在 slot 反复释放和复用后发生；它与“同时有 16 个未消费 SET”不是一回事。</text>
<polygon fill="none" stroke="#475569" points="332,0 332,-75 891,-75 891,0 332,0"/>
</g>
<!-- normal_window&#45;&gt;distinction -->
<g id="edge7" class="edge">
<title>normal_window&#45;&gt;distinction</title>
<path fill="none" stroke="#64748b" stroke-width="1.4" d="M503.25,-128.2787C503.25,-128.2787 503.25,-82.6283 503.25,-82.6283"/>
<polygon fill="#64748b" stroke="#64748b" stroke-width="1.4" points="505.8751,-82.6283 503.25,-75.1283 500.6251,-82.6284 505.8751,-82.6283"/>
</g>
<!-- deadlock_cycle -->
<g id="node7" class="node">
<title>deadlock_cycle</title>
<path fill="#fee2e2" stroke="#dc2626" stroke-width="2.2" d="M1018.5,-207C1018.5,-207 754.5,-207 754.5,-207 748.5,-207 742.5,-201 742.5,-195 742.5,-195 742.5,-122 742.5,-122 742.5,-116 748.5,-110 754.5,-110 754.5,-110 1018.5,-110 1018.5,-110 1024.5,-110 1030.5,-116 1030.5,-122 1030.5,-122 1030.5,-195 1030.5,-195 1030.5,-201 1024.5,-207 1018.5,-207"/>
<text text-anchor="middle" x="886.5" y="-188.4" font-family="Microsoft YaHei" font-size="12.00" fill="#000000">仍待验证的机制</text>
<text text-anchor="middle" x="886.5" y="-175.4" font-family="Microsoft YaHei" font-size="12.00" fill="#000000">1. PIPE_FIX / PIPE_MTE2 等异步指令的在途顺序</text>
<text text-anchor="middle" x="886.5" y="-162.4" font-family="Microsoft YaHei" font-size="12.00" fill="#000000">2. 同一 flagId 长期单向重复使用的实现约束</text>
<text text-anchor="middle" x="886.5" y="-149.4" font-family="Microsoft YaHei" font-size="12.00" fill="#000000">3. reverse 握手改变时序后掩盖了其它竞态</text>
<text text-anchor="middle" x="886.5" y="-122.4" font-family="Microsoft YaHei" font-size="12.00" fill="#000000">不能再把其中任何一个写成已确认根因</text>
</g>
<!-- deadlock_flow&#45;&gt;deadlock_cycle -->
<g id="edge6" class="edge">
<title>deadlock_flow&#45;&gt;deadlock_cycle</title>
<path fill="none" stroke="#dc2626" stroke-width="2" d="M886.5,-241.7882C886.5,-241.7882 886.5,-214.5574 886.5,-214.5574"/>
<polygon fill="#dc2626" stroke="#dc2626" stroke-width="2" points="889.1251,-214.5574 886.5,-207.0574 883.8751,-214.5575 889.1251,-214.5574"/>
</g>
<!-- deadlock_cycle&#45;&gt;distinction -->
<g id="edge8" class="edge">
<title>deadlock_cycle&#45;&gt;distinction</title>
<path fill="none" stroke="#64748b" stroke-width="1.4" d="M816.75,-109.9819C816.75,-109.9819 816.75,-82.7253 816.75,-82.7253"/>
<polygon fill="#64748b" stroke="#64748b" stroke-width="1.4" points="819.3751,-82.7253 816.75,-75.2253 814.1251,-82.7254 819.3751,-82.7253"/>
</g>
</g>
</svg>
