<?xml version="1.0" encoding="UTF-8" standalone="no"?>
<!DOCTYPE svg PUBLIC "-//W3C//DTD SVG 1.1//EN"
 "http://www.w3.org/Graphics/SVG/1.1/DTD/svg11.dtd">
<!-- Generated by graphviz version 2.40.1 (20161225.0304)
 -->
<!-- Title: EvidenceChain Pages: 1 -->
<svg width="1071pt" height="1327pt"
 viewBox="0.00 0.00 1071.40 1327.40" xmlns="http://www.w3.org/2000/svg" xmlns:xlink="http://www.w3.org/1999/xlink">
<g id="graph0" class="graph" transform="scale(1 1) rotate(0) translate(25.2 1302.2)">
<title>EvidenceChain</title>
<polygon fill="#ffffff" stroke="transparent" points="-25.2,25.2 -25.2,-1302.2 1046.2,-1302.2 1046.2,25.2 -25.2,25.2"/>
<text text-anchor="middle" x="510.5" y="-1257" font-family="Microsoft YaHei" font-size="20.00" fill="#000000">chunk_bwd_dv_local 超时：从现象到根因的证据链</text>
<g id="clust1" class="cluster">
<title>cluster_observation</title>
<path fill="#ffffff" stroke="#93c5fd" d="M464,-905C464,-905 1001,-905 1001,-905 1007,-905 1013,-911 1013,-917 1013,-917 1013,-1227 1013,-1227 1013,-1233 1007,-1239 1001,-1239 1001,-1239 464,-1239 464,-1239 458,-1239 452,-1233 452,-1227 452,-1227 452,-917 452,-917 452,-911 458,-905 464,-905"/>
<text text-anchor="middle" x="732.5" y="-1219" font-family="Microsoft YaHei" font-size="20.00" fill="#000000">直接现象</text>
</g>
<g id="clust2" class="cluster">
<title>cluster_runtime</title>
<path fill="#ffffff" stroke="#fca5a5" d="M464,-296C464,-296 734,-296 734,-296 740,-296 746,-302 746,-308 746,-308 746,-573 746,-573 746,-579 740,-585 734,-585 734,-585 464,-585 464,-585 458,-585 452,-579 452,-573 452,-573 452,-308 452,-308 452,-302 458,-296 464,-296"/>
<text text-anchor="middle" x="599" y="-565" font-family="Microsoft YaHei" font-size="20.00" fill="#000000">运行时证据</text>
</g>
<g id="clust3" class="cluster">
<title>cluster_source</title>
<path fill="#ffffff" stroke="#fcd34d" d="M20,-404C20,-404 432,-404 432,-404 438,-404 444,-410 444,-416 444,-416 444,-1100 444,-1100 444,-1106 438,-1112 432,-1112 432,-1112 20,-1112 20,-1112 14,-1112 8,-1106 8,-1100 8,-1100 8,-416 8,-416 8,-410 14,-404 20,-404"/>
<text text-anchor="middle" x="226" y="-1092" font-family="Microsoft YaHei" font-size="20.00" fill="#000000">源码与修复证据</text>
</g>
<g id="clust4" class="cluster">
<title>cluster_conclusion</title>
<path fill="#ffffff" stroke="#94a3b8" d="M70,-8C70,-8 464,-8 464,-8 470,-8 476,-14 476,-20 476,-20 476,-256 476,-256 476,-262 470,-268 464,-268 464,-268 70,-268 70,-268 64,-268 58,-262 58,-256 58,-256 58,-20 58,-20 58,-14 64,-8 70,-8"/>
<text text-anchor="middle" x="267" y="-248" font-family="Microsoft YaHei" font-size="20.00" fill="#000000">结论边界</text>
</g>
<!-- shape_case -->
<g id="node1" class="node">
<title>shape_case</title>
<path fill="#e0f2fe" stroke="#0284c7" d="M794.5,-1201C794.5,-1201 675.5,-1201 675.5,-1201 669.5,-1201 663.5,-1195 663.5,-1189 663.5,-1189 663.5,-1160 663.5,-1160 663.5,-1154 669.5,-1148 675.5,-1148 675.5,-1148 794.5,-1148 794.5,-1148 800.5,-1148 806.5,-1154 806.5,-1160 806.5,-1160 806.5,-1189 806.5,-1189 806.5,-1195 800.5,-1201 794.5,-1201"/>
<text text-anchor="middle" x="735" y="-1184.4" font-family="Microsoft YaHei" font-size="12.00" fill="#000000">A5/DT, BSND</text>
<text text-anchor="middle" x="735" y="-1171.4" font-family="Microsoft YaHei" font-size="12.00" fill="#000000">B=2, H=32, T=8192</text>
<text text-anchor="middle" x="735" y="-1158.4" font-family="Microsoft YaHei" font-size="12.00" fill="#000000">K=V=128, chunk=64</text>
</g>
<!-- nondeterministic -->
<g id="node2" class="node">
<title>nondeterministic</title>
<path fill="#e0f2fe" stroke="#0284c7" d="M993,-966C993,-966 853,-966 853,-966 847,-966 841,-960 841,-954 841,-954 841,-925 841,-925 841,-919 847,-913 853,-913 853,-913 993,-913 993,-913 999,-913 1005,-919 1005,-925 1005,-925 1005,-954 1005,-954 1005,-960 999,-966 993,-966"/>
<text text-anchor="middle" x="923" y="-949.4" font-family="Microsoft YaHei" font-size="12.00" fill="#000000">固定输入循环</text>
<text text-anchor="middle" x="923" y="-936.4" font-family="Microsoft YaHei" font-size="12.00" fill="#000000">前三轮完整通过</text>
<text text-anchor="middle" x="923" y="-923.4" font-family="Microsoft YaHei" font-size="12.00" fill="#000000">后续一轮在 step 125 卡住</text>
</g>
<!-- shape_case&#45;&gt;nondeterministic -->
<g id="edge1" class="edge">
<title>shape_case&#45;&gt;nondeterministic</title>
<path fill="none" stroke="#64748b" stroke-width="1.4" d="M756.2005,-1147.9993C790.7559,-1104.8051 859.1304,-1019.337 896.7177,-972.3528"/>
<polygon fill="#64748b" stroke="#64748b" stroke-width="1.4" points="898.953,-973.7608 901.5885,-966.2644 894.8535,-970.4811 898.953,-973.7608"/>
</g>
<!-- batch_control -->
<g id="node3" class="node">
<title>batch_control</title>
<path fill="#e0f2fe" stroke="#0284c7" d="M797,-959.5C797,-959.5 673,-959.5 673,-959.5 667,-959.5 661,-953.5 661,-947.5 661,-947.5 661,-931.5 661,-931.5 661,-925.5 667,-919.5 673,-919.5 673,-919.5 797,-919.5 797,-919.5 803,-919.5 809,-925.5 809,-931.5 809,-931.5 809,-947.5 809,-947.5 809,-953.5 803,-959.5 797,-959.5"/>
<text text-anchor="middle" x="735" y="-942.9" font-family="Microsoft YaHei" font-size="12.00" fill="#000000">B=4 对照未观察到卡死</text>
<text text-anchor="middle" x="735" y="-929.9" font-family="Microsoft YaHei" font-size="12.00" fill="#000000">B=2 更容易触发</text>
</g>
<!-- shape_case&#45;&gt;batch_control -->
<g id="edge2" class="edge">
<title>shape_case&#45;&gt;batch_control</title>
<path fill="none" stroke="#64748b" stroke-width="1.4" d="M735,-1147.9993C735,-1103.2706 735,-1013.2112 735,-967.4949"/>
<polygon fill="#64748b" stroke="#64748b" stroke-width="1.4" points="737.6251,-967.2592 735,-959.7593 732.3751,-967.2593 737.6251,-967.2592"/>
</g>
<!-- one_process -->
<g id="node4" class="node">
<title>one_process</title>
<path fill="#e0f2fe" stroke="#0284c7" d="M616.5,-959.5C616.5,-959.5 471.5,-959.5 471.5,-959.5 465.5,-959.5 459.5,-953.5 459.5,-947.5 459.5,-947.5 459.5,-931.5 459.5,-931.5 459.5,-925.5 465.5,-919.5 471.5,-919.5 471.5,-919.5 616.5,-919.5 616.5,-919.5 622.5,-919.5 628.5,-925.5 628.5,-931.5 628.5,-931.5 628.5,-947.5 628.5,-947.5 628.5,-953.5 622.5,-959.5 616.5,-959.5"/>
<text text-anchor="middle" x="544" y="-942.9" font-family="Microsoft YaHei" font-size="12.00" fill="#000000">单进程单算子即可复现</text>
<text text-anchor="middle" x="544" y="-929.9" font-family="Microsoft YaHei" font-size="12.00" fill="#000000">排除多进程互锁为必要条件</text>
</g>
<!-- shape_case&#45;&gt;one_process -->
<g id="edge3" class="edge">
<title>shape_case&#45;&gt;one_process</title>
<path fill="none" stroke="#64748b" stroke-width="1.4" d="M713.4612,-1147.9993C676.6556,-1102.715 602.0857,-1010.9667 565.3854,-965.8119"/>
<polygon fill="#64748b" stroke="#64748b" stroke-width="1.4" points="567.2335,-963.9237 560.466,-959.7593 563.1594,-967.235 567.2335,-963.9237"/>
</g>
<!-- op_sync -->
<g id="node5" class="node">
<title>op_sync</title>
<path fill="#fee2e2" stroke="#dc2626" d="M725.5,-547C725.5,-547 616.5,-547 616.5,-547 610.5,-547 604.5,-541 604.5,-535 604.5,-535 604.5,-519 604.5,-519 604.5,-513 610.5,-507 616.5,-507 616.5,-507 725.5,-507 725.5,-507 731.5,-507 737.5,-513 737.5,-519 737.5,-519 737.5,-535 737.5,-535 737.5,-541 731.5,-547 725.5,-547"/>
<text text-anchor="middle" x="671" y="-530.4" font-family="Microsoft YaHei" font-size="12.00" fill="#000000">watchdog 固定停在</text>
<text text-anchor="middle" x="671" y="-517.4" font-family="Microsoft YaHei" font-size="12.00" fill="#000000">op_sync</text>
</g>
<!-- nondeterministic&#45;&gt;op_sync -->
<g id="edge4" class="edge">
<title>nondeterministic&#45;&gt;op_sync</title>
<path fill="none" stroke="#64748b" stroke-width="1.4" d="M894.4086,-912.724C857.2334,-877.909 797,-821.5 797,-821.5 797,-821.5 797,-821.5 797,-647.5 797,-647.5 734.7927,-588.0081 697.7972,-552.6275"/>
<polygon fill="#64748b" stroke="#64748b" stroke-width="1.4" points="699.3242,-550.4556 692.0896,-547.169 695.6956,-554.2498 699.3242,-550.4556"/>
</g>
<!-- qk_pressure -->
<g id="node10" class="node">
<title>qk_pressure</title>
<path fill="#fee2e2" stroke="#dc2626" d="M424,-674C424,-674 252,-674 252,-674 246,-674 240,-668 240,-662 240,-662 240,-633 240,-633 240,-627 246,-621 252,-621 252,-621 424,-621 424,-621 430,-621 436,-627 436,-633 436,-633 436,-662 436,-662 436,-668 430,-674 424,-674"/>
<text text-anchor="middle" x="338" y="-657.4" font-family="Microsoft YaHei" font-size="12.00" fill="#000000">AIC 领先 AIV 时</text>
<text text-anchor="middle" x="338" y="-644.4" font-family="Microsoft YaHei" font-size="12.00" fill="#000000">forward flag outstanding 增长</text>
<text text-anchor="middle" x="338" y="-631.4" font-family="Microsoft YaHei" font-size="12.00" fill="#000000">有限计数窗口失去反压</text>
</g>
<!-- batch_control&#45;&gt;qk_pressure -->
<g id="edge7" class="edge">
<title>batch_control&#45;&gt;qk_pressure</title>
<path fill="none" stroke="#64748b" stroke-width="1.4" stroke-dasharray="5,2" d="M707.7126,-919.4297C639.6748,-869.3867 462.1217,-738.7935 380.3504,-678.6494"/>
<polygon fill="#64748b" stroke="#64748b" stroke-width="1.4" points="381.7553,-676.4241 374.1582,-674.0949 378.6446,-680.6534 381.7553,-676.4241"/>
<text text-anchor="middle" x="533" y="-760" font-family="Microsoft YaHei" font-size="10.00" fill="#000000">速度/调度敏感</text>
</g>
<!-- qk_raw -->
<g id="node9" class="node">
<title>qk_raw</title>
<path fill="#fef3c7" stroke="#d97706" d="M411,-848C411,-848 265,-848 265,-848 259,-848 253,-842 253,-836 253,-836 253,-807 253,-807 253,-801 259,-795 265,-795 265,-795 411,-795 411,-795 417,-795 423,-801 423,-807 423,-807 423,-836 423,-836 423,-842 417,-848 411,-848"/>
<text text-anchor="middle" x="338" y="-831.4" font-family="Microsoft YaHei" font-size="12.00" fill="#000000">源码发现 QK 通道仍为 raw</text>
<text text-anchor="middle" x="338" y="-818.4" font-family="Microsoft YaHei" font-size="12.00" fill="#000000">AIC Set(flag 3)</text>
<text text-anchor="middle" x="338" y="-805.4" font-family="Microsoft YaHei" font-size="12.00" fill="#000000">AIV Wait(flag 3)</text>
</g>
<!-- one_process&#45;&gt;qk_raw -->
<g id="edge8" class="edge">
<title>one_process&#45;&gt;qk_raw</title>
<path fill="none" stroke="#64748b" stroke-width="1.4" d="M509.0549,-919.4829C476.7436,-900.9745 428.2595,-873.202 391.1509,-851.9457"/>
<polygon fill="#64748b" stroke="#64748b" stroke-width="1.4" points="392.1735,-849.5063 384.3608,-848.0562 389.564,-854.0619 392.1735,-849.5063"/>
<text text-anchor="middle" x="488.5" y="-878" font-family="Microsoft YaHei" font-size="10.00" fill="#000000">转向 kernel 内协议</text>
</g>
<!-- pending -->
<g id="node6" class="node">
<title>pending</title>
<path fill="#fee2e2" stroke="#dc2626" d="M620,-357C620,-357 472,-357 472,-357 466,-357 460,-351 460,-345 460,-345 460,-316 460,-316 460,-310 466,-304 472,-304 472,-304 620,-304 620,-304 626,-304 632,-310 632,-316 632,-316 632,-345 632,-345 632,-351 626,-357 620,-357"/>
<text text-anchor="middle" x="546" y="-340.4" font-family="Microsoft YaHei" font-size="12.00" fill="#000000">同一 stream/task 反复超时</text>
<text text-anchor="middle" x="546" y="-327.4" font-family="Microsoft YaHei" font-size="12.00" fill="#000000">sqHead 长时间不变</text>
<text text-anchor="middle" x="546" y="-314.4" font-family="Microsoft YaHei" font-size="12.00" fill="#000000">pendingNum = 1</text>
</g>
<!-- op_sync&#45;&gt;pending -->
<g id="edge5" class="edge">
<title>op_sync&#45;&gt;pending</title>
<path fill="none" stroke="#64748b" stroke-width="1.4" d="M663.5069,-506.9642C650.4723,-472.1107 625,-404 625,-404 625,-404 601.5312,-382.1651 580.1767,-362.2973"/>
<polygon fill="#64748b" stroke="#64748b" stroke-width="1.4" points="581.7999,-360.2221 574.5208,-357.0352 578.2238,-364.0658 581.7999,-360.2221"/>
</g>
<!-- root -->
<g id="node14" class="node">
<title>root</title>
<path fill="#dcfce7" stroke="#059669" stroke-width="2.2" d="M375,-230C375,-230 233,-230 233,-230 227,-230 221,-224 221,-218 221,-218 221,-202 221,-202 221,-196 227,-190 233,-190 233,-190 375,-190 375,-190 381,-190 387,-196 387,-202 387,-202 387,-218 387,-218 387,-224 381,-230 375,-230"/>
<text text-anchor="middle" x="304" y="-213.4" font-family="Microsoft YaHei" font-size="12.00" fill="#000000">高置信根因</text>
<text text-anchor="middle" x="304" y="-200.4" font-family="Microsoft YaHei" font-size="12.00" fill="#000000">QK 跨核通知缺少有界反压</text>
</g>
<!-- pending&#45;&gt;root -->
<g id="edge15" class="edge">
<title>pending&#45;&gt;root</title>
<path fill="none" stroke="#64748b" stroke-width="1.4" d="M492.5925,-303.9066C450.3553,-282.8752 391.9394,-253.788 351.358,-233.5811"/>
<polygon fill="#64748b" stroke="#64748b" stroke-width="1.4" points="352.3844,-231.1598 344.5006,-230.1666 350.0443,-235.8595 352.3844,-231.1598"/>
</g>
<!-- health -->
<g id="node7" class="node">
<title>health</title>
<path fill="#e0f2fe" stroke="#0284c7" d="M560,-547C560,-547 472,-547 472,-547 466,-547 460,-541 460,-535 460,-535 460,-519 460,-519 460,-513 466,-507 472,-507 472,-507 560,-507 560,-507 566,-507 572,-513 572,-519 572,-519 572,-535 572,-535 572,-541 566,-547 560,-547"/>
<text text-anchor="middle" x="516" y="-530.4" font-family="Microsoft YaHei" font-size="12.00" fill="#000000">Health = OK</text>
<text text-anchor="middle" x="516" y="-517.4" font-family="Microsoft YaHei" font-size="12.00" fill="#000000">Fault Event = 0</text>
</g>
<!-- health&#45;&gt;pending -->
<g id="edge6" class="edge">
<title>health&#45;&gt;pending</title>
<path fill="none" stroke="#64748b" stroke-width="1.4" stroke-dasharray="5,2" d="M519.0975,-506.7112C524.2169,-473.1793 534.4986,-405.8345 540.7631,-364.8014"/>
<polygon fill="#64748b" stroke="#64748b" stroke-width="1.4" points="543.3848,-365.0221 541.9219,-357.2118 538.1949,-364.2297 543.3848,-365.0221"/>
<text text-anchor="middle" x="575.5" y="-429.5" font-family="Microsoft YaHei" font-size="10.00" fill="#000000">不排除 kernel 死锁</text>
</g>
<!-- gated_fix -->
<g id="node8" class="node">
<title>gated_fix</title>
<path fill="#fef3c7" stroke="#d97706" d="M410,-1074C410,-1074 266,-1074 266,-1074 260,-1074 254,-1068 254,-1062 254,-1062 254,-1033 254,-1033 254,-1027 260,-1021 266,-1021 266,-1021 410,-1021 410,-1021 416,-1021 422,-1027 422,-1033 422,-1033 422,-1062 422,-1062 422,-1068 416,-1074 410,-1074"/>
<text text-anchor="middle" x="338" y="-1057.4" font-family="Microsoft YaHei" font-size="12.00" fill="#000000">第一阶段只补齐</text>
<text text-anchor="middle" x="338" y="-1044.4" font-family="Microsoft YaHei" font-size="12.00" fill="#000000">AIV &#45;&gt; AIC gated reverse</text>
<text text-anchor="middle" x="338" y="-1031.4" font-family="Microsoft YaHei" font-size="12.00" fill="#000000">问题仍可复现</text>
</g>
<!-- gated_fix&#45;&gt;qk_raw -->
<g id="edge9" class="edge">
<title>gated_fix&#45;&gt;qk_raw</title>
<path fill="none" stroke="#64748b" stroke-width="1.4" d="M338,-1020.6873C338,-979.6553 338,-901.2953 338,-856.0535"/>
<polygon fill="#64748b" stroke="#64748b" stroke-width="1.4" points="340.6251,-855.7777 338,-848.2778 335.3751,-855.7778 340.6251,-855.7777"/>
<text text-anchor="middle" x="377.5" y="-937" font-family="Microsoft YaHei" font-size="10.00" fill="#000000">第一次修复未闭环</text>
</g>
<!-- qk_raw&#45;&gt;qk_pressure -->
<g id="edge10" class="edge">
<title>qk_raw&#45;&gt;qk_pressure</title>
<path fill="none" stroke="#64748b" stroke-width="1.4" d="M338,-794.6938C338,-764.3346 338,-714.7941 338,-681.6802"/>
<polygon fill="#64748b" stroke="#64748b" stroke-width="1.4" points="340.6251,-681.5511 338,-674.0511 335.3751,-681.5511 340.6251,-681.5511"/>
</g>
<!-- fix_1978 -->
<g id="node12" class="node">
<title>fix_1978</title>
<path fill="#dcfce7" stroke="#059669" d="M195.5,-674C195.5,-674 28.5,-674 28.5,-674 22.5,-674 16.5,-668 16.5,-662 16.5,-662 16.5,-633 16.5,-633 16.5,-627 22.5,-621 28.5,-621 28.5,-621 195.5,-621 195.5,-621 201.5,-621 207.5,-627 207.5,-633 207.5,-633 207.5,-662 207.5,-662 207.5,-668 201.5,-674 195.5,-674"/>
<text text-anchor="middle" x="112" y="-657.4" font-family="Microsoft YaHei" font-size="12.00" fill="#000000">1978b63 只修改 QK 同步</text>
<text text-anchor="middle" x="112" y="-644.4" font-family="Microsoft YaHei" font-size="12.00" fill="#000000">raw Set/Wait &#45;&gt; WithReverse</text>
<text text-anchor="middle" x="112" y="-631.4" font-family="Microsoft YaHei" font-size="12.00" fill="#000000">数学与接口未改</text>
</g>
<!-- qk_raw&#45;&gt;fix_1978 -->
<g id="edge13" class="edge">
<title>qk_raw&#45;&gt;fix_1978</title>
<path fill="none" stroke="#64748b" stroke-width="1.4" d="M303.1828,-794.6938C262.586,-763.4379 195.5823,-711.851 152.6409,-678.7899"/>
<polygon fill="#64748b" stroke="#64748b" stroke-width="1.4" points="154.03,-676.5465 146.4859,-674.0511 150.8273,-680.7065 154.03,-676.5465"/>
</g>
<!-- cycle -->
<g id="node11" class="node">
<title>cycle</title>
<path fill="#fee2e2" stroke="#dc2626" d="M417,-452C417,-452 295,-452 295,-452 289,-452 283,-446 283,-440 283,-440 283,-424 283,-424 283,-418 289,-412 295,-412 295,-412 417,-412 417,-412 423,-412 429,-418 429,-424 429,-424 429,-440 429,-440 429,-446 423,-452 417,-452"/>
<text text-anchor="middle" x="356" y="-435.4" font-family="Microsoft YaHei" font-size="12.00" fill="#000000">AIC/AIV 流水无法继续</text>
<text text-anchor="middle" x="356" y="-422.4" font-family="Microsoft YaHei" font-size="12.00" fill="#000000">kernel 不返回</text>
</g>
<!-- qk_pressure&#45;&gt;cycle -->
<g id="edge11" class="edge">
<title>qk_pressure&#45;&gt;cycle</title>
<path fill="none" stroke="#64748b" stroke-width="1.4" d="M340.2433,-620.6425C343.6785,-579.5154 350.2087,-501.3353 353.6859,-459.7054"/>
<polygon fill="#64748b" stroke="#64748b" stroke-width="1.4" points="356.31,-459.824 354.3185,-452.1315 351.0782,-459.387 356.31,-459.824"/>
</g>
<!-- cycle&#45;&gt;pending -->
<g id="edge12" class="edge">
<title>cycle&#45;&gt;pending</title>
<path fill="none" stroke="#64748b" stroke-width="1.4" d="M393.5379,-411.9469C420.8858,-397.3373 458.4103,-377.2913 489.3879,-360.7428"/>
<polygon fill="#64748b" stroke="#64748b" stroke-width="1.4" points="490.9186,-362.9012 496.2969,-357.0519 488.4448,-358.2706 490.9186,-362.9012"/>
</g>
<!-- ab_pass -->
<g id="node13" class="node">
<title>ab_pass</title>
<path fill="#dcfce7" stroke="#059669" d="M224.5,-452C224.5,-452 73.5,-452 73.5,-452 67.5,-452 61.5,-446 61.5,-440 61.5,-440 61.5,-424 61.5,-424 61.5,-418 67.5,-412 73.5,-412 73.5,-412 224.5,-412 224.5,-412 230.5,-412 236.5,-418 236.5,-424 236.5,-424 236.5,-440 236.5,-440 236.5,-446 230.5,-452 224.5,-452"/>
<text text-anchor="middle" x="149" y="-435.4" font-family="Microsoft YaHei" font-size="12.00" fill="#000000">同一环境、原 shape</text>
<text text-anchor="middle" x="149" y="-422.4" font-family="Microsoft YaHei" font-size="12.00" fill="#000000">替换修复 kernel 后不再卡死</text>
</g>
<!-- fix_1978&#45;&gt;ab_pass -->
<g id="edge14" class="edge">
<title>fix_1978&#45;&gt;ab_pass</title>
<path fill="none" stroke="#64748b" stroke-width="1.4" d="M116.6113,-620.6425C123.6725,-579.5154 137.0956,-501.3353 144.2432,-459.7054"/>
<polygon fill="#64748b" stroke="#64748b" stroke-width="1.4" points="146.8615,-459.9676 145.5435,-452.1315 141.6872,-459.0791 146.8615,-459.9676"/>
</g>
<!-- ab_pass&#45;&gt;root -->
<g id="edge16" class="edge">
<title>ab_pass&#45;&gt;root</title>
<path fill="none" stroke="#64748b" stroke-width="2.2" d="M163.0286,-411.9074C191.0845,-371.7241 254.103,-281.4653 285.4969,-236.5012"/>
<polygon fill="#64748b" stroke="#64748b" stroke-width="2.2" points="287.7502,-237.8593 289.8914,-230.2071 283.4456,-234.8538 287.7502,-237.8593"/>
</g>
<!-- cann -->
<g id="node15" class="node">
<title>cann</title>
<path fill="#f1f5f9" stroke="#64748b" d="M226,-62.5C226,-62.5 78,-62.5 78,-62.5 72,-62.5 66,-56.5 66,-50.5 66,-50.5 66,-34.5 66,-34.5 66,-28.5 72,-22.5 78,-22.5 78,-22.5 226,-22.5 226,-22.5 232,-22.5 238,-28.5 238,-34.5 238,-34.5 238,-50.5 238,-50.5 238,-56.5 232,-62.5 226,-62.5"/>
<text text-anchor="middle" x="152" y="-45.9" font-family="Microsoft YaHei" font-size="12.00" fill="#000000">CANN 包版本影响复现概率</text>
<text text-anchor="middle" x="152" y="-32.9" font-family="Microsoft YaHei" font-size="12.00" fill="#000000">但不是必要根因</text>
</g>
<!-- root&#45;&gt;cann -->
<g id="edge17" class="edge">
<title>root&#45;&gt;cann</title>
<path fill="none" stroke="#64748b" stroke-width="1.4" stroke-dasharray="5,2" d="M285.6652,-189.7956C258.0876,-159.4058 205.9357,-101.9357 175.5689,-68.4724"/>
<polygon fill="#64748b" stroke="#64748b" stroke-width="1.4" points="177.1472,-66.3054 170.1632,-62.5153 173.2594,-69.8335 177.1472,-66.3054"/>
<text text-anchor="middle" x="274.5" y="-127" font-family="Microsoft YaHei" font-size="10.00" fill="#000000">降级早期版本假设</text>
</g>
<!-- slot -->
<g id="node16" class="node">
<title>slot</title>
<path fill="#f1f5f9" stroke="#64748b" d="M455.5,-69C455.5,-69 282.5,-69 282.5,-69 276.5,-69 270.5,-63 270.5,-57 270.5,-57 270.5,-28 270.5,-28 270.5,-22 276.5,-16 282.5,-16 282.5,-16 455.5,-16 455.5,-16 461.5,-16 467.5,-22 467.5,-28 467.5,-28 467.5,-57 467.5,-57 467.5,-63 461.5,-69 455.5,-69"/>
<text text-anchor="middle" x="369" y="-52.4" font-family="Microsoft YaHei" font-size="12.00" fill="#000000">仍需独立检查</text>
<text text-anchor="middle" x="369" y="-39.4" font-family="Microsoft YaHei" font-size="12.00" fill="#000000">workspace slot 最后消费完成点</text>
<text text-anchor="middle" x="369" y="-26.4" font-family="Microsoft YaHei" font-size="12.00" fill="#000000">reverse ACK 不天然等于 FREE</text>
</g>
<!-- root&#45;&gt;slot -->
<g id="edge18" class="edge">
<title>root&#45;&gt;slot</title>
<path fill="none" stroke="#64748b" stroke-width="1.4" stroke-dasharray="5,2" d="M311.8405,-189.7956C322.7334,-161.7255 342.5919,-110.5516 355.7934,-76.5323"/>
<polygon fill="#64748b" stroke="#64748b" stroke-width="1.4" points="358.4016,-77.0671 358.6677,-69.1255 353.5072,-75.1678 358.4016,-77.0671"/>
<text text-anchor="middle" x="352" y="-127" font-family="Microsoft YaHei" font-size="10.00" fill="#000000">不外推</text>
</g>
</g>
</svg>
