<?xml version="1.0" encoding="UTF-8" standalone="no"?>
<!DOCTYPE svg PUBLIC "-//W3C//DTD SVG 1.1//EN"
 "http://www.w3.org/Graphics/SVG/1.1/DTD/svg11.dtd">
<!-- Generated by graphviz version 2.40.1 (20161225.0304)
 -->
<!-- Title: ReverseVsFree Pages: 1 -->
<svg width="1059pt" height="1378pt"
 viewBox="0.00 0.00 1059.40 1378.40" xmlns="http://www.w3.org/2000/svg" xmlns:xlink="http://www.w3.org/1999/xlink">
<g id="graph0" class="graph" transform="scale(1 1) rotate(0) translate(25.2 1353.2)">
<title>ReverseVsFree</title>
<polygon fill="#ffffff" stroke="transparent" points="-25.2,25.2 -25.2,-1353.2 1034.2,-1353.2 1034.2,25.2 -25.2,25.2"/>
<text text-anchor="middle" x="504.5" y="-1308" font-family="Microsoft YaHei" font-size="20.00" fill="#000000">Reverse ACK 与 workspace slot FREE 是两种协议</text>
<g id="clust1" class="cluster">
<title>cluster_counter</title>
<path fill="#ffffff" stroke="#fca5a5" d="M20,-229C20,-229 554,-229 554,-229 560,-229 566,-235 566,-241 566,-241 566,-1220 566,-1220 566,-1226 560,-1232 554,-1232 554,-1232 20,-1232 20,-1232 14,-1232 8,-1226 8,-1220 8,-1220 8,-241 8,-241 8,-235 14,-229 20,-229"/>
<text text-anchor="middle" x="287" y="-1212" font-family="Microsoft YaHei" font-size="20.00" fill="#000000">协议 A：flag 计数器反压（ACK 可早于 payload 消费完成）</text>
</g>
<g id="clust2" class="cluster">
<title>cluster_slot</title>
<path fill="#ffffff" stroke="#6ee7b7" d="M586,-71C586,-71 989,-71 989,-71 995,-71 1001,-77 1001,-83 1001,-83 1001,-1220 1001,-1220 1001,-1226 995,-1232 989,-1232 989,-1232 586,-1232 586,-1232 580,-1232 574,-1226 574,-1220 574,-1220 574,-83 574,-83 574,-77 580,-71 586,-71"/>
<text text-anchor="middle" x="787.5" y="-1212" font-family="Microsoft YaHei" font-size="20.00" fill="#000000">协议 B：按 slot 闭合所有权（允许安全复用）</text>
</g>
<!-- title_note -->
<g id="node1" class="node">
<title>title_note</title>
<path fill="#fef3c7" stroke="#d97706" d="M780,-1298C780,-1298 368,-1298 368,-1298 362,-1298 356,-1292 356,-1286 356,-1286 356,-1274 356,-1274 356,-1268 362,-1262 368,-1262 368,-1262 780,-1262 780,-1262 786,-1262 792,-1268 792,-1274 792,-1274 792,-1286 792,-1286 792,-1292 786,-1298 780,-1298"/>
<text text-anchor="middle" x="574" y="-1283.2" font-family="Microsoft YaHei" font-size="11.00" fill="#000000">CrossCoreFlagWithReverse&lt;2&gt; 中的 2 表示每两个 forward Wait 返回一次 ACK</text>
<text text-anchor="middle" x="574" y="-1271.2" font-family="Microsoft YaHei" font-size="11.00" fill="#000000">即使 workspace 也有两个 slot，数值相等仍不是生命周期证明</text>
</g>
<!-- a_set0 -->
<g id="node2" class="node">
<title>a_set0</title>
<path fill="#dbeafe" stroke="#2563eb" d="M542.5,-1194C542.5,-1194 471.5,-1194 471.5,-1194 465.5,-1194 459.5,-1188 459.5,-1182 459.5,-1182 459.5,-1170 459.5,-1170 459.5,-1164 465.5,-1158 471.5,-1158 471.5,-1158 542.5,-1158 542.5,-1158 548.5,-1158 554.5,-1164 554.5,-1170 554.5,-1170 554.5,-1182 554.5,-1182 554.5,-1188 548.5,-1194 542.5,-1194"/>
<text text-anchor="middle" x="507" y="-1179.2" font-family="Microsoft YaHei" font-size="11.00" fill="#000000">AIC</text>
<text text-anchor="middle" x="507" y="-1167.2" font-family="Microsoft YaHei" font-size="11.00" fill="#000000">Set READY(0)</text>
</g>
<!-- title_note&#45;&gt;a_set0 -->
<!-- p_wait -->
<g id="node12" class="node">
<title>p_wait</title>
<path fill="#dbeafe" stroke="#2563eb" d="M686.5,-1194C686.5,-1194 597.5,-1194 597.5,-1194 591.5,-1194 585.5,-1188 585.5,-1182 585.5,-1182 585.5,-1170 585.5,-1170 585.5,-1164 591.5,-1158 597.5,-1158 597.5,-1158 686.5,-1158 686.5,-1158 692.5,-1158 698.5,-1164 698.5,-1170 698.5,-1170 698.5,-1182 698.5,-1182 698.5,-1188 692.5,-1194 686.5,-1194"/>
<text text-anchor="middle" x="642" y="-1179.2" font-family="Microsoft YaHei" font-size="11.00" fill="#000000">Producer</text>
<text text-anchor="middle" x="642" y="-1167.2" font-family="Microsoft YaHei" font-size="11.00" fill="#000000">Wait FREE(slot 0)</text>
</g>
<!-- title_note&#45;&gt;p_wait -->
<!-- a_set1 -->
<g id="node3" class="node">
<title>a_set1</title>
<path fill="#dbeafe" stroke="#2563eb" d="M414.5,-1056C414.5,-1056 343.5,-1056 343.5,-1056 337.5,-1056 331.5,-1050 331.5,-1044 331.5,-1044 331.5,-1032 331.5,-1032 331.5,-1026 337.5,-1020 343.5,-1020 343.5,-1020 414.5,-1020 414.5,-1020 420.5,-1020 426.5,-1026 426.5,-1032 426.5,-1032 426.5,-1044 426.5,-1044 426.5,-1050 420.5,-1056 414.5,-1056"/>
<text text-anchor="middle" x="379" y="-1041.2" font-family="Microsoft YaHei" font-size="11.00" fill="#000000">AIC</text>
<text text-anchor="middle" x="379" y="-1029.2" font-family="Microsoft YaHei" font-size="11.00" fill="#000000">Set READY(1)</text>
</g>
<!-- a_set0&#45;&gt;a_set1 -->
<g id="edge1" class="edge">
<title>a_set0&#45;&gt;a_set1</title>
<path fill="none" stroke="#64748b" stroke-width="1.35" d="M490.2662,-1157.9589C467.3642,-1133.2676 426.2172,-1088.906 400.89,-1061.6002"/>
<polygon fill="#64748b" stroke="#64748b" stroke-width="1.35" points="402.4818,-1059.6107 395.7379,-1056.0455 398.7866,-1063.0381 402.4818,-1059.6107"/>
</g>
<!-- v_wait0 -->
<g id="node6" class="node">
<title>v_wait0</title>
<path fill="#fef3c7" stroke="#d97706" d="M545.5,-1062C545.5,-1062 468.5,-1062 468.5,-1062 462.5,-1062 456.5,-1056 456.5,-1050 456.5,-1050 456.5,-1026 456.5,-1026 456.5,-1020 462.5,-1014 468.5,-1014 468.5,-1014 545.5,-1014 545.5,-1014 551.5,-1014 557.5,-1020 557.5,-1026 557.5,-1026 557.5,-1050 557.5,-1050 557.5,-1056 551.5,-1062 545.5,-1062"/>
<text text-anchor="middle" x="507" y="-1047.2" font-family="Microsoft YaHei" font-size="11.00" fill="#000000">AIV</text>
<text text-anchor="middle" x="507" y="-1035.2" font-family="Microsoft YaHei" font-size="11.00" fill="#000000">Wait READY(0)</text>
<text text-anchor="middle" x="507" y="-1023.2" font-family="Microsoft YaHei" font-size="11.00" fill="#000000">waitCount=1</text>
</g>
<!-- a_set0&#45;&gt;v_wait0 -->
<g id="edge8" class="edge">
<title>a_set0&#45;&gt;v_wait0</title>
<path fill="none" stroke="#2563eb" stroke-width="1.35" d="M507,-1157.9589C507,-1135.5205 507,-1096.8375 507,-1069.4725"/>
<polygon fill="#2563eb" stroke="#2563eb" stroke-width="1.35" points="509.5201,-1069.2772 507,-1062.0772 504.4801,-1069.2772 509.5201,-1069.2772"/>
<text text-anchor="middle" x="528.5" y="-1107.8" font-family="Microsoft YaHei" font-size="9.00" fill="#000000">forward 0</text>
</g>
<!-- a_wait -->
<g id="node4" class="node">
<title>a_wait</title>
<path fill="#dbeafe" stroke="#2563eb" d="M461,-651C461,-651 361,-651 361,-651 355,-651 349,-645 349,-639 349,-639 349,-627 349,-627 349,-621 355,-615 361,-615 361,-615 461,-615 461,-615 467,-615 473,-621 473,-627 473,-627 473,-639 473,-639 473,-645 467,-651 461,-651"/>
<text text-anchor="middle" x="411" y="-636.2" font-family="Microsoft YaHei" font-size="11.00" fill="#000000">AIC</text>
<text text-anchor="middle" x="411" y="-624.2" font-family="Microsoft YaHei" font-size="11.00" fill="#000000">Wait REVERSE ACK</text>
</g>
<!-- a_set1&#45;&gt;a_wait -->
<g id="edge2" class="edge">
<title>a_set1&#45;&gt;a_wait</title>
<path fill="none" stroke="#64748b" stroke-width="1.35" d="M377.2336,-1019.8314C375.1599,-998.502 372,-966 372,-966 372,-966 372,-966 372,-699 372,-699 385.3227,-676.4539 396.3946,-657.7168"/>
<polygon fill="#64748b" stroke="#64748b" stroke-width="1.35" points="398.8497,-658.5155 400.3431,-651.0348 394.5106,-655.9515 398.8497,-658.5155"/>
</g>
<!-- v_wait1 -->
<g id="node7" class="node">
<title>v_wait1</title>
<path fill="#fef3c7" stroke="#d97706" d="M516.5,-918C516.5,-918 439.5,-918 439.5,-918 433.5,-918 427.5,-912 427.5,-906 427.5,-906 427.5,-882 427.5,-882 427.5,-876 433.5,-870 439.5,-870 439.5,-870 516.5,-870 516.5,-870 522.5,-870 528.5,-876 528.5,-882 528.5,-882 528.5,-906 528.5,-906 528.5,-912 522.5,-918 516.5,-918"/>
<text text-anchor="middle" x="478" y="-903.2" font-family="Microsoft YaHei" font-size="11.00" fill="#000000">AIV</text>
<text text-anchor="middle" x="478" y="-891.2" font-family="Microsoft YaHei" font-size="11.00" fill="#000000">Wait READY(1)</text>
<text text-anchor="middle" x="478" y="-879.2" font-family="Microsoft YaHei" font-size="11.00" fill="#000000">waitCount=2</text>
</g>
<!-- a_set1&#45;&gt;v_wait1 -->
<g id="edge9" class="edge">
<title>a_set1&#45;&gt;v_wait1</title>
<path fill="none" stroke="#2563eb" stroke-width="1.35" d="M391.5384,-1019.7623C408.1025,-995.669 437.4957,-952.9153 457.36,-924.0218"/>
<polygon fill="#2563eb" stroke="#2563eb" stroke-width="1.35" points="459.4437,-925.4391 461.4462,-918.0783 455.2905,-922.5837 459.4437,-925.4391"/>
<text text-anchor="middle" x="453.5" y="-963.8" font-family="Microsoft YaHei" font-size="9.00" fill="#000000">forward 1</text>
</g>
<!-- a_reuse -->
<g id="node5" class="node">
<title>a_reuse</title>
<path fill="#fee2e2" stroke="#dc2626" d="M460.5,-528C460.5,-528 361.5,-528 361.5,-528 355.5,-528 349.5,-522 349.5,-516 349.5,-516 349.5,-504 349.5,-504 349.5,-498 355.5,-492 361.5,-492 361.5,-492 460.5,-492 460.5,-492 466.5,-492 472.5,-498 472.5,-504 472.5,-504 472.5,-516 472.5,-516 472.5,-522 466.5,-528 460.5,-528"/>
<text text-anchor="middle" x="411" y="-513.2" font-family="Microsoft YaHei" font-size="11.00" fill="#000000">AIC 认为窗口已释放</text>
<text text-anchor="middle" x="411" y="-501.2" font-family="Microsoft YaHei" font-size="11.00" fill="#000000">准备复用 slot 0</text>
</g>
<!-- a_wait&#45;&gt;a_reuse -->
<g id="edge3" class="edge">
<title>a_wait&#45;&gt;a_reuse</title>
<path fill="none" stroke="#64748b" stroke-width="1.35" d="M411,-614.8509C411,-593.8668 411,-559.1825 411,-535.4961"/>
<polygon fill="#64748b" stroke="#64748b" stroke-width="1.35" points="413.5201,-535.4235 411,-528.2235 408.4801,-535.4236 413.5201,-535.4235"/>
</g>
<!-- v_copy -->
<g id="node9" class="node">
<title>v_copy</title>
<path fill="#fee2e2" stroke="#dc2626" d="M475,-396C475,-396 353,-396 353,-396 347,-396 341,-390 341,-384 341,-384 341,-372 341,-372 341,-366 347,-360 353,-360 353,-360 475,-360 475,-360 481,-360 487,-366 487,-372 487,-372 487,-384 487,-384 487,-390 481,-396 475,-396"/>
<text text-anchor="middle" x="414" y="-381.2" font-family="Microsoft YaHei" font-size="11.00" fill="#000000">MTE2/Vector</text>
<text text-anchor="middle" x="414" y="-369.2" font-family="Microsoft YaHei" font-size="11.00" fill="#000000">slot 0/1 异步读取仍在途</text>
</g>
<!-- a_reuse&#45;&gt;v_copy -->
<g id="edge11" class="edge">
<title>a_reuse&#45;&gt;v_copy</title>
<path fill="none" stroke="#dc2626" stroke-width="2.2" d="M411.4108,-491.9227C411.9308,-469.0445 412.8296,-429.498 413.4195,-403.5425"/>
<polygon fill="#dc2626" stroke="#dc2626" stroke-width="2.2" points="415.9401,-403.538 413.5845,-396.2825 410.9014,-403.4234 415.9401,-403.538"/>
<text text-anchor="middle" x="440.5" y="-441.8" font-family="Microsoft YaHei" font-size="9.00" fill="#000000">可能提前覆盖</text>
</g>
<!-- v_wait0&#45;&gt;v_wait1 -->
<g id="edge4" class="edge">
<title>v_wait0&#45;&gt;v_wait1</title>
<path fill="none" stroke="#64748b" stroke-width="1.35" d="M502.1461,-1013.8976C497.2529,-989.6004 489.6775,-951.9847 484.3185,-925.3744"/>
<polygon fill="#64748b" stroke="#64748b" stroke-width="1.35" points="486.7617,-924.7417 482.8698,-918.181 481.8209,-925.7368 486.7617,-924.7417"/>
</g>
<!-- v_ack -->
<g id="node8" class="node">
<title>v_ack</title>
<path fill="#fef3c7" stroke="#d97706" d="M537.5,-783C537.5,-783 418.5,-783 418.5,-783 412.5,-783 406.5,-777 406.5,-771 406.5,-771 406.5,-759 406.5,-759 406.5,-753 412.5,-747 418.5,-747 418.5,-747 537.5,-747 537.5,-747 543.5,-747 549.5,-753 549.5,-759 549.5,-759 549.5,-771 549.5,-771 549.5,-777 543.5,-783 537.5,-783"/>
<text text-anchor="middle" x="478" y="-768.2" font-family="Microsoft YaHei" font-size="11.00" fill="#000000">AIV</text>
<text text-anchor="middle" x="478" y="-756.2" font-family="Microsoft YaHei" font-size="11.00" fill="#000000">立即 Set REVERSE ACK</text>
</g>
<!-- v_wait1&#45;&gt;v_ack -->
<g id="edge5" class="edge">
<title>v_wait1&#45;&gt;v_ack</title>
<path fill="none" stroke="#64748b" stroke-width="1.35" d="M478,-869.7361C478,-847.1793 478,-813.6912 478,-790.6881"/>
<polygon fill="#64748b" stroke="#64748b" stroke-width="1.35" points="480.5201,-790.5199 478,-783.3199 475.4801,-790.5199 480.5201,-790.5199"/>
</g>
<!-- v_ack&#45;&gt;a_wait -->
<g id="edge10" class="edge">
<title>v_ack&#45;&gt;a_wait</title>
<path fill="none" stroke="#d97706" stroke-width="1.35" d="M468.8244,-746.9227C457.1123,-723.8481 436.7939,-683.8179 423.627,-657.8772"/>
<polygon fill="#d97706" stroke="#d97706" stroke-width="1.35" points="425.7857,-656.5622 420.2798,-651.2825 421.2915,-658.8434 425.7857,-656.5622"/>
<text text-anchor="middle" x="467" y="-696.8" font-family="Microsoft YaHei" font-size="9.00" fill="#000000">批量 ACK</text>
</g>
<!-- v_ack&#45;&gt;v_copy -->
<g id="edge6" class="edge">
<title>v_ack&#45;&gt;v_copy</title>
<path fill="none" stroke="#64748b" stroke-width="1.35" d="M485.1046,-746.9652C492.8027,-727.4238 504,-699 504,-699 504,-699 504,-699 504,-444 504,-444 470.7801,-419.6388 444.7055,-400.5173"/>
<polygon fill="#64748b" stroke="#64748b" stroke-width="1.35" points="445.8893,-398.2605 438.5929,-396.0348 442.9088,-402.3248 445.8893,-398.2605"/>
</g>
<!-- v_done -->
<g id="node10" class="node">
<title>v_done</title>
<path fill="#dcfce7" stroke="#059669" d="M469,-273C469,-273 359,-273 359,-273 353,-273 347,-267 347,-261 347,-261 347,-249 347,-249 347,-243 353,-237 359,-237 359,-237 469,-237 469,-237 475,-237 481,-243 481,-249 481,-249 481,-261 481,-261 481,-267 475,-273 469,-273"/>
<text text-anchor="middle" x="414" y="-252.2" font-family="Microsoft YaHei" font-size="11.00" fill="#000000">LastAsyncReadDone</text>
</g>
<!-- v_copy&#45;&gt;v_done -->
<g id="edge7" class="edge">
<title>v_copy&#45;&gt;v_done</title>
<path fill="none" stroke="#64748b" stroke-width="1.35" d="M414,-359.8509C414,-338.8668 414,-304.1825 414,-280.4961"/>
<polygon fill="#64748b" stroke="#64748b" stroke-width="1.35" points="416.5201,-280.4235 414,-273.2235 411.4801,-280.4236 416.5201,-280.4235"/>
</g>
<!-- unsafe_rule -->
<g id="node11" class="node">
<title>unsafe_rule</title>
<path fill="#fee2e2" stroke="#dc2626" stroke-width="2" d="M551.5,-194C551.5,-194 276.5,-194 276.5,-194 270.5,-194 264.5,-188 264.5,-182 264.5,-182 264.5,-170 264.5,-170 264.5,-164 270.5,-158 276.5,-158 276.5,-158 551.5,-158 551.5,-158 557.5,-158 563.5,-164 563.5,-170 563.5,-170 563.5,-182 563.5,-182 563.5,-188 557.5,-194 551.5,-194"/>
<text text-anchor="middle" x="414" y="-179.2" font-family="Microsoft YaHei" font-size="11.00" fill="#000000">危险判据：t(reverse_ack) &lt; t(last_async_read_done)</text>
<text text-anchor="middle" x="414" y="-167.2" font-family="Microsoft YaHei" font-size="11.00" fill="#000000">ACK 只证明 Wait 次数，不证明 payload 已消费</text>
</g>
<!-- v_done&#45;&gt;unsafe_rule -->
<!-- p_write -->
<g id="node13" class="node">
<title>p_write</title>
<path fill="#dbeafe" stroke="#2563eb" d="M687,-1056C687,-1056 601,-1056 601,-1056 595,-1056 589,-1050 589,-1044 589,-1044 589,-1032 589,-1032 589,-1026 595,-1020 601,-1020 601,-1020 687,-1020 687,-1020 693,-1020 699,-1026 699,-1032 699,-1032 699,-1044 699,-1044 699,-1050 693,-1056 687,-1056"/>
<text text-anchor="middle" x="644" y="-1041.2" font-family="Microsoft YaHei" font-size="11.00" fill="#000000">写 slot 0</text>
<text text-anchor="middle" x="644" y="-1029.2" font-family="Microsoft YaHei" font-size="11.00" fill="#000000">等待写 pipe 完成</text>
</g>
<!-- p_wait&#45;&gt;p_write -->
<g id="edge12" class="edge">
<title>p_wait&#45;&gt;p_write</title>
<path fill="none" stroke="#64748b" stroke-width="1.35" d="M642.2615,-1157.9589C642.6118,-1133.7842 643.2355,-1090.7535 643.6328,-1063.336"/>
<polygon fill="#64748b" stroke="#64748b" stroke-width="1.35" points="646.1538,-1063.2813 643.7385,-1056.0455 641.1143,-1063.2082 646.1538,-1063.2813"/>
</g>
<!-- p_ready -->
<g id="node14" class="node">
<title>p_ready</title>
<path fill="#dbeafe" stroke="#2563eb" d="M692,-912C692,-912 598,-912 598,-912 592,-912 586,-906 586,-900 586,-900 586,-888 586,-888 586,-882 592,-876 598,-876 598,-876 692,-876 692,-876 698,-876 704,-882 704,-888 704,-888 704,-900 704,-900 704,-906 698,-912 692,-912"/>
<text text-anchor="middle" x="645" y="-891.2" font-family="Microsoft YaHei" font-size="11.00" fill="#000000">Set READY(slot 0)</text>
</g>
<!-- p_write&#45;&gt;p_ready -->
<g id="edge13" class="edge">
<title>p_write&#45;&gt;p_ready</title>
<path fill="none" stroke="#64748b" stroke-width="1.35" d="M644.1267,-1019.7623C644.3032,-994.3354 644.6241,-948.1253 644.8239,-919.3569"/>
<polygon fill="#64748b" stroke="#64748b" stroke-width="1.35" points="647.3442,-919.307 644.8744,-912.0896 642.3043,-919.2719 647.3442,-919.307"/>
</g>
<!-- c_wait -->
<g id="node17" class="node">
<title>c_wait</title>
<path fill="#fef3c7" stroke="#d97706" d="M699.5,-783C699.5,-783 598.5,-783 598.5,-783 592.5,-783 586.5,-777 586.5,-771 586.5,-771 586.5,-759 586.5,-759 586.5,-753 592.5,-747 598.5,-747 598.5,-747 699.5,-747 699.5,-747 705.5,-747 711.5,-753 711.5,-759 711.5,-759 711.5,-771 711.5,-771 711.5,-777 705.5,-783 699.5,-783"/>
<text text-anchor="middle" x="649" y="-768.2" font-family="Microsoft YaHei" font-size="11.00" fill="#000000">Consumer</text>
<text text-anchor="middle" x="649" y="-756.2" font-family="Microsoft YaHei" font-size="11.00" fill="#000000">Wait READY(slot 0)</text>
</g>
<!-- p_ready&#45;&gt;c_wait -->
<g id="edge14" class="edge">
<title>p_ready&#45;&gt;c_wait</title>
<path fill="none" stroke="#2563eb" stroke-width="1.35" d="M645.5646,-875.7911C646.2555,-853.5103 647.4294,-815.6534 648.2097,-790.4876"/>
<polygon fill="#2563eb" stroke="#2563eb" stroke-width="1.35" points="650.7338,-790.391 648.4383,-783.1163 645.6962,-790.2347 650.7338,-790.391"/>
</g>
<!-- p_next -->
<g id="node15" class="node">
<title>p_next</title>
<path fill="#dbeafe" stroke="#2563eb" d="M698.5,-273C698.5,-273 609.5,-273 609.5,-273 603.5,-273 597.5,-267 597.5,-261 597.5,-261 597.5,-249 597.5,-249 597.5,-243 603.5,-237 609.5,-237 609.5,-237 698.5,-237 698.5,-237 704.5,-237 710.5,-243 710.5,-249 710.5,-249 710.5,-261 710.5,-261 710.5,-267 704.5,-273 698.5,-273"/>
<text text-anchor="middle" x="654" y="-258.2" font-family="Microsoft YaHei" font-size="11.00" fill="#000000">下一轮再次</text>
<text text-anchor="middle" x="654" y="-246.2" font-family="Microsoft YaHei" font-size="11.00" fill="#000000">Wait FREE(slot 0)</text>
</g>
<!-- p_reuse -->
<g id="node16" class="node">
<title>p_reuse</title>
<path fill="#dcfce7" stroke="#059669" d="M692.5,-115C692.5,-115 615.5,-115 615.5,-115 609.5,-115 603.5,-109 603.5,-103 603.5,-103 603.5,-91 603.5,-91 603.5,-85 609.5,-79 615.5,-79 615.5,-79 692.5,-79 692.5,-79 698.5,-79 704.5,-85 704.5,-91 704.5,-91 704.5,-103 704.5,-103 704.5,-109 698.5,-115 692.5,-115"/>
<text text-anchor="middle" x="654" y="-94.2" font-family="Microsoft YaHei" font-size="11.00" fill="#000000">安全复用 slot 0</text>
</g>
<!-- p_next&#45;&gt;p_reuse -->
<g id="edge19" class="edge">
<title>p_next&#45;&gt;p_reuse</title>
<path fill="none" stroke="#64748b" stroke-width="1.35" d="M654,-236.8754C654,-208.8098 654,-154.7354 654,-122.6642"/>
<polygon fill="#64748b" stroke="#64748b" stroke-width="1.35" points="656.5201,-122.5999 654,-115.3999 651.4801,-122.5999 656.5201,-122.5999"/>
</g>
<!-- safe_rule -->
<g id="node21" class="node">
<title>safe_rule</title>
<path fill="#dcfce7" stroke="#059669" stroke-width="2" d="M845.5,-36C845.5,-36 462.5,-36 462.5,-36 456.5,-36 450.5,-30 450.5,-24 450.5,-24 450.5,-12 450.5,-12 450.5,-6 456.5,0 462.5,0 462.5,0 845.5,0 845.5,0 851.5,0 857.5,-6 857.5,-12 857.5,-12 857.5,-24 857.5,-24 857.5,-30 851.5,-36 845.5,-36"/>
<text text-anchor="middle" x="654" y="-21.2" font-family="Microsoft YaHei" font-size="11.00" fill="#000000">安全判据：LastAsyncReadDone(slot, n) happens&#45;before SetFree(slot, n)</text>
<text text-anchor="middle" x="654" y="-9.2" font-family="Microsoft YaHei" font-size="11.00" fill="#000000">SetFree(slot, n) happens&#45;before Write(slot, n+1)</text>
</g>
<!-- p_reuse&#45;&gt;safe_rule -->
<!-- c_read -->
<g id="node18" class="node">
<title>c_read</title>
<path fill="#fef3c7" stroke="#d97706" d="M691.5,-651C691.5,-651 612.5,-651 612.5,-651 606.5,-651 600.5,-645 600.5,-639 600.5,-639 600.5,-627 600.5,-627 600.5,-621 606.5,-615 612.5,-615 612.5,-615 691.5,-615 691.5,-615 697.5,-615 703.5,-621 703.5,-627 703.5,-627 703.5,-639 703.5,-639 703.5,-645 697.5,-651 691.5,-651"/>
<text text-anchor="middle" x="652" y="-636.2" font-family="Microsoft YaHei" font-size="11.00" fill="#000000">DataCopy/计算</text>
<text text-anchor="middle" x="652" y="-624.2" font-family="Microsoft YaHei" font-size="11.00" fill="#000000">消费 slot 0</text>
</g>
<!-- c_wait&#45;&gt;c_read -->
<g id="edge15" class="edge">
<title>c_wait&#45;&gt;c_read</title>
<path fill="none" stroke="#64748b" stroke-width="1.35" d="M649.4108,-746.9227C649.9308,-724.0445 650.8296,-684.498 651.4195,-658.5425"/>
<polygon fill="#64748b" stroke="#64748b" stroke-width="1.35" points="653.9401,-658.538 651.5845,-651.2825 648.9014,-658.4234 653.9401,-658.538"/>
</g>
<!-- c_done -->
<g id="node19" class="node">
<title>c_done</title>
<path fill="#fef3c7" stroke="#d97706" d="M713.5,-528C713.5,-528 594.5,-528 594.5,-528 588.5,-528 582.5,-522 582.5,-516 582.5,-516 582.5,-504 582.5,-504 582.5,-498 588.5,-492 594.5,-492 594.5,-492 713.5,-492 713.5,-492 719.5,-492 725.5,-498 725.5,-504 725.5,-504 725.5,-516 725.5,-516 725.5,-522 719.5,-528 713.5,-528"/>
<text text-anchor="middle" x="654" y="-507.2" font-family="Microsoft YaHei" font-size="11.00" fill="#000000">等待最后消费 pipe 完成</text>
</g>
<!-- c_read&#45;&gt;c_done -->
<g id="edge16" class="edge">
<title>c_read&#45;&gt;c_done</title>
<path fill="none" stroke="#64748b" stroke-width="1.35" d="M652.2951,-614.8509C652.6363,-593.8668 653.2003,-559.1825 653.5854,-535.4961"/>
<polygon fill="#64748b" stroke="#64748b" stroke-width="1.35" points="656.1062,-535.4636 653.7037,-528.2235 651.0669,-535.3816 656.1062,-535.4636"/>
</g>
<!-- c_free -->
<g id="node20" class="node">
<title>c_free</title>
<path fill="#dcfce7" stroke="#059669" d="M695.5,-396C695.5,-396 612.5,-396 612.5,-396 606.5,-396 600.5,-390 600.5,-384 600.5,-384 600.5,-372 600.5,-372 600.5,-366 606.5,-360 612.5,-360 612.5,-360 695.5,-360 695.5,-360 701.5,-360 707.5,-366 707.5,-372 707.5,-372 707.5,-384 707.5,-384 707.5,-390 701.5,-396 695.5,-396"/>
<text text-anchor="middle" x="654" y="-375.2" font-family="Microsoft YaHei" font-size="11.00" fill="#000000">Set FREE(slot 0)</text>
</g>
<!-- c_done&#45;&gt;c_free -->
<g id="edge17" class="edge">
<title>c_done&#45;&gt;c_free</title>
<path fill="none" stroke="#64748b" stroke-width="1.35" d="M654,-491.9227C654,-469.0445 654,-429.498 654,-403.5425"/>
<polygon fill="#64748b" stroke="#64748b" stroke-width="1.35" points="656.5201,-403.4825 654,-396.2825 651.4801,-403.4826 656.5201,-403.4825"/>
</g>
<!-- c_free&#45;&gt;p_next -->
<g id="edge18" class="edge">
<title>c_free&#45;&gt;p_next</title>
<path fill="none" stroke="#059669" stroke-width="2" d="M654,-359.8509C654,-338.8668 654,-304.1825 654,-280.4961"/>
<polygon fill="#059669" stroke="#059669" stroke-width="2" points="656.5201,-280.4235 654,-273.2235 651.4801,-280.4236 656.5201,-280.4235"/>
</g>
</g>
</svg>
