<svg xmlns="http://www.w3.org/2000/svg" width="1200" height="760" viewBox="0 0 1200 760">
<rect width="100%" height="100%" fill="#ffffff"/>
<style>text{font-family:Arial,Helvetica,sans-serif;fill:#222}.axis{stroke:#222;stroke-width:1.4}.grid{stroke:#d9dde3;stroke-width:1}.line{fill:none;stroke-width:2.4}.legend{font-size:16px}.tick{font-size:13px}.note{font-size:13px;fill:#555}.title{font-size:24px;font-weight:700}.subtitle{font-size:14px;fill:#555}</style>
<text class="title" x="92" y="34">exp2 implementation relative error vs float64 2^x</text>
<text class="subtitle" x="92" y="56">x range [-100, 100], y = log10(relative error), floor at 1e-12</text>
<line class="grid" x1="92" y1="678.00" x2="1162" y2="678.00"/>
<text class="tick" x="80" y="682.00" text-anchor="end">1e-12</text>
<line class="grid" x1="92" y1="578.66" x2="1162" y2="578.66"/>
<text class="tick" x="80" y="582.66" text-anchor="end">1e-10</text>
<line class="grid" x1="92" y1="479.31" x2="1162" y2="479.31"/>
<text class="tick" x="80" y="483.31" text-anchor="end">1e-8</text>
<line class="grid" x1="92" y1="379.97" x2="1162" y2="379.97"/>
<text class="tick" x="80" y="383.97" text-anchor="end">1e-6</text>
<line class="grid" x1="92" y1="280.62" x2="1162" y2="280.62"/>
<text class="tick" x="80" y="284.62" text-anchor="end">1e-4</text>
<line class="grid" x1="92" y1="181.28" x2="1162" y2="181.28"/>
<text class="tick" x="80" y="185.28" text-anchor="end">1e-2</text>
<line class="grid" x1="92" y1="81.93" x2="1162" y2="81.93"/>
<text class="tick" x="80" y="85.93" text-anchor="end">1</text>
<line class="grid" x1="92.00" y1="72" x2="92.00" y2="678"/>
<text class="tick" x="92.00" y="702" text-anchor="middle">-100</text>
<line class="grid" x1="199.00" y1="72" x2="199.00" y2="678"/>
<text class="tick" x="199.00" y="702" text-anchor="middle">-80</text>
<line class="grid" x1="306.00" y1="72" x2="306.00" y2="678"/>
<text class="tick" x="306.00" y="702" text-anchor="middle">-60</text>
<line class="grid" x1="413.00" y1="72" x2="413.00" y2="678"/>
<text class="tick" x="413.00" y="702" text-anchor="middle">-40</text>
<line class="grid" x1="520.00" y1="72" x2="520.00" y2="678"/>
<text class="tick" x="520.00" y="702" text-anchor="middle">-20</text>
<line class="grid" x1="627.00" y1="72" x2="627.00" y2="678"/>
<text class="tick" x="627.00" y="702" text-anchor="middle">0</text>
<line class="grid" x1="734.00" y1="72" x2="734.00" y2="678"/>
<text class="tick" x="734.00" y="702" text-anchor="middle">20</text>
<line class="grid" x1="841.00" y1="72" x2="841.00" y2="678"/>
<text class="tick" x="841.00" y="702" text-anchor="middle">40</text>
<line class="grid" x1="948.00" y1="72" x2="948.00" y2="678"/>
<text class="tick" x="948.00" y="702" text-anchor="middle">60</text>
<line class="grid" x1="1055.00" y1="72" x2="1055.00" y2="678"/>
<text class="tick" x="1055.00" y="702" text-anchor="middle">80</text>
<line class="grid" x1="1162.00" y1="72" x2="1162.00" y2="678"/>
<text class="tick" x="1162.00" y="702" text-anchor="middle">100</text>
<line x1="199.00" y1="72" x2="199.00" y2="678" stroke="#9a6b00" stroke-width="1.6" stroke-dasharray="7 6"/>
<line x1="1055.00" y1="72" x2="1055.00" y2="678" stroke="#9a6b00" stroke-width="1.6" stroke-dasharray="7 6"/>
<text class="note" x="207.00" y="92">Exp2Scalar clamp boundary</text>
<text class="note" x="1063.00" y="92">x = 80</text>
<line class="axis" x1="92" y1="678" x2="1162" y2="678"/>
<line class="axis" x1="92" y1="72" x2="92" y2="678"/>
<text x="627.0" y="734" text-anchor="middle" font-size="16">x</text>
<text x="25" y="375.0" transform="rotate(-90 25,375.0)" text-anchor="middle" font-size="16">relative error</text>
<polyline class="line" points="92.00,363.50 92.53,357.96 93.07,354.19 93.61,369.57 94.14,362.98 94.67,357.77 95.21,353.35 95.74,351.96 96.28,361.91 96.82,356.91 97.35,352.84 97.88,353.22 98.42,357.60 98.96,356.45 99.49,352.62 100.03,354.41 100.56,357.92 101.09,363.73 101.63,351.08 102.17,353.90 102.70,359.17 103.23,364.91 103.77,371.64 104.31,355.38 104.84,359.43 105.38,365.88 105.91,373.28 106.44,386.80 106.98,360.35 107.52,367.11 108.05,374.12 108.58,388.45 109.12,425.40 109.66,368.86 110.19,375.40 110.72,395.42 111.26,423.79 111.79,391.26 112.33,377.64 112.87,399.23 113.40,425.85 113.93,385.57 114.47,372.18 115.01,404.72 115.54,405.92 116.08,383.22 116.61,370.56 117.14,362.89 117.68,396.67 118.22,381.48 118.75,368.92 119.28,363.90 119.82,357.88 120.36,377.24 120.89,369.09 121.42,362.06 121.96,356.54 122.49,352.77 123.03,366.93 123.57,360.50 124.10,355.98 124.63,351.96 125.17,353.96 125.71,359.46 126.24,354.93 126.78,351.59 127.31,354.54 127.84,358.46 128.38,354.88 128.92,351.13 129.45,354.75 129.98,359.64 130.52,365.13 131.06,350.37 131.59,355.96 132.12,361.60 132.66,367.82 133.19,375.29 133.73,382.92 134.27,370.22 134.80,367.43 135.33,377.53 135.87,393.39 136.41,369.57 136.94,369.87 137.47,380.09 138.01,403.19 138.54,420.58 139.08,370.87 139.62,381.75 140.15,402.15 140.68,404.13 141.22,379.54 141.76,384.74 142.29,410.59 142.82,397.75 143.36,380.05 143.89,368.61 144.43,466.42 144.97,395.58 145.50,376.18 146.03,369.02 146.57,371.64 147.11,389.23 147.64,374.41 148.18,366.45 148.71,373.28 149.24,386.80 149.78,373.47 150.32,365.51 150.85,374.12 151.38,388.45 151.92,425.40 152.46,364.95 152.99,375.40 153.53,395.42 154.06,423.79 154.59,391.26 155.13,377.64 155.67,396.10 156.20,425.85 156.73,385.57 157.27,372.18 157.81,404.72 158.34,405.92 158.88,383.22 159.41,370.56 159.94,368.75 160.48,396.67 161.02,381.48 161.55,369.70 162.08,370.31 162.62,381.03 163.16,379.16 163.69,369.09 164.23,371.22 164.76,382.45 165.29,406.81 165.83,367.75 166.37,373.21 166.90,383.87 167.43,411.68 167.97,399.89 168.51,374.54 169.04,387.86 169.57,467.72 170.11,393.89 170.64,376.40 171.18,389.78 171.72,450.67 172.25,391.13 172.78,375.75 173.32,366.70 173.86,418.62 174.39,388.88 174.93,373.24 175.46,364.81 175.99,375.29 176.53,382.92 177.07,373.03 177.60,364.10 178.13,377.53 178.67,393.39 179.21,369.57 179.74,369.87 180.28,378.33 180.81,403.19 181.34,420.58 181.88,370.87 182.42,381.75 182.95,402.15 183.48,413.13 184.02,381.86 184.56,384.74 185.09,410.59 185.62,397.75 186.16,380.05 186.69,369.56 187.23,432.73 187.77,398.63 188.30,376.18 188.83,369.02 189.37,370.17 189.91,392.71 190.44,375.97 190.97,367.44 191.51,373.28 192.04,386.80 192.58,373.47 193.12,365.51 193.65,374.12 194.18,388.45 194.72,425.40 195.26,364.95 195.79,375.40 196.32,391.98 196.86,443.53 197.39,391.26 197.93,377.64 198.47,396.10 199.00,425.85 199.53,385.57 200.07,372.18 200.61,398.98 201.14,405.92 201.68,385.44 202.21,370.56 202.74,368.75 203.28,396.67 203.82,381.48 204.35,369.70 204.88,370.31 205.42,381.03 205.96,379.16 206.49,369.09 207.02,371.22 207.56,382.45 208.09,406.81 208.63,367.75 209.17,373.21 209.70,383.87 210.23,411.68 210.77,399.89 211.31,374.54 211.84,387.86 212.38,467.72 212.91,393.89 213.44,377.79 213.98,389.78 214.52,450.67 215.05,391.13 215.58,375.75 216.12,366.70 216.66,418.62 217.19,388.88 217.72,373.24 218.26,364.81 218.79,375.29 219.33,382.92 219.87,373.03 220.40,367.43 220.93,377.53 221.47,393.39 222.01,369.57 222.54,369.87 223.07,378.33 223.61,403.19 224.14,420.58 224.68,369.92 225.22,381.75 225.75,402.15 226.28,413.13 226.82,381.86 227.36,384.74 227.89,410.59 228.43,397.75 228.96,380.05 229.49,369.56 230.03,432.73 230.57,398.63 231.10,377.28 231.63,369.02 232.17,370.17 232.71,392.71 233.24,375.97 233.78,367.44 234.31,373.28 234.84,386.80 235.38,373.47 235.92,365.51 236.45,374.12 236.98,388.45 237.52,425.40 238.06,364.95 238.59,375.40 239.12,391.98 239.66,443.53 240.19,391.26 240.73,377.64 241.27,396.10 241.80,425.85 242.33,385.57 242.87,373.80 243.41,398.98 243.94,405.92 244.47,385.44 245.01,370.56 245.54,368.75 246.08,400.14 246.62,381.48 247.15,369.70 247.68,370.31 248.22,378.80 248.76,379.16 249.29,369.09 249.82,371.22 250.36,382.45 250.89,406.81 251.43,367.75 251.97,373.21 252.50,383.87 253.03,411.68 253.57,399.89 254.11,374.54 254.64,385.22 255.17,438.22 255.71,393.89 256.24,377.79 256.78,389.78 257.32,450.67 257.85,393.40 258.38,375.75 258.92,366.70 259.46,418.62 259.99,388.88 260.52,374.62 261.06,365.67 261.59,375.29 262.13,382.92 262.67,373.03 263.20,364.10 263.73,377.53 264.27,393.39 264.81,369.57 265.34,368.68 265.88,378.33 266.41,398.71 266.94,420.58 267.48,369.92 268.02,380.31 268.55,402.15 269.08,413.13 269.62,381.86 270.16,384.74 270.69,410.59 271.23,397.75 271.76,380.05 272.29,369.56 272.83,412.28 273.37,398.63 273.90,379.68 274.43,369.02 274.97,370.17 275.51,392.71 276.04,377.65 276.57,367.44 277.11,373.28 277.64,386.80 278.18,373.47 278.72,365.51 279.25,374.12 279.78,388.45 280.32,425.40 280.86,364.95 281.39,375.40 281.92,391.98 282.46,443.53 282.99,391.26 283.53,376.36 284.07,396.10 284.60,440.80 285.13,388.93 285.67,423.08 286.20,384.39 286.74,413.64 287.27,385.44 287.81,371.68 288.35,380.81 288.88,371.02 289.42,383.02 289.95,369.70 290.48,370.31 291.02,369.98 291.55,369.75 292.09,369.09 292.62,371.22 293.16,382.45 293.70,371.81 294.23,382.67 294.77,373.21 295.30,383.87 295.83,411.68 296.37,384.82 296.90,420.38 297.44,385.22 297.98,438.22 298.51,393.89 299.05,438.75 299.58,395.48 300.12,458.56 300.65,393.40 301.18,375.75 301.72,389.11 302.25,376.00 302.79,388.88 303.33,374.62 303.86,365.67 304.40,372.68 304.93,364.36 305.47,373.03 306.00,367.43 306.53,377.53 307.07,368.11 307.60,379.43 308.14,368.68 308.68,378.33 309.21,398.71 309.75,379.55 310.28,399.58 310.82,380.31 311.35,402.15 311.88,413.13 312.42,407.46 312.95,403.85 313.49,410.59 314.02,397.75 314.56,380.05 315.10,401.14 315.63,380.70 316.17,398.63 316.70,379.68 317.23,369.02 317.77,378.52 318.30,368.70 318.84,377.65 319.38,367.44 319.91,373.28 320.45,365.94 320.98,374.42 321.52,366.97 322.05,374.12 322.58,388.45 323.12,374.02 323.65,389.67 324.19,375.40 324.73,391.98 325.26,443.53 325.80,391.75 326.33,484.36 326.87,396.10 327.40,440.80 327.93,388.93 328.47,423.08 329.00,384.39 329.54,413.64 330.08,385.44 330.61,371.68 331.15,380.81 331.68,371.02 332.22,383.02 332.75,369.70 333.28,370.31 333.82,369.98 334.35,369.75 334.89,369.09 335.43,370.04 335.96,382.45 336.50,370.75 337.03,382.67 337.57,373.21 338.10,383.87 338.63,411.68 339.17,384.82 339.70,420.38 340.24,385.22 340.77,420.68 341.31,393.89 341.85,422.55 342.38,395.48 342.92,458.56 343.45,393.40 343.98,375.75 344.52,389.11 345.05,376.00 345.59,388.88 346.12,376.08 346.66,365.67 347.20,372.68 347.73,365.08 348.27,373.03 348.80,364.73 349.33,377.53 349.87,368.11 350.40,375.70 350.94,368.68 351.47,378.33 352.01,398.71 352.55,378.05 353.08,399.58 353.62,380.31 354.15,402.15 354.68,413.13 355.22,407.46 355.75,411.33 356.29,410.59 356.82,402.35 357.36,380.05 357.90,405.84 358.43,380.70 358.97,398.63 359.50,379.68 360.03,369.02 360.57,378.52 361.10,368.70 361.64,377.65 362.18,368.48 362.71,373.28 363.25,366.79 363.78,373.31 364.32,366.97 364.85,374.12 365.38,388.45 365.92,374.02 366.45,389.67 366.99,375.40 367.53,391.98 368.06,443.53 368.60,391.75 369.13,484.36 369.67,393.37 370.20,440.80 370.73,388.93 371.27,423.08 371.80,384.39 372.34,413.64 372.88,385.44 373.41,372.87 373.95,382.52 374.48,371.02 375.02,383.02 375.55,371.36 376.08,367.44 376.62,369.98 377.15,369.75 377.69,369.09 378.23,370.04 378.76,382.45 379.30,370.75 379.83,382.67 380.37,398.63 380.90,383.87 381.43,411.68 381.97,384.82 382.50,420.38 383.04,385.22 383.58,420.68 384.11,393.89 384.65,422.55 385.18,395.48 385.72,458.56 386.25,393.40 386.78,388.45 387.32,389.11 387.85,389.67 388.39,388.88 388.93,391.98 389.46,443.53 390.00,391.75 390.53,484.36 391.07,393.37 391.60,440.80 392.13,388.93 392.67,423.08 393.20,384.39 393.74,413.64 394.27,385.44 394.81,398.71 395.35,382.52 395.88,399.58 396.42,383.02 396.95,402.15 397.48,413.13 398.02,400.65 398.55,411.33 399.09,410.59 399.62,402.35 400.16,380.05 400.70,405.84 401.23,380.70 401.77,402.18 402.30,379.68 402.83,411.68 403.37,384.82 403.90,420.38 404.44,385.22 404.97,420.68 405.51,393.89 406.05,422.55 406.58,395.48 407.12,458.56 407.65,393.40 408.18,385.16 408.72,389.11 409.25,389.67 409.79,388.88 410.32,391.98 410.86,443.53 411.40,391.75 411.93,484.36 412.47,393.37 413.00,440.80 413.53,388.93 414.07,423.08 414.60,384.39 415.14,413.64 415.68,385.44 416.21,398.71 416.75,382.52 417.28,399.58 417.82,383.02 418.35,402.15 418.88,413.13 419.42,400.65 419.95,411.33 420.49,410.59 421.02,402.35 421.56,381.82 422.10,405.84 422.63,380.70 423.17,402.18 423.70,383.87 424.23,411.68 424.77,384.82 425.30,420.38 425.84,385.22 426.38,420.68 426.91,393.89 427.45,422.55 427.98,395.48 428.52,458.56 429.05,393.40 429.58,385.16 430.12,389.11 430.65,389.67 431.19,392.04 431.73,389.02 432.26,443.53 432.80,391.75 433.33,484.36 433.87,393.37 434.40,440.80 434.93,388.93 435.47,423.08 436.00,384.39 436.54,413.64 437.07,387.93 437.61,398.71 438.15,384.38 438.68,399.58 439.22,383.02 439.75,402.15 440.28,413.13 440.82,400.65 441.35,411.33 441.89,410.59 442.43,402.35 442.96,381.82 443.50,405.84 444.03,382.29 444.57,402.18 445.10,380.99 445.63,403.17 446.17,384.82 446.70,409.83 447.24,385.22 447.78,420.68 448.31,393.89 448.85,422.55 449.38,395.48 449.92,458.56 450.45,393.40 450.98,385.16 451.52,389.11 452.05,383.95 452.59,392.04 453.12,389.02 453.66,443.53 454.20,391.75 454.73,484.36 455.27,393.37 455.80,440.80 456.34,464.25 456.87,454.38 457.40,387.12 457.94,387.83 458.48,387.93 459.01,382.18 459.55,384.38 460.08,399.58 460.61,397.01 461.15,395.94 461.69,396.49 462.22,400.65 462.75,411.33 463.29,403.67 463.82,408.21 464.36,398.13 464.90,405.84 465.43,382.29 465.96,382.54 466.50,383.87 467.04,382.00 467.57,384.82 468.10,409.83 468.64,413.76 469.17,420.68 469.71,414.86 470.25,422.55 470.78,395.48 471.31,394.73 471.85,395.94 472.39,393.42 472.92,389.11 473.45,383.95 473.99,386.15 474.52,389.02 475.06,388.60 475.60,391.75 476.13,484.36 476.66,487.94 477.20,440.80 477.74,464.25 478.27,454.38 478.80,387.12 479.34,387.83 479.88,387.93 480.41,382.18 480.95,384.38 481.48,396.19 482.01,397.01 482.55,395.94 483.09,396.49 483.62,400.65 484.15,411.33 484.69,403.67 485.22,408.21 485.76,398.13 486.30,405.84 486.83,382.29 487.36,382.54 487.90,380.99 488.44,382.00 488.97,384.82 489.50,409.83 490.04,413.76 490.57,420.68 491.11,414.86 491.65,422.55 492.18,395.48 492.71,394.73 493.25,395.94 493.79,393.42 494.32,392.84 494.85,383.95 495.39,386.15 495.93,389.02 496.46,388.60 497.00,391.75 497.53,484.36 498.06,487.94 498.60,440.80 499.14,464.25 499.67,454.38 500.20,387.12 500.74,387.83 501.28,387.93 501.81,384.14 502.35,384.38 502.88,396.19 503.41,397.01 503.95,395.94 504.49,396.49 505.02,400.65 505.55,411.33 506.09,410.49 506.62,408.21 507.16,398.13 507.70,405.84 508.23,484.36 508.76,487.94 509.30,440.80 509.84,464.25 510.37,454.38 510.90,409.83 511.44,413.76 511.98,411.14 512.51,414.86 513.05,422.55 513.58,395.48 514.11,394.73 514.65,395.94 515.19,396.49 515.72,400.65 516.25,411.33 516.79,410.49 517.33,408.21 517.86,398.13 518.40,405.84 518.93,484.36 519.46,487.94 520.00,678.00 520.54,464.25 521.07,454.38 521.60,409.83 522.14,413.76 522.67,411.14 523.21,414.86 523.75,422.55 524.28,395.48 524.81,394.73 525.35,395.94 525.89,396.49 526.42,400.65 526.95,411.33 527.49,410.49 528.02,408.21 528.56,398.13 529.10,405.84 529.63,484.36 530.16,487.94 530.70,678.00 531.24,464.25 531.77,454.38 532.30,409.83 532.84,413.76 533.38,411.14 533.91,414.86 534.45,422.55 534.98,395.48 535.51,397.65 536.05,395.94 536.59,396.49 537.12,400.65 537.65,411.33 538.19,410.49 538.72,408.21 539.26,398.13 539.80,405.84 540.33,484.36 540.86,487.94 541.40,678.00 541.94,464.25 542.47,399.28 543.01,399.17 543.54,413.76 544.08,411.14 544.61,414.86 545.14,420.33 545.68,415.83 546.21,397.65 546.75,395.94 547.29,396.49 547.82,427.51 548.36,418.14 548.89,410.49 549.42,408.21 549.96,398.13 550.49,402.03 551.03,406.70 551.56,487.94 552.10,678.00 552.64,464.25 553.17,399.28 553.71,399.17 554.24,413.76 554.77,411.14 555.31,414.86 555.84,420.33 556.38,415.83 556.91,397.65 557.45,395.94 557.99,396.49 558.52,427.51 559.06,418.14 559.59,410.49 560.12,408.21 560.66,398.13 561.19,402.03 561.73,406.70 562.26,487.94 562.80,678.00 563.34,464.25 563.87,399.28 564.41,399.17 564.94,413.76 565.48,411.14 566.01,414.86 566.54,420.33 567.08,415.83 567.61,487.94 568.15,678.00 568.69,464.25 569.22,427.51 569.76,418.14 570.29,410.49 570.83,408.21 571.36,414.86 571.89,420.33 572.43,415.83 572.96,487.94 573.50,678.00 574.04,464.25 574.57,427.51 575.11,418.14 575.64,410.49 576.17,411.14 576.71,414.86 577.24,420.33 577.78,415.83 578.31,487.94 578.85,678.00 579.39,464.25 579.92,427.51 580.46,418.14 580.99,410.49 581.53,408.21 582.06,414.86 582.59,420.33 583.13,415.83 583.66,487.94 584.20,678.00 584.73,430.91 585.27,427.51 585.81,418.14 586.34,425.39 586.88,411.14 587.41,423.06 587.94,420.33 588.48,415.83 589.02,416.11 589.55,678.00 590.08,430.91 590.62,427.51 591.16,418.14 591.69,425.39 592.23,416.29 592.76,423.06 593.29,420.33 593.83,415.83 594.37,416.11 594.90,678.00 595.43,430.91 595.97,427.51 596.51,418.14 597.04,425.39 597.58,429.34 598.11,423.06 598.64,420.33 599.18,433.35 599.72,423.62 600.25,678.00 600.78,467.94 601.32,430.26 601.86,418.14 602.39,425.39 602.92,429.34 603.46,423.06 603.99,420.33 604.53,433.35 605.07,423.62 605.60,678.00 606.13,467.94 606.67,442.58 607.20,446.79 607.74,425.39 608.27,429.34 608.81,423.06 609.35,429.83 609.88,460.05 610.42,423.62 610.95,678.00 611.48,467.94 612.02,442.58 612.55,446.79 613.09,441.06 613.62,429.34 614.16,429.58 614.70,429.83 615.23,460.05 615.77,440.85 616.30,678.00 616.84,438.70 617.37,442.58 617.90,446.79 618.44,449.86 618.98,429.34 619.51,443.32 620.05,458.93 620.58,431.23 621.11,444.79 621.65,678.00 622.19,438.70 622.72,472.74 623.26,499.92 623.79,449.86 624.33,429.34 624.86,436.23 625.39,441.47 625.93,442.38 626.46,438.92 627.00,678.00 627.54,444.51 628.07,460.52 628.61,499.92 629.14,440.72 629.67,438.22 630.21,443.32 630.74,441.47 631.28,438.69 631.81,444.79 632.35,678.00 632.89,438.70 633.42,442.58 633.95,443.88 634.49,449.86 635.02,438.22 635.56,443.32 636.10,429.83 636.63,460.05 637.16,444.79 637.70,678.00 638.23,467.94 638.77,442.58 639.30,446.79 639.84,441.06 640.38,438.22 640.91,429.58 641.45,429.83 641.98,460.05 642.52,423.62 643.05,678.00 643.58,424.29 644.12,442.58 644.65,446.79 645.19,425.39 645.72,438.22 646.26,423.06 646.80,429.83 647.33,460.05 647.87,423.62 648.40,678.00 648.93,424.29 649.47,430.26 650.01,418.14 650.54,425.39 651.07,438.22 651.61,423.06 652.14,434.29 652.68,420.51 653.22,423.62 653.75,678.00 654.28,424.29 654.82,430.26 655.36,418.14 655.89,425.39 656.42,438.22 656.96,423.06 657.49,434.29 658.03,415.83 658.57,416.11 659.10,678.00 659.63,430.91 660.17,427.51 660.71,418.14 661.24,425.39 661.77,411.14 662.31,423.06 662.84,434.29 663.38,415.83 663.92,416.11 664.45,678.00 664.98,430.91 665.52,427.51 666.06,418.14 666.59,425.39 667.12,416.29 667.66,423.06 668.19,434.29 668.73,415.83 669.27,416.11 669.80,678.00 670.34,464.25 670.87,427.51 671.41,418.14 671.94,410.49 672.48,411.14 673.01,407.66 673.54,434.29 674.08,415.83 674.61,437.15 675.15,678.00 675.69,464.25 676.22,427.51 676.76,418.14 677.29,410.49 677.82,416.29 678.36,407.66 678.89,434.29 679.43,415.83 679.96,437.15 680.50,678.00 681.04,464.25 681.57,427.51 682.11,418.14 682.64,410.49 683.17,411.14 683.71,407.66 684.24,434.29 684.78,415.83 685.31,437.15 685.85,678.00 686.39,464.25 686.92,427.51 687.46,418.14 687.99,410.49 688.52,416.29 689.06,415.25 689.59,398.02 690.13,402.12 690.66,437.15 691.20,678.00 691.74,464.25 692.27,405.60 692.81,404.97 693.34,406.01 693.88,411.14 694.41,407.66 694.94,434.29 695.48,415.83 696.01,397.65 696.55,395.94 697.09,396.49 697.62,427.51 698.16,418.14 698.69,410.49 699.23,416.29 699.76,415.25 700.29,398.02 700.83,402.12 701.36,437.15 701.90,678.00 702.44,464.25 702.97,405.60 703.51,404.97 704.04,406.01 704.58,411.14 705.11,407.66 705.64,434.29 706.18,415.83 706.71,397.65 707.25,398.82 707.79,396.49 708.32,427.51 708.86,418.14 709.39,410.49 709.93,416.29 710.46,415.25 710.99,398.02 711.53,402.12 712.06,437.15 712.60,678.00 713.14,464.25 713.67,454.38 714.20,402.78 714.74,406.01 715.27,411.14 715.81,407.66 716.35,413.40 716.88,398.75 717.41,397.65 717.95,395.94 718.49,396.49 719.02,400.65 719.55,422.87 720.09,410.49 720.62,416.29 721.16,415.25 721.70,411.86 722.23,440.46 722.76,437.15 723.30,678.00 723.84,464.25 724.37,454.38 724.90,402.78 725.44,406.01 725.98,411.14 726.51,407.66 727.05,413.40 727.58,398.75 728.11,397.65 728.65,398.82 729.19,396.49 729.72,400.65 730.25,422.87 730.79,410.49 731.33,416.29 731.86,415.25 732.40,411.86 732.93,440.46 733.46,437.15 734.00,678.00 734.54,464.25 735.07,454.38 735.60,402.78 736.14,406.01 736.68,411.14 737.21,407.66 737.75,413.40 738.28,398.75 738.81,397.65 739.35,395.94 739.89,396.49 740.42,395.48 740.95,449.39 741.49,410.49 742.03,416.29 742.56,415.25 743.10,411.86 743.63,440.46 744.16,437.15 744.70,678.00 745.24,464.25 745.77,454.38 746.30,402.78 746.84,406.01 747.38,411.14 747.91,407.66 748.45,413.40 748.98,398.75 749.51,397.65 750.05,398.82 750.59,398.44 751.12,392.84 751.65,383.95 752.19,386.15 752.73,386.42 753.26,386.20 753.80,389.17 754.33,440.46 754.86,437.15 755.40,678.00 755.94,464.25 756.47,454.38 757.00,390.24 757.54,390.83 758.08,387.93 758.61,388.71 759.15,386.41 759.68,393.27 760.21,394.17 760.75,395.94 761.29,396.49 761.82,395.48 762.35,449.39 762.89,410.49 763.42,416.29 763.96,415.25 764.50,411.86 765.03,384.00 765.56,384.15 766.10,378.45 766.64,382.00 767.17,379.84 767.70,402.78 768.24,406.01 768.77,411.14 769.31,407.66 769.85,413.40 770.38,398.75 770.91,397.65 771.45,398.82 771.99,398.44 772.52,392.84 773.05,383.95 773.59,383.70 774.12,386.42 774.66,386.20 775.20,389.17 775.73,440.46 776.26,437.15 776.80,678.00 777.34,464.25 777.87,454.38 778.40,390.24 778.94,390.83 779.47,387.93 780.01,388.71 780.55,386.41 781.08,393.27 781.61,391.66 782.15,395.94 782.69,396.49 783.22,391.32 783.75,449.39 784.29,410.49 784.82,416.29 785.36,415.25 785.90,411.86 786.43,384.00 786.96,384.15 787.50,382.38 788.04,379.52 788.57,379.84 789.10,402.78 789.64,406.01 790.17,411.14 790.71,407.66 791.25,413.40 791.78,398.75 792.31,401.03 792.85,398.82 793.39,398.44 793.92,392.84 794.45,383.95 794.99,383.70 795.52,386.42 796.06,386.20 796.60,389.17 797.13,440.46 797.66,437.15 798.20,678.00 798.73,392.92 799.27,454.38 799.80,390.24 800.34,456.18 800.88,387.93 801.41,389.08 801.95,386.41 802.48,393.27 803.02,386.45 803.55,395.94 804.08,428.84 804.62,391.32 805.15,449.39 805.69,398.55 806.23,416.29 806.76,383.75 807.30,411.86 807.83,384.00 808.37,402.18 808.90,378.45 809.43,403.17 809.97,379.84 810.50,402.78 811.04,380.75 811.57,404.54 812.11,401.58 812.65,413.40 813.18,398.75 813.72,420.33 814.25,398.82 814.78,382.31 815.32,392.84 815.85,383.95 816.39,395.76 816.92,386.42 817.46,428.63 818.00,389.17 818.53,440.46 819.07,390.95 819.60,678.00 820.13,392.92 820.67,436.72 821.20,390.24 821.74,456.18 822.27,387.93 822.81,389.08 823.35,386.41 823.88,393.27 824.42,386.45 824.95,391.13 825.48,428.84 826.02,391.32 826.55,449.39 827.09,398.55 827.62,416.29 828.16,383.75 828.70,411.86 829.23,384.00 829.77,402.18 830.30,382.38 830.83,403.17 831.37,379.84 831.90,402.78 832.44,380.75 832.98,404.54 833.51,401.58 834.05,413.40 834.58,398.75 835.12,420.33 835.65,398.82 836.18,382.31 836.72,392.84 837.25,381.57 837.79,395.76 838.33,386.42 838.86,408.85 839.40,389.17 839.93,440.46 840.47,386.79 841.00,678.00 841.53,392.92 842.07,436.72 842.60,390.24 843.14,456.18 843.68,390.73 844.21,386.64 844.75,386.41 845.28,393.27 845.82,386.45 846.35,391.13 846.88,428.84 847.42,391.32 847.95,449.39 848.49,394.37 849.02,416.29 849.56,383.75 850.10,411.86 850.63,384.00 851.17,402.18 851.70,378.45 852.23,403.17 852.77,379.84 853.30,402.78 853.84,380.75 854.38,404.54 854.91,401.58 855.45,413.40 855.98,398.75 856.52,420.33 857.05,398.82 857.58,379.78 858.12,392.84 858.65,381.57 859.19,400.25 859.73,386.42 860.26,408.85 860.80,386.88 861.33,424.14 861.87,384.98 862.40,425.85 862.93,392.92 863.47,436.72 864.00,393.90 864.54,456.18 865.08,390.73 865.61,386.64 866.15,386.41 866.68,393.27 867.22,386.45 867.75,391.13 868.28,428.84 868.82,391.32 869.35,449.39 869.89,394.37 870.43,416.29 870.96,383.75 871.50,420.24 872.03,384.00 872.57,402.18 873.10,382.38 873.63,397.08 874.17,380.72 874.70,371.33 875.24,381.47 875.78,369.58 876.31,369.84 876.85,369.53 877.38,369.36 877.92,368.54 878.45,370.52 878.98,379.78 879.52,372.39 880.05,381.57 880.59,372.46 881.12,386.42 881.66,408.85 882.20,386.88 882.73,424.14 883.27,384.98 883.80,425.85 884.33,392.92 884.87,436.72 885.40,393.90 885.94,456.18 886.48,390.73 887.01,374.13 887.55,386.41 888.08,374.16 888.62,386.45 889.15,374.12 889.68,366.14 890.22,373.01 890.75,367.29 891.29,371.59 891.83,370.04 892.36,377.38 892.90,367.85 893.43,376.84 893.97,368.68 894.50,378.45 895.03,397.08 895.57,379.84 896.10,402.78 896.64,380.75 897.17,404.54 897.71,401.58 898.25,406.99 898.78,402.60 899.32,420.33 899.85,398.82 900.38,377.82 900.92,403.04 901.45,379.79 901.99,400.25 902.52,377.66 903.06,368.47 903.60,377.74 904.13,368.27 904.67,376.26 905.20,364.73 905.73,371.90 906.27,365.67 906.80,374.05 907.34,366.49 907.88,375.20 908.41,386.64 908.95,376.65 909.48,393.27 910.02,376.47 910.55,387.20 911.08,485.64 911.62,391.32 912.15,449.39 912.69,394.37 913.22,416.29 913.76,383.75 914.30,420.24 914.83,384.00 915.37,406.43 915.90,383.87 916.43,370.52 916.97,380.72 917.50,371.33 918.04,381.47 918.57,369.58 919.11,368.80 919.65,370.53 920.18,369.36 920.72,368.54 921.25,370.52 921.78,379.78 922.32,372.39 922.85,381.57 923.39,372.46 923.92,386.42 924.46,408.85 925.00,386.88 925.53,424.14 926.07,384.98 926.60,425.85 927.13,397.80 927.67,436.72 928.20,393.90 928.74,456.18 929.27,393.95 929.81,375.46 930.35,388.66 930.88,374.16 931.42,386.45 931.95,374.12 932.48,366.14 933.02,373.01 933.55,367.29 934.09,372.95 934.62,368.92 935.16,375.93 935.70,367.85 936.23,375.60 936.77,368.68 937.30,378.45 937.83,397.08 938.37,379.84 938.90,402.78 939.44,380.75 939.98,404.54 940.51,401.58 941.05,406.99 941.58,402.60 942.12,420.33 942.65,402.15 943.18,380.11 943.72,403.04 944.25,379.79 944.79,400.25 945.32,379.36 945.86,368.47 946.40,377.74 946.93,368.27 947.47,376.26 948.00,367.43 948.53,371.90 949.07,364.55 949.60,372.52 950.14,366.49 950.67,375.20 951.21,386.64 951.75,376.65 952.28,393.27 952.82,375.33 953.35,387.20 953.88,485.64 954.42,391.32 954.95,449.39 955.49,394.37 956.02,467.72 956.56,383.75 957.10,420.24 957.63,384.00 958.17,406.43 958.70,383.87 959.23,372.12 959.77,380.72 960.30,371.33 960.84,381.47 961.38,370.73 961.91,368.80 962.45,370.53 962.98,369.36 963.52,368.54 964.05,370.52 964.58,379.78 965.12,372.39 965.65,381.57 966.19,372.46 966.73,386.42 967.26,408.85 967.80,386.88 968.33,424.14 968.87,384.98 969.40,410.90 969.93,397.80 970.47,377.45 971.01,387.51 971.54,456.18 972.08,393.95 972.61,375.46 973.14,365.28 973.68,425.93 974.22,386.45 974.75,374.12 975.28,366.14 975.82,374.93 976.36,383.61 976.89,372.95 977.43,368.92 977.96,375.93 978.49,389.09 979.03,372.41 979.57,368.68 980.10,376.18 980.63,397.08 981.17,432.93 981.71,370.15 982.24,380.75 982.77,404.54 983.31,401.58 983.84,382.58 984.38,383.73 984.92,407.30 985.45,402.15 985.98,380.11 986.52,369.26 987.06,425.03 987.59,400.25 988.12,379.36 988.66,368.47 989.19,370.71 989.73,393.68 990.27,376.26 990.80,364.73 991.33,371.90 991.87,383.52 992.41,375.47 992.94,366.49 993.48,375.20 994.01,386.64 994.54,437.98 995.08,367.31 995.62,375.33 996.15,387.20 996.68,485.64 997.22,394.88 997.76,378.07 998.29,394.37 998.83,467.72 999.36,383.75 999.89,373.88 1000.43,401.98 1000.97,406.43 1001.50,383.87 1002.03,372.12 1002.57,367.50 1003.11,408.74 1003.64,381.47 1004.18,370.73 1004.71,368.80 1005.24,378.00 1005.78,379.78 1006.32,368.54 1006.85,368.92 1007.38,379.78 1007.92,403.93 1008.46,368.32 1008.99,372.46 1009.53,384.10 1010.06,403.19 1010.59,401.28 1011.13,375.14 1011.67,384.98 1012.20,410.90 1012.73,397.80 1013.27,377.45 1013.81,387.51 1014.34,440.26 1014.88,393.95 1015.41,375.46 1015.94,365.28 1016.48,444.47 1017.02,388.40 1017.55,374.12 1018.08,366.14 1018.62,374.93 1019.16,386.24 1019.69,372.95 1020.23,366.84 1020.76,375.93 1021.29,389.09 1021.83,372.41 1022.37,368.68 1022.90,376.18 1023.43,397.08 1023.97,432.93 1024.51,370.15 1025.04,380.75 1025.58,399.50 1026.11,406.79 1026.64,382.58 1027.18,383.73 1027.72,402.89 1028.25,402.15 1028.78,382.67 1029.32,369.26 1029.86,425.03 1030.39,400.25 1030.92,379.36 1031.46,368.47 1031.99,370.71 1032.53,393.68 1033.07,376.26 1033.60,368.16 1034.13,371.90 1034.67,383.52 1035.21,375.47 1035.74,365.47 1036.28,375.20 1036.81,386.64 1037.34,437.98 1037.88,367.31 1038.42,375.33 1038.95,387.20 1039.48,485.64 1040.02,394.88 1040.56,378.07 1041.09,394.37 1041.62,467.72 1042.16,385.88 1042.69,373.88 1043.23,401.98 1043.77,406.43 1044.30,383.87 1044.83,372.12 1045.37,367.50 1045.91,408.74 1046.44,383.67 1046.97,371.95 1047.51,368.80 1048.04,378.00 1048.58,379.78 1049.12,369.36 1049.65,368.92 1050.18,379.78 1050.72,403.93 1051.26,368.32 1051.79,372.46 1052.32,384.10 1052.86,403.19 1053.39,401.28 1053.93,373.99 1054.47,384.98 1055.00,410.90 1055.53,397.80 1056.07,377.45 1056.61,387.51 1057.14,440.26 1057.67,393.95 1058.21,375.46 1058.74,365.28 1059.28,444.47 1059.82,388.40 1060.35,374.12 1060.88,366.14 1061.42,374.93 1061.96,386.24 1062.49,372.95 1063.03,366.84 1063.56,375.93 1064.09,389.09 1064.63,372.41 1065.17,368.68 1065.70,376.18 1066.23,397.08 1066.77,432.93 1067.31,370.15 1067.84,380.75 1068.38,399.50 1068.91,406.79 1069.44,382.58 1069.98,382.04 1070.52,402.89 1071.05,402.15 1071.58,382.67 1072.12,370.67 1072.66,412.57 1073.19,400.25 1073.72,379.36 1074.26,368.47 1074.79,370.71 1075.33,393.68 1075.87,376.26 1076.40,363.50 1076.93,371.90 1077.47,383.52 1078.01,375.47 1078.54,365.47 1079.07,375.20 1079.61,386.64 1080.14,422.18 1080.68,365.72 1081.22,375.33 1081.75,387.20 1082.28,485.64 1082.82,394.88 1083.36,378.07 1083.89,394.37 1084.42,467.72 1084.96,385.88 1085.49,373.88 1086.03,401.98 1086.57,406.43 1087.10,383.87 1087.63,373.86 1088.17,366.28 1088.71,408.74 1089.24,383.67 1089.78,371.95 1090.31,368.80 1090.84,378.00 1091.38,379.78 1091.92,369.36 1092.45,368.92 1092.98,379.78 1093.52,403.93 1094.06,368.32 1094.59,372.46 1095.12,384.10 1095.66,403.19 1096.19,401.28 1096.73,373.99 1097.27,384.98 1097.80,410.90 1098.33,397.80 1098.87,379.54 1099.41,387.51 1099.94,440.26 1100.47,393.95 1101.01,375.46 1101.54,365.28 1102.08,444.47 1102.62,388.40 1103.15,375.12 1103.68,366.14 1104.22,373.22 1104.76,386.24 1105.29,372.95 1105.83,366.84 1106.36,375.93 1106.89,389.09 1107.43,372.41 1107.97,367.88 1108.50,376.18 1109.03,397.08 1109.57,432.93 1110.11,368.86 1110.64,378.81 1111.18,399.50 1111.71,423.79 1112.24,382.58 1112.78,382.04 1113.32,402.89 1113.85,402.15 1114.38,382.67 1114.92,370.67 1115.46,412.57 1115.99,400.25 1116.53,381.20 1117.06,369.49 1117.59,370.71 1118.13,393.68 1118.67,376.26 1119.20,368.16 1119.73,371.90 1120.27,383.52 1120.81,377.24 1121.34,367.95 1121.88,361.29 1122.41,355.97 1122.94,349.90 1123.48,366.13 1124.02,359.95 1124.55,355.56 1125.08,351.23 1125.62,354.64 1126.16,359.46 1126.69,354.33 1127.23,351.79 1127.76,355.06 1128.29,360.29 1128.83,353.53 1129.37,352.31 1129.90,355.56 1130.43,360.60 1130.97,366.28 1131.51,352.86 1132.04,356.61 1132.58,362.39 1133.11,368.80 1133.64,378.00 1134.18,357.04 1134.72,362.98 1135.25,368.92 1135.78,379.78 1136.32,403.93 1136.86,363.38 1137.39,372.46 1137.92,384.10 1138.46,403.19 1138.99,401.28 1139.53,373.99 1140.07,383.31 1140.60,410.90 1141.13,397.80 1141.67,379.54 1142.21,387.51 1142.74,440.26 1143.28,393.95 1143.81,375.46 1144.34,367.69 1144.88,444.47 1145.42,388.40 1145.95,375.12 1146.48,366.31 1147.02,360.44 1147.56,386.24 1148.09,372.95 1148.62,365.50 1149.16,359.61 1149.69,355.14 1150.23,372.41 1150.77,364.82 1151.30,358.68 1151.83,354.75 1152.37,351.43 1152.91,363.93 1153.44,358.23 1153.98,353.11 1154.51,352.54 1155.04,356.24 1155.58,356.81 1156.12,353.02 1156.65,353.21 1157.18,357.00 1157.72,361.99 1158.26,352.60 1158.79,353.54 1159.33,358.70 1159.86,363.46 1160.39,369.71 1160.93,354.18 1161.47,358.47 1162.00,363.50" stroke="#1f77b4"/>
<polyline class="line" points="92.00,678.00 92.53,485.64 93.07,466.71 93.61,457.88 94.14,456.18 94.67,467.72 95.21,458.59 95.74,492.46 96.28,466.42 96.82,458.56 97.35,678.00 97.88,485.64 98.42,466.71 98.96,457.88 99.49,456.18 100.03,467.72 100.56,458.59 101.09,492.46 101.63,466.42 102.17,458.56 102.70,678.00 103.23,485.64 103.77,466.71 104.31,457.88 104.84,456.18 105.38,467.72 105.91,458.59 106.44,492.46 106.98,466.42 107.52,458.56 108.05,678.00 108.58,485.64 109.12,466.71 109.66,457.88 110.19,456.18 110.72,467.72 111.26,458.59 111.79,492.46 112.33,466.42 112.87,458.56 113.40,678.00 113.93,485.64 114.47,466.71 115.01,457.88 115.54,456.18 116.08,467.72 116.61,458.59 117.14,492.46 117.68,466.42 118.22,458.56 118.75,678.00 119.28,485.64 119.82,466.71 120.36,457.88 120.89,456.18 121.42,467.72 121.96,458.59 122.49,492.46 123.03,466.42 123.57,458.56 124.10,678.00 124.63,485.64 125.17,466.71 125.71,457.88 126.24,456.18 126.78,467.72 127.31,458.59 127.84,492.46 128.38,466.42 128.92,458.56 129.45,678.00 129.98,485.64 130.52,466.71 131.06,457.88 131.59,456.18 132.12,467.72 132.66,458.59 133.19,492.46 133.73,466.42 134.27,458.56 134.80,678.00 135.33,485.64 135.87,466.71 136.41,457.88 136.94,456.18 137.47,467.72 138.01,458.59 138.54,492.46 139.08,466.42 139.62,458.56 140.15,678.00 140.68,485.64 141.22,466.71 141.76,457.88 142.29,456.18 142.82,467.72 143.36,458.59 143.89,492.46 144.43,466.42 144.97,458.56 145.50,678.00 146.03,485.64 146.57,466.71 147.11,457.88 147.64,456.18 148.18,467.72 148.71,458.59 149.24,492.46 149.78,466.42 150.32,458.56 150.85,678.00 151.38,485.64 151.92,466.71 152.46,457.88 152.99,456.18 153.53,467.72 154.06,458.59 154.59,492.46 155.13,466.42 155.67,458.56 156.20,678.00 156.73,485.64 157.27,466.71 157.81,457.88 158.34,456.18 158.88,467.72 159.41,458.59 159.94,492.46 160.48,466.42 161.02,458.56 161.55,678.00 162.08,485.64 162.62,466.71 163.16,457.88 163.69,456.18 164.23,467.72 164.76,458.59 165.29,492.46 165.83,466.42 166.37,458.56 166.90,678.00 167.43,485.64 167.97,466.71 168.51,457.88 169.04,456.18 169.57,467.72 170.11,458.59 170.64,492.46 171.18,466.42 171.72,458.56 172.25,678.00 172.78,485.64 173.32,466.71 173.86,457.88 174.39,456.18 174.93,467.72 175.46,458.59 175.99,492.46 176.53,466.42 177.07,458.56 177.60,678.00 178.13,485.64 178.67,466.71 179.21,457.88 179.74,456.18 180.28,467.72 180.81,458.59 181.34,492.46 181.88,466.42 182.42,458.56 182.95,678.00 183.48,485.64 184.02,466.71 184.56,457.88 185.09,456.18 185.62,467.72 186.16,458.59 186.69,492.46 187.23,466.42 187.77,458.56 188.30,678.00 188.83,485.64 189.37,466.71 189.91,457.88 190.44,456.18 190.97,467.72 191.51,458.59 192.04,492.46 192.58,466.42 193.12,458.56 193.65,678.00 194.18,485.64 194.72,466.71 195.26,457.88 195.79,456.18 196.32,467.72 196.86,458.59 197.39,492.46 197.93,466.42 198.47,458.56 199.00,678.00 199.53,485.64 200.07,466.71 200.61,457.88 201.14,456.18 201.68,467.72 202.21,458.59 202.74,492.46 203.28,466.42 203.82,458.56 204.35,678.00 204.88,485.64 205.42,466.71 205.96,457.88 206.49,456.18 207.02,467.72 207.56,458.59 208.09,492.46 208.63,466.42 209.17,458.56 209.70,678.00 210.23,485.64 210.77,466.71 211.31,457.88 211.84,456.18 212.38,467.72 212.91,458.59 213.44,492.46 213.98,466.42 214.52,458.56 215.05,678.00 215.58,485.64 216.12,466.71 216.66,457.88 217.19,456.18 217.72,467.72 218.26,458.59 218.79,492.46 219.33,466.42 219.87,458.56 220.40,678.00 220.93,485.64 221.47,466.71 222.01,457.88 222.54,456.18 223.07,467.72 223.61,458.59 224.14,492.46 224.68,466.42 225.22,458.56 225.75,678.00 226.28,485.64 226.82,466.71 227.36,457.88 227.89,456.18 228.43,467.72 228.96,458.59 229.49,492.46 230.03,466.42 230.57,458.56 231.10,678.00 231.63,485.64 232.17,466.71 232.71,457.88 233.24,456.18 233.78,467.72 234.31,458.59 234.84,492.46 235.38,466.42 235.92,458.56 236.45,678.00 236.98,485.64 237.52,466.71 238.06,457.88 238.59,456.18 239.12,467.72 239.66,458.59 240.19,492.46 240.73,466.42 241.27,458.56 241.80,678.00 242.33,485.64 242.87,466.71 243.41,457.88 243.94,456.18 244.47,467.72 245.01,458.59 245.54,492.46 246.08,466.42 246.62,458.56 247.15,678.00 247.68,485.64 248.22,466.71 248.76,457.88 249.29,456.18 249.82,467.72 250.36,458.59 250.89,492.46 251.43,466.42 251.97,458.56 252.50,678.00 253.03,485.64 253.57,466.71 254.11,457.88 254.64,456.18 255.17,467.72 255.71,458.59 256.24,492.46 256.78,466.42 257.32,458.56 257.85,678.00 258.38,485.64 258.92,466.71 259.46,457.88 259.99,456.18 260.52,467.72 261.06,458.59 261.59,492.46 262.13,466.42 262.67,458.56 263.20,678.00 263.73,485.64 264.27,466.71 264.81,457.88 265.34,456.18 265.88,467.72 266.41,458.59 266.94,492.46 267.48,466.42 268.02,458.56 268.55,678.00 269.08,485.64 269.62,466.71 270.16,457.88 270.69,456.18 271.23,467.72 271.76,458.59 272.29,492.46 272.83,466.42 273.37,458.56 273.90,678.00 274.43,485.64 274.97,466.71 275.51,457.88 276.04,456.18 276.57,467.72 277.11,458.59 277.64,492.46 278.18,466.42 278.72,458.56 279.25,678.00 279.78,485.64 280.32,466.71 280.86,457.88 281.39,456.18 281.92,467.72 282.46,458.59 282.99,492.46 283.53,466.42 284.07,458.56 284.60,678.00 285.13,485.64 285.67,454.38 286.20,449.39 286.74,456.18 287.27,467.72 287.81,458.59 288.35,484.58 288.88,484.36 289.42,458.56 289.95,678.00 290.48,485.64 291.02,454.38 291.55,449.39 292.09,456.18 292.62,467.72 293.16,458.59 293.70,484.58 294.23,484.36 294.77,458.56 295.30,678.00 295.83,485.64 296.37,454.38 296.90,449.39 297.44,456.18 297.98,467.72 298.51,458.59 299.05,484.58 299.58,484.36 300.12,458.56 300.65,678.00 301.18,485.64 301.72,454.38 302.25,449.39 302.79,456.18 303.33,467.72 303.86,458.59 304.40,484.58 304.93,484.36 305.47,458.56 306.00,678.00 306.53,485.64 307.07,454.38 307.60,449.39 308.14,456.18 308.68,467.72 309.21,458.59 309.75,484.58 310.28,484.36 310.82,458.56 311.35,678.00 311.88,485.64 312.42,454.38 312.95,449.39 313.49,456.18 314.02,467.72 314.56,458.59 315.10,484.58 315.63,484.36 316.17,458.56 316.70,678.00 317.23,485.64 317.77,454.38 318.30,449.39 318.84,456.18 319.38,467.72 319.91,458.59 320.45,484.58 320.98,484.36 321.52,458.56 322.05,678.00 322.58,485.64 323.12,454.38 323.65,449.39 324.19,456.18 324.73,467.72 325.26,458.59 325.80,484.58 326.33,484.36 326.87,458.56 327.40,678.00 327.93,485.64 328.47,454.38 329.00,449.39 329.54,456.18 330.08,467.72 330.61,458.59 331.15,484.58 331.68,484.36 332.22,458.56 332.75,678.00 333.28,485.64 333.82,454.38 334.35,449.39 334.89,456.18 335.43,467.72 335.96,458.59 336.50,484.58 337.03,484.36 337.57,458.56 338.10,678.00 338.63,485.64 339.17,454.38 339.70,449.39 340.24,456.18 340.77,467.72 341.31,458.59 341.85,484.58 342.38,484.36 342.92,458.56 343.45,678.00 343.98,485.64 344.52,454.38 345.05,449.39 345.59,456.18 346.12,467.72 346.66,458.59 347.20,484.58 347.73,484.36 348.27,458.56 348.80,678.00 349.33,485.64 349.87,454.38 350.40,449.39 350.94,456.18 351.47,467.72 352.01,458.59 352.55,484.58 353.08,484.36 353.62,458.56 354.15,678.00 354.68,485.64 355.22,454.38 355.75,449.39 356.29,456.18 356.82,467.72 357.36,458.59 357.90,484.58 358.43,484.36 358.97,458.56 359.50,678.00 360.03,485.64 360.57,454.38 361.10,449.39 361.64,456.18 362.18,467.72 362.71,458.59 363.25,484.58 363.78,484.36 364.32,458.56 364.85,678.00 365.38,485.64 365.92,454.38 366.45,449.39 366.99,456.18 367.53,467.72 368.06,458.59 368.60,484.58 369.13,484.36 369.67,458.56 370.20,678.00 370.73,485.64 371.27,454.38 371.80,449.39 372.34,456.18 372.88,467.72 373.41,458.59 373.95,484.58 374.48,484.36 375.02,458.56 375.55,678.00 376.08,485.64 376.62,454.38 377.15,449.39 377.69,456.18 378.23,467.72 378.76,458.59 379.30,484.58 379.83,484.36 380.37,458.56 380.90,678.00 381.43,485.64 381.97,454.38 382.50,449.39 383.04,456.18 383.58,467.72 384.11,458.59 384.65,484.58 385.18,484.36 385.72,458.56 386.25,678.00 386.78,485.64 387.32,454.38 387.85,449.39 388.39,456.18 388.93,467.72 389.46,458.59 390.00,484.58 390.53,484.36 391.07,458.56 391.60,678.00 392.13,485.64 392.67,454.38 393.20,449.39 393.74,456.18 394.27,467.72 394.81,458.59 395.35,484.58 395.88,484.36 396.42,458.56 396.95,678.00 397.48,485.64 398.02,454.38 398.55,449.39 399.09,456.18 399.62,467.72 400.16,458.59 400.70,484.58 401.23,484.36 401.77,458.56 402.30,678.00 402.83,485.64 403.37,454.38 403.90,449.39 404.44,456.18 404.97,467.72 405.51,458.59 406.05,484.58 406.58,484.36 407.12,458.56 407.65,678.00 408.18,485.64 408.72,454.38 409.25,449.39 409.79,456.18 410.32,467.72 410.86,458.59 411.40,484.58 411.93,484.36 412.47,458.56 413.00,678.00 413.53,485.64 414.07,454.38 414.60,449.39 415.14,456.18 415.68,467.72 416.21,458.59 416.75,484.58 417.28,484.36 417.82,458.56 418.35,678.00 418.88,485.64 419.42,454.38 419.95,449.39 420.49,456.18 421.02,467.72 421.56,458.59 422.10,484.58 422.63,484.36 423.17,458.56 423.70,678.00 424.23,485.64 424.77,454.38 425.30,449.39 425.84,456.18 426.38,467.72 426.91,458.59 427.45,484.58 427.98,484.36 428.52,458.56 429.05,678.00 429.58,485.64 430.12,454.38 430.65,449.39 431.19,456.18 431.73,467.72 432.26,458.59 432.80,484.58 433.33,484.36 433.87,458.56 434.40,678.00 434.93,485.64 435.47,454.38 436.00,449.39 436.54,456.18 437.07,467.72 437.61,458.59 438.15,484.58 438.68,484.36 439.22,458.56 439.75,678.00 440.28,485.64 440.82,454.38 441.35,449.39 441.89,456.18 442.43,467.72 442.96,458.59 443.50,484.58 444.03,484.36 444.57,458.56 445.10,678.00 445.63,485.64 446.17,454.38 446.70,449.39 447.24,456.18 447.78,467.72 448.31,458.59 448.85,484.58 449.38,484.36 449.92,458.56 450.45,678.00 450.98,485.64 451.52,454.38 452.05,449.39 452.59,456.18 453.12,467.72 453.66,458.59 454.20,484.58 454.73,484.36 455.27,458.56 455.80,678.00 456.34,464.25 456.87,454.38 457.40,449.39 457.94,457.07 458.48,467.72 459.01,450.77 459.55,484.58 460.08,484.36 460.61,487.94 461.15,678.00 461.69,464.25 462.22,454.38 462.75,449.39 463.29,457.07 463.82,467.72 464.36,450.77 464.90,484.58 465.43,484.36 465.96,487.94 466.50,678.00 467.04,464.25 467.57,454.38 468.10,449.39 468.64,457.07 469.17,467.72 469.71,450.77 470.25,484.58 470.78,484.36 471.31,487.94 471.85,678.00 472.39,464.25 472.92,454.38 473.45,449.39 473.99,457.07 474.52,467.72 475.06,450.77 475.60,484.58 476.13,484.36 476.66,487.94 477.20,678.00 477.74,464.25 478.27,454.38 478.80,449.39 479.34,457.07 479.88,467.72 480.41,450.77 480.95,484.58 481.48,484.36 482.01,487.94 482.55,678.00 483.09,464.25 483.62,454.38 484.15,449.39 484.69,457.07 485.22,467.72 485.76,450.77 486.30,484.58 486.83,484.36 487.36,487.94 487.90,678.00 488.44,464.25 488.97,454.38 489.50,449.39 490.04,457.07 490.57,467.72 491.11,450.77 491.65,484.58 492.18,484.36 492.71,487.94 493.25,678.00 493.79,464.25 494.32,454.38 494.85,449.39 495.39,457.07 495.93,467.72 496.46,450.77 497.00,484.58 497.53,484.36 498.06,487.94 498.60,678.00 499.14,464.25 499.67,454.38 500.20,449.39 500.74,457.07 501.28,467.72 501.81,450.77 502.35,484.58 502.88,484.36 503.41,487.94 503.95,678.00 504.49,464.25 505.02,454.38 505.55,449.39 506.09,457.07 506.62,467.72 507.16,450.77 507.70,484.58 508.23,484.36 508.76,487.94 509.30,678.00 509.84,464.25 510.37,454.38 510.90,449.39 511.44,457.07 511.98,467.72 512.51,450.77 513.05,484.58 513.58,484.36 514.11,487.94 514.65,678.00 515.19,464.25 515.72,454.38 516.25,449.39 516.79,457.07 517.33,467.72 517.86,450.77 518.40,484.58 518.93,484.36 519.46,487.94 520.00,678.00 520.54,464.25 521.07,454.38 521.60,449.39 522.14,457.07 522.67,467.72 523.21,450.77 523.75,484.58 524.28,484.36 524.81,487.94 525.35,678.00 525.89,464.25 526.42,454.38 526.95,449.39 527.49,457.07 528.02,467.72 528.56,450.77 529.10,484.58 529.63,484.36 530.16,487.94 530.70,678.00 531.24,464.25 531.77,454.38 532.30,449.39 532.84,457.07 533.38,467.72 533.91,450.77 534.45,484.58 534.98,484.36 535.51,487.94 536.05,678.00 536.59,464.25 537.12,454.38 537.65,449.39 538.19,457.07 538.72,467.72 539.26,450.77 539.80,484.58 540.33,484.36 540.86,487.94 541.40,678.00 541.94,464.25 542.47,488.26 543.01,461.09 543.54,457.07 544.08,467.72 544.61,450.77 545.14,486.30 545.68,469.54 546.21,487.94 546.75,678.00 547.29,464.25 547.82,488.26 548.36,461.09 548.89,457.07 549.42,467.72 549.96,450.77 550.49,486.30 551.03,469.54 551.56,487.94 552.10,678.00 552.64,464.25 553.17,488.26 553.71,461.09 554.24,457.07 554.77,467.72 555.31,450.77 555.84,486.30 556.38,469.54 556.91,487.94 557.45,678.00 557.99,464.25 558.52,488.26 559.06,461.09 559.59,457.07 560.12,467.72 560.66,450.77 561.19,486.30 561.73,469.54 562.26,487.94 562.80,678.00 563.34,464.25 563.87,488.26 564.41,461.09 564.94,457.07 565.48,467.72 566.01,450.77 566.54,486.30 567.08,469.54 567.61,487.94 568.15,678.00 568.69,464.25 569.22,488.26 569.76,461.09 570.29,457.07 570.83,467.72 571.36,450.77 571.89,486.30 572.43,469.54 572.96,487.94 573.50,678.00 574.04,464.25 574.57,488.26 575.11,461.09 575.64,457.07 576.17,467.72 576.71,450.77 577.24,486.30 577.78,469.54 578.31,487.94 578.85,678.00 579.39,464.25 579.92,488.26 580.46,461.09 580.99,457.07 581.53,467.72 582.06,450.77 582.59,486.30 583.13,469.54 583.66,487.94 584.20,678.00 584.73,467.94 585.27,488.26 585.81,461.09 586.34,454.60 586.88,467.72 587.41,462.66 587.94,486.30 588.48,469.54 589.02,497.01 589.55,678.00 590.08,467.94 590.62,488.26 591.16,461.09 591.69,454.60 592.23,467.72 592.76,462.66 593.29,486.30 593.83,469.54 594.37,497.01 594.90,678.00 595.43,467.94 595.97,488.26 596.51,461.09 597.04,454.60 597.58,467.72 598.11,462.66 598.64,486.30 599.18,469.54 599.72,497.01 600.25,678.00 600.78,467.94 601.32,488.26 601.86,461.09 602.39,454.60 602.92,467.72 603.46,462.66 603.99,486.30 604.53,469.54 605.07,497.01 605.60,678.00 606.13,467.94 606.67,445.07 607.20,446.79 607.74,454.60 608.27,467.72 608.81,462.66 609.35,458.93 609.88,460.05 610.42,497.01 610.95,678.00 611.48,467.94 612.02,445.07 612.55,446.79 613.09,454.60 613.62,467.72 614.16,462.66 614.70,458.93 615.23,460.05 615.77,497.01 616.30,678.00 616.84,446.61 617.37,445.07 617.90,446.79 618.44,449.86 618.98,467.72 619.51,459.02 620.05,458.93 620.58,460.05 621.11,471.53 621.65,678.00 622.19,446.61 622.72,472.74 623.26,499.92 623.79,449.86 624.33,467.72 624.86,494.45 625.39,469.74 625.93,473.54 626.46,526.01 627.00,678.00 627.54,444.51 628.07,460.52 628.61,499.92 629.14,455.24 629.67,467.72 630.21,459.02 630.74,469.74 631.28,507.26 631.81,471.53 632.35,678.00 632.89,446.61 633.42,445.07 633.95,446.79 634.49,449.86 635.02,467.72 635.56,459.02 636.10,458.93 636.63,460.05 637.16,471.53 637.70,678.00 638.23,467.94 638.77,445.07 639.30,446.79 639.84,454.60 640.38,467.72 640.91,462.66 641.45,458.93 641.98,460.05 642.52,497.01 643.05,678.00 643.58,467.94 644.12,445.07 644.65,446.79 645.19,454.60 645.72,467.72 646.26,462.66 646.80,458.93 647.33,460.05 647.87,497.01 648.40,678.00 648.93,467.94 649.47,488.26 650.01,461.09 650.54,454.60 651.07,467.72 651.61,462.66 652.14,486.30 652.68,469.54 653.22,497.01 653.75,678.00 654.28,467.94 654.82,488.26 655.36,461.09 655.89,454.60 656.42,467.72 656.96,462.66 657.49,486.30 658.03,469.54 658.57,497.01 659.10,678.00 659.63,467.94 660.17,488.26 660.71,461.09 661.24,454.60 661.77,467.72 662.31,462.66 662.84,486.30 663.38,469.54 663.92,497.01 664.45,678.00 664.98,467.94 665.52,488.26 666.06,461.09 666.59,454.60 667.12,467.72 667.66,462.66 668.19,486.30 668.73,469.54 669.27,497.01 669.80,678.00 670.34,464.25 670.87,488.26 671.41,461.09 671.94,457.07 672.48,467.72 673.01,450.77 673.54,486.30 674.08,469.54 674.61,487.94 675.15,678.00 675.69,464.25 676.22,488.26 676.76,461.09 677.29,457.07 677.82,467.72 678.36,450.77 678.89,486.30 679.43,469.54 679.96,487.94 680.50,678.00 681.04,464.25 681.57,488.26 682.11,461.09 682.64,457.07 683.17,467.72 683.71,450.77 684.24,486.30 684.78,469.54 685.31,487.94 685.85,678.00 686.39,464.25 686.92,488.26 687.46,461.09 687.99,457.07 688.52,467.72 689.06,450.77 689.59,486.30 690.13,469.54 690.66,487.94 691.20,678.00 691.74,464.25 692.27,488.26 692.81,461.09 693.34,457.07 693.88,467.72 694.41,450.77 694.94,486.30 695.48,469.54 696.01,487.94 696.55,678.00 697.09,464.25 697.62,488.26 698.16,461.09 698.69,457.07 699.23,467.72 699.76,450.77 700.29,486.30 700.83,469.54 701.36,487.94 701.90,678.00 702.44,464.25 702.97,488.26 703.51,461.09 704.04,457.07 704.58,467.72 705.11,450.77 705.64,486.30 706.18,469.54 706.71,487.94 707.25,678.00 707.79,464.25 708.32,488.26 708.86,461.09 709.39,457.07 709.93,467.72 710.46,450.77 710.99,486.30 711.53,469.54 712.06,487.94 712.60,678.00 713.14,464.25 713.67,454.38 714.20,449.39 714.74,457.07 715.27,467.72 715.81,450.77 716.35,484.58 716.88,484.36 717.41,487.94 717.95,678.00 718.49,464.25 719.02,454.38 719.55,449.39 720.09,457.07 720.62,467.72 721.16,450.77 721.70,484.58 722.23,484.36 722.76,487.94 723.30,678.00 723.84,464.25 724.37,454.38 724.90,449.39 725.44,457.07 725.98,467.72 726.51,450.77 727.05,484.58 727.58,484.36 728.11,487.94 728.65,678.00 729.19,464.25 729.72,454.38 730.25,449.39 730.79,457.07 731.33,467.72 731.86,450.77 732.40,484.58 732.93,484.36 733.46,487.94 734.00,678.00 734.54,464.25 735.07,454.38 735.60,449.39 736.14,457.07 736.68,467.72 737.21,450.77 737.75,484.58 738.28,484.36 738.81,487.94 739.35,678.00 739.89,464.25 740.42,454.38 740.95,449.39 741.49,457.07 742.03,467.72 742.56,450.77 743.10,484.58 743.63,484.36 744.16,487.94 744.70,678.00 745.24,464.25 745.77,454.38 746.30,449.39 746.84,457.07 747.38,467.72 747.91,450.77 748.45,484.58 748.98,484.36 749.51,487.94 750.05,678.00 750.59,464.25 751.12,454.38 751.65,449.39 752.19,457.07 752.73,467.72 753.26,450.77 753.80,484.58 754.33,484.36 754.86,487.94 755.40,678.00 755.94,464.25 756.47,454.38 757.00,449.39 757.54,457.07 758.08,467.72 758.61,450.77 759.15,484.58 759.68,484.36 760.21,487.94 760.75,678.00 761.29,464.25 761.82,454.38 762.35,449.39 762.89,457.07 763.42,467.72 763.96,450.77 764.50,484.58 765.03,484.36 765.56,487.94 766.10,678.00 766.64,464.25 767.17,454.38 767.70,449.39 768.24,457.07 768.77,467.72 769.31,450.77 769.85,484.58 770.38,484.36 770.91,487.94 771.45,678.00 771.99,464.25 772.52,454.38 773.05,449.39 773.59,457.07 774.12,467.72 774.66,450.77 775.20,484.58 775.73,484.36 776.26,487.94 776.80,678.00 777.34,464.25 777.87,454.38 778.40,449.39 778.94,457.07 779.47,467.72 780.01,450.77 780.55,484.58 781.08,484.36 781.61,487.94 782.15,678.00 782.69,464.25 783.22,454.38 783.75,449.39 784.29,457.07 784.82,467.72 785.36,450.77 785.90,484.58 786.43,484.36 786.96,487.94 787.50,678.00 788.04,464.25 788.57,454.38 789.10,449.39 789.64,457.07 790.17,467.72 790.71,450.77 791.25,484.58 791.78,484.36 792.31,487.94 792.85,678.00 793.39,464.25 793.92,454.38 794.45,449.39 794.99,457.07 795.52,467.72 796.06,450.77 796.60,484.58 797.13,484.36 797.66,487.94 798.20,678.00 798.73,485.64 799.27,454.38 799.80,449.39 800.34,456.18 800.88,467.72 801.41,458.59 801.95,484.58 802.48,484.36 803.02,458.56 803.55,678.00 804.08,485.64 804.62,454.38 805.15,449.39 805.69,456.18 806.23,467.72 806.76,458.59 807.30,484.58 807.83,484.36 808.37,458.56 808.90,678.00 809.43,485.64 809.97,454.38 810.50,449.39 811.04,456.18 811.57,467.72 812.11,458.59 812.65,484.58 813.18,484.36 813.72,458.56 814.25,678.00 814.78,485.64 815.32,454.38 815.85,449.39 816.39,456.18 816.92,467.72 817.46,458.59 818.00,484.58 818.53,484.36 819.07,458.56 819.60,678.00 820.13,485.64 820.67,454.38 821.20,449.39 821.74,456.18 822.27,467.72 822.81,458.59 823.35,484.58 823.88,484.36 824.42,458.56 824.95,678.00 825.48,485.64 826.02,454.38 826.55,449.39 827.09,456.18 827.62,467.72 828.16,458.59 828.70,484.58 829.23,484.36 829.77,458.56 830.30,678.00 830.83,485.64 831.37,454.38 831.90,449.39 832.44,456.18 832.98,467.72 833.51,458.59 834.05,484.58 834.58,484.36 835.12,458.56 835.65,678.00 836.18,485.64 836.72,454.38 837.25,449.39 837.79,456.18 838.33,467.72 838.86,458.59 839.40,484.58 839.93,484.36 840.47,458.56 841.00,678.00 841.53,485.64 842.07,454.38 842.60,449.39 843.14,456.18 843.68,467.72 844.21,458.59 844.75,484.58 845.28,484.36 845.82,458.56 846.35,678.00 846.88,485.64 847.42,454.38 847.95,449.39 848.49,456.18 849.02,467.72 849.56,458.59 850.10,484.58 850.63,484.36 851.17,458.56 851.70,678.00 852.23,485.64 852.77,454.38 853.30,449.39 853.84,456.18 854.38,467.72 854.91,458.59 855.45,484.58 855.98,484.36 856.52,458.56 857.05,678.00 857.58,485.64 858.12,454.38 858.65,449.39 859.19,456.18 859.73,467.72 860.26,458.59 860.80,484.58 861.33,484.36 861.87,458.56 862.40,678.00 862.93,485.64 863.47,454.38 864.00,449.39 864.54,456.18 865.08,467.72 865.61,458.59 866.15,484.58 866.68,484.36 867.22,458.56 867.75,678.00 868.28,485.64 868.82,454.38 869.35,449.39 869.89,456.18 870.43,467.72 870.96,458.59 871.50,484.58 872.03,484.36 872.57,458.56 873.10,678.00 873.63,485.64 874.17,454.38 874.70,449.39 875.24,456.18 875.78,467.72 876.31,458.59 876.85,484.58 877.38,484.36 877.92,458.56 878.45,678.00 878.98,485.64 879.52,454.38 880.05,449.39 880.59,456.18 881.12,467.72 881.66,458.59 882.20,484.58 882.73,484.36 883.27,458.56 883.80,678.00 884.33,485.64 884.87,454.38 885.40,449.39 885.94,456.18 886.48,467.72 887.01,458.59 887.55,484.58 888.08,484.36 888.62,458.56 889.15,678.00 889.68,485.64 890.22,454.38 890.75,449.39 891.29,456.18 891.83,467.72 892.36,458.59 892.90,484.58 893.43,484.36 893.97,458.56 894.50,678.00 895.03,485.64 895.57,454.38 896.10,449.39 896.64,456.18 897.17,467.72 897.71,458.59 898.25,484.58 898.78,484.36 899.32,458.56 899.85,678.00 900.38,485.64 900.92,454.38 901.45,449.39 901.99,456.18 902.52,467.72 903.06,458.59 903.60,484.58 904.13,484.36 904.67,458.56 905.20,678.00 905.73,485.64 906.27,454.38 906.80,449.39 907.34,456.18 907.88,467.72 908.41,458.59 908.95,484.58 909.48,484.36 910.02,458.56 910.55,678.00 911.08,485.64 911.62,454.38 912.15,449.39 912.69,456.18 913.22,467.72 913.76,458.59 914.30,484.58 914.83,484.36 915.37,458.56 915.90,678.00 916.43,485.64 916.97,454.38 917.50,449.39 918.04,456.18 918.57,467.72 919.11,458.59 919.65,484.58 920.18,484.36 920.72,458.56 921.25,678.00 921.78,485.64 922.32,454.38 922.85,449.39 923.39,456.18 923.92,467.72 924.46,458.59 925.00,484.58 925.53,484.36 926.07,458.56 926.60,678.00 927.13,485.64 927.67,454.38 928.20,449.39 928.74,456.18 929.27,467.72 929.81,458.59 930.35,484.58 930.88,484.36 931.42,458.56 931.95,678.00 932.48,485.64 933.02,454.38 933.55,449.39 934.09,456.18 934.62,467.72 935.16,458.59 935.70,484.58 936.23,484.36 936.77,458.56 937.30,678.00 937.83,485.64 938.37,454.38 938.90,449.39 939.44,456.18 939.98,467.72 940.51,458.59 941.05,484.58 941.58,484.36 942.12,458.56 942.65,678.00 943.18,485.64 943.72,454.38 944.25,449.39 944.79,456.18 945.32,467.72 945.86,458.59 946.40,484.58 946.93,484.36 947.47,458.56 948.00,678.00 948.53,485.64 949.07,454.38 949.60,449.39 950.14,456.18 950.67,467.72 951.21,458.59 951.75,484.58 952.28,484.36 952.82,458.56 953.35,678.00 953.88,485.64 954.42,454.38 954.95,449.39 955.49,456.18 956.02,467.72 956.56,458.59 957.10,484.58 957.63,484.36 958.17,458.56 958.70,678.00 959.23,485.64 959.77,454.38 960.30,449.39 960.84,456.18 961.38,467.72 961.91,458.59 962.45,484.58 962.98,484.36 963.52,458.56 964.05,678.00 964.58,485.64 965.12,454.38 965.65,449.39 966.19,456.18 966.73,467.72 967.26,458.59 967.80,484.58 968.33,484.36 968.87,458.56 969.40,678.00 969.93,485.64 970.47,466.71 971.01,457.88 971.54,456.18 972.08,467.72 972.61,458.59 973.14,492.46 973.68,466.42 974.22,458.56 974.75,678.00 975.28,485.64 975.82,466.71 976.36,457.88 976.89,456.18 977.43,467.72 977.96,458.59 978.49,492.46 979.03,466.42 979.57,458.56 980.10,678.00 980.63,485.64 981.17,466.71 981.71,457.88 982.24,456.18 982.77,467.72 983.31,458.59 983.84,492.46 984.38,466.42 984.92,458.56 985.45,678.00 985.98,485.64 986.52,466.71 987.06,457.88 987.59,456.18 988.12,467.72 988.66,458.59 989.19,492.46 989.73,466.42 990.27,458.56 990.80,678.00 991.33,485.64 991.87,466.71 992.41,457.88 992.94,456.18 993.48,467.72 994.01,458.59 994.54,492.46 995.08,466.42 995.62,458.56 996.15,678.00 996.68,485.64 997.22,466.71 997.76,457.88 998.29,456.18 998.83,467.72 999.36,458.59 999.89,492.46 1000.43,466.42 1000.97,458.56 1001.50,678.00 1002.03,485.64 1002.57,466.71 1003.11,457.88 1003.64,456.18 1004.18,467.72 1004.71,458.59 1005.24,492.46 1005.78,466.42 1006.32,458.56 1006.85,678.00 1007.38,485.64 1007.92,466.71 1008.46,457.88 1008.99,456.18 1009.53,467.72 1010.06,458.59 1010.59,492.46 1011.13,466.42 1011.67,458.56 1012.20,678.00 1012.73,485.64 1013.27,466.71 1013.81,457.88 1014.34,456.18 1014.88,467.72 1015.41,458.59 1015.94,492.46 1016.48,466.42 1017.02,458.56 1017.55,678.00 1018.08,485.64 1018.62,466.71 1019.16,457.88 1019.69,456.18 1020.23,467.72 1020.76,458.59 1021.29,492.46 1021.83,466.42 1022.37,458.56 1022.90,678.00 1023.43,485.64 1023.97,466.71 1024.51,457.88 1025.04,456.18 1025.58,467.72 1026.11,458.59 1026.64,492.46 1027.18,466.42 1027.72,458.56 1028.25,678.00 1028.78,485.64 1029.32,466.71 1029.86,457.88 1030.39,456.18 1030.92,467.72 1031.46,458.59 1031.99,492.46 1032.53,466.42 1033.07,458.56 1033.60,678.00 1034.13,485.64 1034.67,466.71 1035.21,457.88 1035.74,456.18 1036.28,467.72 1036.81,458.59 1037.34,492.46 1037.88,466.42 1038.42,458.56 1038.95,678.00 1039.48,485.64 1040.02,466.71 1040.56,457.88 1041.09,456.18 1041.62,467.72 1042.16,458.59 1042.69,492.46 1043.23,466.42 1043.77,458.56 1044.30,678.00 1044.83,485.64 1045.37,466.71 1045.91,457.88 1046.44,456.18 1046.97,467.72 1047.51,458.59 1048.04,492.46 1048.58,466.42 1049.12,458.56 1049.65,678.00 1050.18,485.64 1050.72,466.71 1051.26,457.88 1051.79,456.18 1052.32,467.72 1052.86,458.59 1053.39,492.46 1053.93,466.42 1054.47,458.56 1055.00,678.00 1055.53,485.64 1056.07,466.71 1056.61,457.88 1057.14,456.18 1057.67,467.72 1058.21,458.59 1058.74,492.46 1059.28,466.42 1059.82,458.56 1060.35,678.00 1060.88,485.64 1061.42,466.71 1061.96,457.88 1062.49,456.18 1063.03,467.72 1063.56,458.59 1064.09,492.46 1064.63,466.42 1065.17,458.56 1065.70,678.00 1066.23,485.64 1066.77,466.71 1067.31,457.88 1067.84,456.18 1068.38,467.72 1068.91,458.59 1069.44,492.46 1069.98,466.42 1070.52,458.56 1071.05,678.00 1071.58,485.64 1072.12,466.71 1072.66,457.88 1073.19,456.18 1073.72,467.72 1074.26,458.59 1074.79,492.46 1075.33,466.42 1075.87,458.56 1076.40,678.00 1076.93,485.64 1077.47,466.71 1078.01,457.88 1078.54,456.18 1079.07,467.72 1079.61,458.59 1080.14,492.46 1080.68,466.42 1081.22,458.56 1081.75,678.00 1082.28,485.64 1082.82,466.71 1083.36,457.88 1083.89,456.18 1084.42,467.72 1084.96,458.59 1085.49,492.46 1086.03,466.42 1086.57,458.56 1087.10,678.00 1087.63,485.64 1088.17,466.71 1088.71,457.88 1089.24,456.18 1089.78,467.72 1090.31,458.59 1090.84,492.46 1091.38,466.42 1091.92,458.56 1092.45,678.00 1092.98,485.64 1093.52,466.71 1094.06,457.88 1094.59,456.18 1095.12,467.72 1095.66,458.59 1096.19,492.46 1096.73,466.42 1097.27,458.56 1097.80,678.00 1098.33,485.64 1098.87,466.71 1099.41,457.88 1099.94,456.18 1100.47,467.72 1101.01,458.59 1101.54,492.46 1102.08,466.42 1102.62,458.56 1103.15,678.00 1103.68,485.64 1104.22,466.71 1104.76,457.88 1105.29,456.18 1105.83,467.72 1106.36,458.59 1106.89,492.46 1107.43,466.42 1107.97,458.56 1108.50,678.00 1109.03,485.64 1109.57,466.71 1110.11,457.88 1110.64,456.18 1111.18,467.72 1111.71,458.59 1112.24,492.46 1112.78,466.42 1113.32,458.56 1113.85,678.00 1114.38,485.64 1114.92,466.71 1115.46,457.88 1115.99,456.18 1116.53,467.72 1117.06,458.59 1117.59,492.46 1118.13,466.42 1118.67,458.56 1119.20,678.00 1119.73,485.64 1120.27,466.71 1120.81,457.88 1121.34,456.18 1121.88,467.72 1122.41,458.59 1122.94,492.46 1123.48,466.42 1124.02,458.56 1124.55,678.00 1125.08,485.64 1125.62,466.71 1126.16,457.88 1126.69,456.18 1127.23,467.72 1127.76,458.59 1128.29,492.46 1128.83,466.42 1129.37,458.56 1129.90,678.00 1130.43,485.64 1130.97,466.71 1131.51,457.88 1132.04,456.18 1132.58,467.72 1133.11,458.59 1133.64,492.46 1134.18,466.42 1134.72,458.56 1135.25,678.00 1135.78,485.64 1136.32,466.71 1136.86,457.88 1137.39,456.18 1137.92,467.72 1138.46,458.59 1138.99,492.46 1139.53,466.42 1140.07,458.56 1140.60,678.00 1141.13,485.64 1141.67,466.71 1142.21,457.88 1142.74,456.18 1143.28,467.72 1143.81,458.59 1144.34,492.46 1144.88,466.42 1145.42,458.56 1145.95,678.00 1146.48,485.64 1147.02,466.71 1147.56,457.88 1148.09,456.18 1148.62,467.72 1149.16,458.59 1149.69,492.46 1150.23,466.42 1150.77,458.56 1151.30,678.00 1151.83,485.64 1152.37,466.71 1152.91,457.88 1153.44,456.18 1153.98,467.72 1154.51,458.59 1155.04,492.46 1155.58,466.42 1156.12,458.56 1156.65,678.00 1157.18,485.64 1157.72,466.71 1158.26,457.88 1158.79,456.18 1159.33,467.72 1159.86,458.59 1160.39,492.46 1160.93,466.42 1161.47,458.56 1162.00,678.00" stroke="#2ca02c"/>
<polyline class="line" points="92.00,81.93 92.53,81.93 93.07,81.93 93.61,81.93 94.14,81.93 94.67,81.93 95.21,81.93 95.74,81.93 96.28,81.93 96.82,81.93 97.35,81.93 97.88,81.93 98.42,81.93 98.96,81.93 99.49,81.93 100.03,81.93 100.56,81.93 101.09,81.93 101.63,81.93 102.17,81.93 102.70,81.93 103.23,81.93 103.77,81.93 104.31,81.93 104.84,81.93 105.38,81.93 105.91,81.93 106.44,81.93 106.98,81.93 107.52,81.93 108.05,81.93 108.58,81.93 109.12,81.93 109.66,81.93 110.19,81.93 110.72,81.93 111.26,81.93 111.79,81.93 112.33,81.93 112.87,81.93 113.40,81.93 113.93,81.93 114.47,81.93 115.01,81.93 115.54,81.93 116.08,81.93 116.61,81.93 117.14,81.93 117.68,81.93 118.22,81.93 118.75,81.93 119.28,81.93 119.82,81.93 120.36,81.93 120.89,81.93 121.42,81.93 121.96,81.93 122.49,81.93 123.03,81.93 123.57,81.93 124.10,81.93 124.63,81.93 125.17,81.93 125.71,81.93 126.24,81.93 126.78,81.93 127.31,81.93 127.84,81.93 128.38,81.93 128.92,81.93 129.45,81.93 129.98,81.93 130.52,81.93 131.06,81.93 131.59,81.93 132.12,81.93 132.66,81.93 133.19,81.93 133.73,81.93 134.27,81.93 134.80,81.93 135.33,81.93 135.87,81.93 136.41,81.93 136.94,81.93 137.47,81.93 138.01,81.93 138.54,81.93 139.08,81.93 139.62,81.93 140.15,81.93 140.68,81.93 141.22,81.93 141.76,81.93 142.29,81.93 142.82,81.93 143.36,81.93 143.89,81.93 144.43,81.93 144.97,81.93 145.50,81.93 146.03,81.93 146.57,81.93 147.11,81.93 147.64,81.93 148.18,81.93 148.71,81.93 149.24,81.93 149.78,81.93 150.32,81.93 150.85,81.93 151.38,81.93 151.92,81.93 152.46,81.93 152.99,81.93 153.53,81.93 154.06,81.93 154.59,81.93 155.13,81.93 155.67,81.93 156.20,81.93 156.73,81.93 157.27,81.93 157.81,81.93 158.34,81.93 158.88,81.93 159.41,81.93 159.94,81.93 160.48,81.93 161.02,81.93 161.55,81.93 162.08,81.93 162.62,81.93 163.16,81.93 163.69,81.93 164.23,81.93 164.76,81.93 165.29,81.93 165.83,81.93 166.37,81.93 166.90,81.93 167.43,81.93 167.97,81.93 168.51,81.93 169.04,81.93 169.57,81.93 170.11,81.93 170.64,81.93 171.18,81.93 171.72,81.93 172.25,81.93 172.78,81.93 173.32,81.93 173.86,81.93 174.39,81.93 174.93,81.93 175.46,81.93 175.99,81.93 176.53,81.93 177.07,81.93 177.60,81.93 178.13,81.93 178.67,81.93 179.21,81.93 179.74,81.93 180.28,81.93 180.81,81.93 181.34,81.93 181.88,81.93 182.42,81.93 182.95,81.93 183.48,81.93 184.02,81.93 184.56,81.93 185.09,81.93 185.62,81.93 186.16,81.93 186.69,81.93 187.23,81.93 187.77,81.93 188.30,81.93 188.83,81.93 189.37,81.93 189.91,81.93 190.44,81.93 190.97,81.93 191.51,81.93 192.04,81.93 192.58,81.93 193.12,81.93 193.65,81.93 194.18,81.93 194.72,81.93 195.26,81.93 195.79,81.93 196.32,81.93 196.86,81.93 197.39,81.93 197.93,81.93 198.47,81.93 199.00,81.93 199.53,485.64 200.07,466.71 200.61,457.88 201.14,456.18 201.68,467.72 202.21,443.53 202.74,434.77 203.28,425.93 203.82,406.43 204.35,678.00 204.88,485.64 205.42,466.71 205.96,457.88 206.49,456.18 207.02,467.72 207.56,443.53 208.09,434.77 208.63,425.93 209.17,406.43 209.70,678.00 210.23,485.64 210.77,466.71 211.31,457.88 211.84,456.18 212.38,467.72 212.91,443.53 213.44,434.77 213.98,425.93 214.52,406.43 215.05,678.00 215.58,485.64 216.12,466.71 216.66,457.88 217.19,456.18 217.72,467.72 218.26,443.53 218.79,434.77 219.33,425.93 219.87,406.43 220.40,678.00 220.93,485.64 221.47,466.71 222.01,457.88 222.54,456.18 223.07,467.72 223.61,443.53 224.14,434.77 224.68,425.93 225.22,406.43 225.75,678.00 226.28,485.64 226.82,466.71 227.36,457.88 227.89,456.18 228.43,467.72 228.96,443.53 229.49,434.77 230.03,425.93 230.57,406.43 231.10,678.00 231.63,485.64 232.17,466.71 232.71,457.88 233.24,456.18 233.78,467.72 234.31,443.53 234.84,434.77 235.38,425.93 235.92,406.43 236.45,678.00 236.98,485.64 237.52,466.71 238.06,457.88 238.59,456.18 239.12,467.72 239.66,443.53 240.19,434.77 240.73,425.93 241.27,406.43 241.80,678.00 242.33,485.64 242.87,466.71 243.41,457.88 243.94,456.18 244.47,467.72 245.01,443.53 245.54,434.77 246.08,425.93 246.62,406.43 247.15,678.00 247.68,485.64 248.22,466.71 248.76,457.88 249.29,456.18 249.82,467.72 250.36,443.53 250.89,434.77 251.43,425.93 251.97,406.43 252.50,678.00 253.03,485.64 253.57,466.71 254.11,457.88 254.64,456.18 255.17,467.72 255.71,443.53 256.24,434.77 256.78,425.93 257.32,406.43 257.85,678.00 258.38,485.64 258.92,466.71 259.46,457.88 259.99,456.18 260.52,467.72 261.06,443.53 261.59,434.77 262.13,425.93 262.67,406.43 263.20,678.00 263.73,485.64 264.27,466.71 264.81,457.88 265.34,456.18 265.88,467.72 266.41,443.53 266.94,434.77 267.48,425.93 268.02,406.43 268.55,678.00 269.08,485.64 269.62,466.71 270.16,457.88 270.69,456.18 271.23,467.72 271.76,443.53 272.29,434.77 272.83,425.93 273.37,406.43 273.90,678.00 274.43,485.64 274.97,466.71 275.51,457.88 276.04,456.18 276.57,467.72 277.11,443.53 277.64,434.77 278.18,425.93 278.72,406.43 279.25,678.00 279.78,485.64 280.32,466.71 280.86,457.88 281.39,456.18 281.92,467.72 282.46,443.53 282.99,434.77 283.53,425.93 284.07,406.43 284.60,678.00 285.13,485.64 285.67,454.38 286.20,449.39 286.74,456.18 287.27,467.72 287.81,443.53 288.35,434.13 288.88,435.45 289.42,406.43 289.95,678.00 290.48,485.64 291.02,454.38 291.55,449.39 292.09,456.18 292.62,467.72 293.16,443.53 293.70,434.13 294.23,435.45 294.77,406.43 295.30,678.00 295.83,485.64 296.37,454.38 296.90,449.39 297.44,456.18 297.98,467.72 298.51,443.53 299.05,434.13 299.58,435.45 300.12,406.43 300.65,678.00 301.18,485.64 301.72,454.38 302.25,449.39 302.79,456.18 303.33,467.72 303.86,443.53 304.40,434.13 304.93,435.45 305.47,406.43 306.00,678.00 306.53,485.64 307.07,454.38 307.60,449.39 308.14,456.18 308.68,467.72 309.21,443.53 309.75,434.13 310.28,435.45 310.82,406.43 311.35,678.00 311.88,485.64 312.42,454.38 312.95,449.39 313.49,456.18 314.02,467.72 314.56,443.53 315.10,434.13 315.63,435.45 316.17,406.43 316.70,678.00 317.23,485.64 317.77,454.38 318.30,449.39 318.84,456.18 319.38,467.72 319.91,443.53 320.45,434.13 320.98,435.45 321.52,406.43 322.05,678.00 322.58,485.64 323.12,454.38 323.65,449.39 324.19,456.18 324.73,467.72 325.26,443.53 325.80,434.13 326.33,435.45 326.87,406.43 327.40,678.00 327.93,485.64 328.47,454.38 329.00,449.39 329.54,456.18 330.08,467.72 330.61,443.53 331.15,434.13 331.68,435.45 332.22,406.43 332.75,678.00 333.28,485.64 333.82,454.38 334.35,449.39 334.89,456.18 335.43,467.72 335.96,443.53 336.50,434.13 337.03,435.45 337.57,406.43 338.10,678.00 338.63,485.64 339.17,454.38 339.70,449.39 340.24,456.18 340.77,467.72 341.31,443.53 341.85,434.13 342.38,435.45 342.92,406.43 343.45,678.00 343.98,485.64 344.52,454.38 345.05,449.39 345.59,456.18 346.12,467.72 346.66,443.53 347.20,434.13 347.73,435.45 348.27,406.43 348.80,678.00 349.33,485.64 349.87,454.38 350.40,449.39 350.94,456.18 351.47,467.72 352.01,443.53 352.55,434.13 353.08,435.45 353.62,406.43 354.15,678.00 354.68,485.64 355.22,454.38 355.75,449.39 356.29,456.18 356.82,467.72 357.36,443.53 357.90,434.13 358.43,435.45 358.97,406.43 359.50,678.00 360.03,485.64 360.57,454.38 361.10,449.39 361.64,456.18 362.18,467.72 362.71,443.53 363.25,434.13 363.78,435.45 364.32,406.43 364.85,678.00 365.38,485.64 365.92,454.38 366.45,449.39 366.99,456.18 367.53,467.72 368.06,443.53 368.60,434.13 369.13,435.45 369.67,406.43 370.20,678.00 370.73,485.64 371.27,454.38 371.80,449.39 372.34,456.18 372.88,467.72 373.41,443.53 373.95,434.13 374.48,435.45 375.02,406.43 375.55,678.00 376.08,485.64 376.62,454.38 377.15,449.39 377.69,456.18 378.23,467.72 378.76,443.53 379.30,434.13 379.83,435.45 380.37,406.43 380.90,678.00 381.43,485.64 381.97,454.38 382.50,449.39 383.04,456.18 383.58,467.72 384.11,443.53 384.65,434.13 385.18,435.45 385.72,406.43 386.25,678.00 386.78,485.64 387.32,454.38 387.85,449.39 388.39,456.18 388.93,467.72 389.46,443.53 390.00,434.13 390.53,435.45 391.07,406.43 391.60,678.00 392.13,485.64 392.67,454.38 393.20,449.39 393.74,456.18 394.27,467.72 394.81,443.53 395.35,434.13 395.88,435.45 396.42,406.43 396.95,678.00 397.48,485.64 398.02,454.38 398.55,449.39 399.09,456.18 399.62,467.72 400.16,443.53 400.70,434.13 401.23,435.45 401.77,406.43 402.30,678.00 402.83,485.64 403.37,454.38 403.90,449.39 404.44,456.18 404.97,467.72 405.51,443.53 406.05,434.13 406.58,435.45 407.12,406.43 407.65,678.00 408.18,485.64 408.72,454.38 409.25,449.39 409.79,456.18 410.32,467.72 410.86,443.53 411.40,434.13 411.93,435.45 412.47,406.43 413.00,678.00 413.53,485.64 414.07,454.38 414.60,449.39 415.14,456.18 415.68,467.72 416.21,443.53 416.75,434.13 417.28,435.45 417.82,406.43 418.35,678.00 418.88,485.64 419.42,454.38 419.95,449.39 420.49,456.18 421.02,467.72 421.56,443.53 422.10,434.13 422.63,435.45 423.17,406.43 423.70,678.00 424.23,485.64 424.77,454.38 425.30,449.39 425.84,456.18 426.38,467.72 426.91,443.53 427.45,434.13 427.98,435.45 428.52,406.43 429.05,678.00 429.58,485.64 430.12,454.38 430.65,449.39 431.19,456.18 431.73,467.72 432.26,443.53 432.80,434.13 433.33,435.45 433.87,406.43 434.40,678.00 434.93,485.64 435.47,454.38 436.00,449.39 436.54,456.18 437.07,467.72 437.61,443.53 438.15,434.13 438.68,435.45 439.22,406.43 439.75,678.00 440.28,485.64 440.82,454.38 441.35,449.39 441.89,456.18 442.43,467.72 442.96,443.53 443.50,434.13 444.03,435.45 444.57,406.43 445.10,678.00 445.63,485.64 446.17,454.38 446.70,449.39 447.24,456.18 447.78,467.72 448.31,443.53 448.85,434.13 449.38,435.45 449.92,406.43 450.45,678.00 450.98,485.64 451.52,454.38 452.05,449.39 452.59,456.18 453.12,467.72 453.66,443.53 454.20,434.13 454.73,435.45 455.27,406.43 455.80,678.00 456.34,464.25 456.87,454.38 457.40,449.39 457.94,457.07 458.48,467.72 459.01,448.82 459.55,434.13 460.08,435.45 460.61,401.03 461.15,678.00 461.69,464.25 462.22,454.38 462.75,449.39 463.29,457.07 463.82,467.72 464.36,448.82 464.90,434.13 465.43,435.45 465.96,401.03 466.50,678.00 467.04,464.25 467.57,454.38 468.10,449.39 468.64,457.07 469.17,467.72 469.71,448.82 470.25,434.13 470.78,435.45 471.31,401.03 471.85,678.00 472.39,464.25 472.92,454.38 473.45,449.39 473.99,457.07 474.52,467.72 475.06,448.82 475.60,434.13 476.13,435.45 476.66,401.03 477.20,678.00 477.74,464.25 478.27,454.38 478.80,449.39 479.34,457.07 479.88,467.72 480.41,448.82 480.95,434.13 481.48,435.45 482.01,401.03 482.55,678.00 483.09,464.25 483.62,454.38 484.15,449.39 484.69,457.07 485.22,467.72 485.76,448.82 486.30,434.13 486.83,435.45 487.36,401.03 487.90,678.00 488.44,464.25 488.97,454.38 489.50,449.39 490.04,457.07 490.57,467.72 491.11,448.82 491.65,434.13 492.18,435.45 492.71,401.03 493.25,678.00 493.79,464.25 494.32,454.38 494.85,449.39 495.39,457.07 495.93,467.72 496.46,448.82 497.00,434.13 497.53,435.45 498.06,401.03 498.60,678.00 499.14,464.25 499.67,454.38 500.20,449.39 500.74,457.07 501.28,467.72 501.81,448.82 502.35,434.13 502.88,435.45 503.41,401.03 503.95,678.00 504.49,464.25 505.02,454.38 505.55,449.39 506.09,457.07 506.62,467.72 507.16,448.82 507.70,434.13 508.23,435.45 508.76,401.03 509.30,678.00 509.84,464.25 510.37,454.38 510.90,449.39 511.44,457.07 511.98,467.72 512.51,448.82 513.05,434.13 513.58,435.45 514.11,401.03 514.65,678.00 515.19,464.25 515.72,454.38 516.25,449.39 516.79,457.07 517.33,467.72 517.86,448.82 518.40,434.13 518.93,435.45 519.46,401.03 520.00,678.00 520.54,464.25 521.07,454.38 521.60,449.39 522.14,457.07 522.67,467.72 523.21,448.82 523.75,434.13 524.28,435.45 524.81,401.03 525.35,678.00 525.89,464.25 526.42,454.38 526.95,449.39 527.49,457.07 528.02,467.72 528.56,448.82 529.10,434.13 529.63,435.45 530.16,401.03 530.70,678.00 531.24,464.25 531.77,454.38 532.30,449.39 532.84,457.07 533.38,467.72 533.91,448.82 534.45,434.13 534.98,435.45 535.51,401.03 536.05,678.00 536.59,464.25 537.12,454.38 537.65,449.39 538.19,457.07 538.72,467.72 539.26,448.82 539.80,434.13 540.33,435.45 540.86,401.03 541.40,678.00 541.94,464.25 542.47,488.26 543.01,461.09 543.54,457.07 544.08,467.72 544.61,448.82 545.14,486.30 545.68,415.83 546.21,401.03 546.75,678.00 547.29,464.25 547.82,488.26 548.36,461.09 548.89,457.07 549.42,467.72 549.96,448.82 550.49,486.30 551.03,415.83 551.56,401.03 552.10,678.00 552.64,464.25 553.17,488.26 553.71,461.09 554.24,457.07 554.77,467.72 555.31,448.82 555.84,486.30 556.38,415.83 556.91,401.03 557.45,678.00 557.99,464.25 558.52,488.26 559.06,461.09 559.59,457.07 560.12,467.72 560.66,448.82 561.19,486.30 561.73,415.83 562.26,401.03 562.80,678.00 563.34,464.25 563.87,488.26 564.41,461.09 564.94,457.07 565.48,467.72 566.01,448.82 566.54,486.30 567.08,415.83 567.61,401.03 568.15,678.00 568.69,464.25 569.22,488.26 569.76,461.09 570.29,457.07 570.83,467.72 571.36,448.82 571.89,486.30 572.43,415.83 572.96,401.03 573.50,678.00 574.04,464.25 574.57,488.26 575.11,461.09 575.64,457.07 576.17,467.72 576.71,448.82 577.24,486.30 577.78,415.83 578.31,401.03 578.85,678.00 579.39,464.25 579.92,488.26 580.46,461.09 580.99,457.07 581.53,467.72 582.06,448.82 582.59,486.30 583.13,415.83 583.66,401.03 584.20,678.00 584.73,467.94 585.27,488.26 585.81,461.09 586.34,441.06 586.88,467.72 587.41,462.66 587.94,486.30 588.48,415.83 589.02,404.29 589.55,678.00 590.08,467.94 590.62,488.26 591.16,461.09 591.69,441.06 592.23,467.72 592.76,462.66 593.29,486.30 593.83,415.83 594.37,404.29 594.90,678.00 595.43,467.94 595.97,488.26 596.51,461.09 597.04,441.06 597.58,467.72 598.11,462.66 598.64,486.30 599.18,415.83 599.72,404.29 600.25,678.00 600.78,467.94 601.32,488.26 601.86,461.09 602.39,441.06 602.92,467.72 603.46,462.66 603.99,486.30 604.53,415.83 605.07,404.29 605.60,678.00 606.13,467.94 606.67,442.58 607.20,446.79 607.74,441.06 608.27,467.72 608.81,462.66 609.35,458.93 609.88,419.32 610.42,404.29 610.95,678.00 611.48,467.94 612.02,442.58 612.55,446.79 613.09,441.06 613.62,467.72 614.16,462.66 614.70,458.93 615.23,419.32 615.77,404.29 616.30,678.00 616.84,446.61 617.37,442.58 617.90,446.79 618.44,449.86 618.98,467.72 619.51,459.02 620.05,458.93 620.58,419.32 621.11,401.48 621.65,678.00 622.19,446.61 622.72,472.74 623.26,499.92 623.79,449.86 624.33,467.72 624.86,494.45 625.39,441.47 625.93,425.02 626.46,400.59 627.00,678.00 627.54,444.51 628.07,460.52 628.61,499.92 629.14,455.24 629.67,467.72 630.21,459.02 630.74,441.47 631.28,423.29 631.81,401.48 632.35,678.00 632.89,446.61 633.42,442.58 633.95,446.79 634.49,449.86 635.02,467.72 635.56,459.02 636.10,458.93 636.63,419.32 637.16,401.48 637.70,678.00 638.23,467.94 638.77,442.58 639.30,446.79 639.84,441.06 640.38,467.72 640.91,462.66 641.45,458.93 641.98,419.32 642.52,404.29 643.05,678.00 643.58,467.94 644.12,442.58 644.65,446.79 645.19,441.06 645.72,467.72 646.26,462.66 646.80,458.93 647.33,419.32 647.87,404.29 648.40,678.00 648.93,467.94 649.47,488.26 650.01,461.09 650.54,441.06 651.07,467.72 651.61,462.66 652.14,486.30 652.68,415.83 653.22,404.29 653.75,678.00 654.28,467.94 654.82,488.26 655.36,461.09 655.89,441.06 656.42,467.72 656.96,462.66 657.49,486.30 658.03,415.83 658.57,404.29 659.10,678.00 659.63,467.94 660.17,488.26 660.71,461.09 661.24,441.06 661.77,467.72 662.31,462.66 662.84,486.30 663.38,415.83 663.92,404.29 664.45,678.00 664.98,467.94 665.52,488.26 666.06,461.09 666.59,441.06 667.12,467.72 667.66,462.66 668.19,486.30 668.73,415.83 669.27,404.29 669.80,678.00 670.34,464.25 670.87,488.26 671.41,461.09 671.94,457.07 672.48,467.72 673.01,448.82 673.54,486.30 674.08,415.83 674.61,401.03 675.15,678.00 675.69,464.25 676.22,488.26 676.76,461.09 677.29,457.07 677.82,467.72 678.36,448.82 678.89,486.30 679.43,415.83 679.96,401.03 680.50,678.00 681.04,464.25 681.57,488.26 682.11,461.09 682.64,457.07 683.17,467.72 683.71,448.82 684.24,486.30 684.78,415.83 685.31,401.03 685.85,678.00 686.39,464.25 686.92,488.26 687.46,461.09 687.99,457.07 688.52,467.72 689.06,448.82 689.59,486.30 690.13,415.83 690.66,401.03 691.20,678.00 691.74,464.25 692.27,488.26 692.81,461.09 693.34,457.07 693.88,467.72 694.41,448.82 694.94,486.30 695.48,415.83 696.01,401.03 696.55,678.00 697.09,464.25 697.62,488.26 698.16,461.09 698.69,457.07 699.23,467.72 699.76,448.82 700.29,486.30 700.83,415.83 701.36,401.03 701.90,678.00 702.44,464.25 702.97,488.26 703.51,461.09 704.04,457.07 704.58,467.72 705.11,448.82 705.64,486.30 706.18,415.83 706.71,401.03 707.25,678.00 707.79,464.25 708.32,488.26 708.86,461.09 709.39,457.07 709.93,467.72 710.46,448.82 710.99,486.30 711.53,415.83 712.06,401.03 712.60,678.00 713.14,464.25 713.67,454.38 714.20,449.39 714.74,457.07 715.27,467.72 715.81,448.82 716.35,434.13 716.88,435.45 717.41,401.03 717.95,678.00 718.49,464.25 719.02,454.38 719.55,449.39 720.09,457.07 720.62,467.72 721.16,448.82 721.70,434.13 722.23,435.45 722.76,401.03 723.30,678.00 723.84,464.25 724.37,454.38 724.90,449.39 725.44,457.07 725.98,467.72 726.51,448.82 727.05,434.13 727.58,435.45 728.11,401.03 728.65,678.00 729.19,464.25 729.72,454.38 730.25,449.39 730.79,457.07 731.33,467.72 731.86,448.82 732.40,434.13 732.93,435.45 733.46,401.03 734.00,678.00 734.54,464.25 735.07,454.38 735.60,449.39 736.14,457.07 736.68,467.72 737.21,448.82 737.75,434.13 738.28,435.45 738.81,401.03 739.35,678.00 739.89,464.25 740.42,454.38 740.95,449.39 741.49,457.07 742.03,467.72 742.56,448.82 743.10,434.13 743.63,435.45 744.16,401.03 744.70,678.00 745.24,464.25 745.77,454.38 746.30,449.39 746.84,457.07 747.38,467.72 747.91,448.82 748.45,434.13 748.98,435.45 749.51,401.03 750.05,678.00 750.59,464.25 751.12,454.38 751.65,449.39 752.19,457.07 752.73,467.72 753.26,448.82 753.80,434.13 754.33,435.45 754.86,401.03 755.40,678.00 755.94,464.25 756.47,454.38 757.00,449.39 757.54,457.07 758.08,467.72 758.61,448.82 759.15,434.13 759.68,435.45 760.21,401.03 760.75,678.00 761.29,464.25 761.82,454.38 762.35,449.39 762.89,457.07 763.42,467.72 763.96,448.82 764.50,434.13 765.03,435.45 765.56,401.03 766.10,678.00 766.64,464.25 767.17,454.38 767.70,449.39 768.24,457.07 768.77,467.72 769.31,448.82 769.85,434.13 770.38,435.45 770.91,401.03 771.45,678.00 771.99,464.25 772.52,454.38 773.05,449.39 773.59,457.07 774.12,467.72 774.66,448.82 775.20,434.13 775.73,435.45 776.26,401.03 776.80,678.00 777.34,464.25 777.87,454.38 778.40,449.39 778.94,457.07 779.47,467.72 780.01,448.82 780.55,434.13 781.08,435.45 781.61,401.03 782.15,678.00 782.69,464.25 783.22,454.38 783.75,449.39 784.29,457.07 784.82,467.72 785.36,448.82 785.90,434.13 786.43,435.45 786.96,401.03 787.50,678.00 788.04,464.25 788.57,454.38 789.10,449.39 789.64,457.07 790.17,467.72 790.71,448.82 791.25,434.13 791.78,435.45 792.31,401.03 792.85,678.00 793.39,464.25 793.92,454.38 794.45,449.39 794.99,457.07 795.52,467.72 796.06,448.82 796.60,434.13 797.13,435.45 797.66,401.03 798.20,678.00 798.73,485.64 799.27,454.38 799.80,449.39 800.34,456.18 800.88,467.72 801.41,443.53 801.95,434.13 802.48,435.45 803.02,406.43 803.55,678.00 804.08,485.64 804.62,454.38 805.15,449.39 805.69,456.18 806.23,467.72 806.76,443.53 807.30,434.13 807.83,435.45 808.37,406.43 808.90,678.00 809.43,485.64 809.97,454.38 810.50,449.39 811.04,456.18 811.57,467.72 812.11,443.53 812.65,434.13 813.18,435.45 813.72,406.43 814.25,678.00 814.78,485.64 815.32,454.38 815.85,449.39 816.39,456.18 816.92,467.72 817.46,443.53 818.00,434.13 818.53,435.45 819.07,406.43 819.60,678.00 820.13,485.64 820.67,454.38 821.20,449.39 821.74,456.18 822.27,467.72 822.81,443.53 823.35,434.13 823.88,435.45 824.42,406.43 824.95,678.00 825.48,485.64 826.02,454.38 826.55,449.39 827.09,456.18 827.62,467.72 828.16,443.53 828.70,434.13 829.23,435.45 829.77,406.43 830.30,678.00 830.83,485.64 831.37,454.38 831.90,449.39 832.44,456.18 832.98,467.72 833.51,443.53 834.05,434.13 834.58,435.45 835.12,406.43 835.65,678.00 836.18,485.64 836.72,454.38 837.25,449.39 837.79,456.18 838.33,467.72 838.86,443.53 839.40,434.13 839.93,435.45 840.47,406.43 841.00,678.00 841.53,485.64 842.07,454.38 842.60,449.39 843.14,456.18 843.68,467.72 844.21,443.53 844.75,434.13 845.28,435.45 845.82,406.43 846.35,678.00 846.88,485.64 847.42,454.38 847.95,449.39 848.49,456.18 849.02,467.72 849.56,443.53 850.10,434.13 850.63,435.45 851.17,406.43 851.70,678.00 852.23,485.64 852.77,454.38 853.30,449.39 853.84,456.18 854.38,467.72 854.91,443.53 855.45,434.13 855.98,435.45 856.52,406.43 857.05,678.00 857.58,485.64 858.12,454.38 858.65,449.39 859.19,456.18 859.73,467.72 860.26,443.53 860.80,434.13 861.33,435.45 861.87,406.43 862.40,678.00 862.93,485.64 863.47,454.38 864.00,449.39 864.54,456.18 865.08,467.72 865.61,443.53 866.15,434.13 866.68,435.45 867.22,406.43 867.75,678.00 868.28,485.64 868.82,454.38 869.35,449.39 869.89,456.18 870.43,467.72 870.96,443.53 871.50,434.13 872.03,435.45 872.57,406.43 873.10,678.00 873.63,485.64 874.17,454.38 874.70,449.39 875.24,456.18 875.78,467.72 876.31,443.53 876.85,434.13 877.38,435.45 877.92,406.43 878.45,678.00 878.98,485.64 879.52,454.38 880.05,449.39 880.59,456.18 881.12,467.72 881.66,443.53 882.20,434.13 882.73,435.45 883.27,406.43 883.80,678.00 884.33,485.64 884.87,454.38 885.40,449.39 885.94,456.18 886.48,467.72 887.01,443.53 887.55,434.13 888.08,435.45 888.62,406.43 889.15,678.00 889.68,485.64 890.22,454.38 890.75,449.39 891.29,456.18 891.83,467.72 892.36,443.53 892.90,434.13 893.43,435.45 893.97,406.43 894.50,678.00 895.03,485.64 895.57,454.38 896.10,449.39 896.64,456.18 897.17,467.72 897.71,443.53 898.25,434.13 898.78,435.45 899.32,406.43 899.85,678.00 900.38,485.64 900.92,454.38 901.45,449.39 901.99,456.18 902.52,467.72 903.06,443.53 903.60,434.13 904.13,435.45 904.67,406.43 905.20,678.00 905.73,485.64 906.27,454.38 906.80,449.39 907.34,456.18 907.88,467.72 908.41,443.53 908.95,434.13 909.48,435.45 910.02,406.43 910.55,678.00 911.08,485.64 911.62,454.38 912.15,449.39 912.69,456.18 913.22,467.72 913.76,443.53 914.30,434.13 914.83,435.45 915.37,406.43 915.90,678.00 916.43,485.64 916.97,454.38 917.50,449.39 918.04,456.18 918.57,467.72 919.11,443.53 919.65,434.13 920.18,435.45 920.72,406.43 921.25,678.00 921.78,485.64 922.32,454.38 922.85,449.39 923.39,456.18 923.92,467.72 924.46,443.53 925.00,434.13 925.53,435.45 926.07,406.43 926.60,678.00 927.13,485.64 927.67,454.38 928.20,449.39 928.74,456.18 929.27,467.72 929.81,443.53 930.35,434.13 930.88,435.45 931.42,406.43 931.95,678.00 932.48,485.64 933.02,454.38 933.55,449.39 934.09,456.18 934.62,467.72 935.16,443.53 935.70,434.13 936.23,435.45 936.77,406.43 937.30,678.00 937.83,485.64 938.37,454.38 938.90,449.39 939.44,456.18 939.98,467.72 940.51,443.53 941.05,434.13 941.58,435.45 942.12,406.43 942.65,678.00 943.18,485.64 943.72,454.38 944.25,449.39 944.79,456.18 945.32,467.72 945.86,443.53 946.40,434.13 946.93,435.45 947.47,406.43 948.00,678.00 948.53,485.64 949.07,454.38 949.60,449.39 950.14,456.18 950.67,467.72 951.21,443.53 951.75,434.13 952.28,435.45 952.82,406.43 953.35,678.00 953.88,485.64 954.42,454.38 954.95,449.39 955.49,456.18 956.02,467.72 956.56,443.53 957.10,434.13 957.63,435.45 958.17,406.43 958.70,678.00 959.23,485.64 959.77,454.38 960.30,449.39 960.84,456.18 961.38,467.72 961.91,443.53 962.45,434.13 962.98,435.45 963.52,406.43 964.05,678.00 964.58,485.64 965.12,454.38 965.65,449.39 966.19,456.18 966.73,467.72 967.26,443.53 967.80,434.13 968.33,435.45 968.87,406.43 969.40,678.00 969.93,485.64 970.47,466.71 971.01,457.88 971.54,456.18 972.08,467.72 972.61,443.53 973.14,434.77 973.68,425.93 974.22,406.43 974.75,678.00 975.28,485.64 975.82,466.71 976.36,457.88 976.89,456.18 977.43,467.72 977.96,443.53 978.49,434.77 979.03,425.93 979.57,406.43 980.10,678.00 980.63,485.64 981.17,466.71 981.71,457.88 982.24,456.18 982.77,467.72 983.31,443.53 983.84,434.77 984.38,425.93 984.92,406.43 985.45,678.00 985.98,485.64 986.52,466.71 987.06,457.88 987.59,456.18 988.12,467.72 988.66,443.53 989.19,434.77 989.73,425.93 990.27,406.43 990.80,678.00 991.33,485.64 991.87,466.71 992.41,457.88 992.94,456.18 993.48,467.72 994.01,443.53 994.54,434.77 995.08,425.93 995.62,406.43 996.15,678.00 996.68,485.64 997.22,466.71 997.76,457.88 998.29,456.18 998.83,467.72 999.36,443.53 999.89,434.77 1000.43,425.93 1000.97,406.43 1001.50,678.00 1002.03,485.64 1002.57,466.71 1003.11,457.88 1003.64,456.18 1004.18,467.72 1004.71,443.53 1005.24,434.77 1005.78,425.93 1006.32,406.43 1006.85,678.00 1007.38,485.64 1007.92,466.71 1008.46,457.88 1008.99,456.18 1009.53,467.72 1010.06,443.53 1010.59,434.77 1011.13,425.93 1011.67,406.43 1012.20,678.00 1012.73,485.64 1013.27,466.71 1013.81,457.88 1014.34,456.18 1014.88,467.72 1015.41,443.53 1015.94,434.77 1016.48,425.93 1017.02,406.43 1017.55,678.00 1018.08,485.64 1018.62,466.71 1019.16,457.88 1019.69,456.18 1020.23,467.72 1020.76,443.53 1021.29,434.77 1021.83,425.93 1022.37,406.43 1022.90,678.00 1023.43,485.64 1023.97,466.71 1024.51,457.88 1025.04,456.18 1025.58,467.72 1026.11,443.53 1026.64,434.77 1027.18,425.93 1027.72,406.43 1028.25,678.00 1028.78,485.64 1029.32,466.71 1029.86,457.88 1030.39,456.18 1030.92,467.72 1031.46,443.53 1031.99,434.77 1032.53,425.93 1033.07,406.43 1033.60,678.00 1034.13,485.64 1034.67,466.71 1035.21,457.88 1035.74,456.18 1036.28,467.72 1036.81,443.53 1037.34,434.77 1037.88,425.93 1038.42,406.43 1038.95,678.00 1039.48,485.64 1040.02,466.71 1040.56,457.88 1041.09,456.18 1041.62,467.72 1042.16,443.53 1042.69,434.77 1043.23,425.93 1043.77,406.43 1044.30,678.00 1044.83,485.64 1045.37,466.71 1045.91,457.88 1046.44,456.18 1046.97,467.72 1047.51,443.53 1048.04,434.77 1048.58,425.93 1049.12,406.43 1049.65,678.00 1050.18,485.64 1050.72,466.71 1051.26,457.88 1051.79,456.18 1052.32,467.72 1052.86,443.53 1053.39,434.77 1053.93,425.93 1054.47,406.43 1055.00,678.00 1055.53,140.26 1056.07,126.04 1056.61,118.02 1057.14,112.53 1057.67,108.42 1058.21,105.19 1058.74,102.56 1059.28,100.36 1059.82,98.49 1060.35,96.89 1060.88,95.49 1061.42,94.26 1061.96,93.18 1062.49,92.21 1063.03,91.35 1063.56,90.57 1064.09,89.87 1064.63,89.24 1065.17,88.66 1065.70,88.14 1066.23,87.66 1066.77,87.23 1067.31,86.83 1067.84,86.47 1068.38,86.13 1068.91,85.82 1069.44,85.54 1069.98,85.28 1070.52,85.04 1071.05,84.82 1071.58,84.61 1072.12,84.42 1072.66,84.24 1073.19,84.08 1073.72,83.93 1074.26,83.79 1074.79,83.66 1075.33,83.54 1075.87,83.43 1076.40,83.33 1076.93,83.23 1077.47,83.14 1078.01,83.06 1078.54,82.98 1079.07,82.91 1079.61,82.84 1080.14,82.78 1080.68,82.72 1081.22,82.67 1081.75,82.62 1082.28,82.57 1082.82,82.53 1083.36,82.49 1083.89,82.45 1084.42,82.42 1084.96,82.38 1085.49,82.35 1086.03,82.33 1086.57,82.30 1087.10,82.27 1087.63,82.25 1088.17,82.23 1088.71,82.21 1089.24,82.19 1089.78,82.17 1090.31,82.16 1090.84,82.14 1091.38,82.13 1091.92,82.12 1092.45,82.10 1092.98,82.09 1093.52,82.08 1094.06,82.07 1094.59,82.06 1095.12,82.05 1095.66,82.05 1096.19,82.04 1096.73,82.03 1097.27,82.02 1097.80,82.02 1098.33,82.01 1098.87,82.01 1099.41,82.00 1099.94,82.00 1100.47,81.99 1101.01,81.99 1101.54,81.99 1102.08,81.98 1102.62,81.98 1103.15,81.98 1103.68,81.97 1104.22,81.97 1104.76,81.97 1105.29,81.97 1105.83,81.96 1106.36,81.96 1106.89,81.96 1107.43,81.96 1107.97,81.96 1108.50,81.96 1109.03,81.95 1109.57,81.95 1110.11,81.95 1110.64,81.95 1111.18,81.95 1111.71,81.95 1112.24,81.95 1112.78,81.95 1113.32,81.95 1113.85,81.94 1114.38,81.94 1114.92,81.94 1115.46,81.94 1115.99,81.94 1116.53,81.94 1117.06,81.94 1117.59,81.94 1118.13,81.94 1118.67,81.94 1119.20,81.94 1119.73,81.94 1120.27,81.94 1120.81,81.94 1121.34,81.94 1121.88,81.94 1122.41,81.94 1122.94,81.94 1123.48,81.94 1124.02,81.94 1124.55,81.94 1125.08,81.94 1125.62,81.94 1126.16,81.94 1126.69,81.94 1127.23,81.94 1127.76,81.94 1128.29,81.94 1128.83,81.94 1129.37,81.94 1129.90,81.94 1130.43,81.94 1130.97,81.94 1131.51,81.94 1132.04,81.94 1132.58,81.94 1133.11,81.94 1133.64,81.94 1134.18,81.94 1134.72,81.94 1135.25,81.94 1135.78,81.94 1136.32,81.93 1136.86,81.93 1137.39,81.93 1137.92,81.93 1138.46,81.93 1138.99,81.93 1139.53,81.93 1140.07,81.93 1140.60,81.93 1141.13,81.93 1141.67,81.93 1142.21,81.93 1142.74,81.93 1143.28,81.93 1143.81,81.93 1144.34,81.93 1144.88,81.93 1145.42,81.93 1145.95,81.93 1146.48,81.93 1147.02,81.93 1147.56,81.93 1148.09,81.93 1148.62,81.93 1149.16,81.93 1149.69,81.93 1150.23,81.93 1150.77,81.93 1151.30,81.93 1151.83,81.93 1152.37,81.93 1152.91,81.93 1153.44,81.93 1153.98,81.93 1154.51,81.93 1155.04,81.93 1155.58,81.93 1156.12,81.93 1156.65,81.93 1157.18,81.93 1157.72,81.93 1158.26,81.93 1158.79,81.93 1159.33,81.93 1159.86,81.93 1160.39,81.93 1160.93,81.93 1161.47,81.93 1162.00,81.93" stroke="#d62728"/>
<rect x="98" y="74" width="430" height="118" rx="6" fill="#ffffff" stroke="#d4d7dd"/>
<line x1="110" y1="96" x2="148" y2="96" stroke="#1f77b4" stroke-width="3"/>
<text class="legend" x="160" y="101">exp(x * ln2) fp32</text>
<line x1="110" y1="126" x2="148" y2="126" stroke="#2ca02c" stroke-width="3"/>
<text class="legend" x="160" y="131">tl.math.exp2(x.to(fp32))</text>
<line x1="110" y1="156" x2="148" y2="156" stroke="#d62728" stroke-width="3"/>
<text class="legend" x="160" y="161">Exp2Scalar polynomial loop</text>
<rect x="740" y="74" width="395" height="118" rx="6" fill="#ffffff" stroke="#d4d7dd"/>
<text class="note" x="752" y="96">max relative error</text>
<text class="note" x="970" y="96">(-80,80)</text>
<text class="note" x="1057" y="96">[-100,100]</text>
<text class="note" x="752" y="122">exp(x * ln2)</text>
<text class="note" x="970" y="122">2.11e-06</text>
<text class="note" x="1057" y="122">4.10e-06</text>
<text class="note" x="752" y="146">tl.exp2(x.to(fp32))</text>
<text class="note" x="970" y="146">5.02e-08</text>
<text class="note" x="1057" y="146">5.02e-08</text>
<text class="note" x="752" y="170">Exp2Scalar polynomial loop</text>
<text class="note" x="970" y="170">5.53e-07</text>
<text class="note" x="1057" y="170">1.00e+00</text>
</svg>